<svg width="163" height="22" viewBox="0 0 163 22" fill="none" xmlns="http://www.w3.org/2000/svg">
<path d="M6.29 9.01C6.56 8.5 6.89 8.05 7.31 7.63C8.3 6.61 9.65 6.07 11.09 6.07C12.5 6.07 13.85 6.61 14.87 7.63C15.38 8.14 15.77 8.71 16.04 9.37L16.13 9.61H21.53L21.44 9.13C20.93 6.79 19.61 4.69 17.75 3.19C15.89 1.66 13.52 0.819999 11.09 0.819999C7.61 0.819999 4.34 2.53 2.36 5.38L2.18 5.65L6.05 9.52L6.29 9.01ZM16.04 13.48C15.77 14.11 15.38 14.71 14.87 15.19C14.45 15.61 14 15.94 13.49 16.21C13.31 16.3 13.16 16.36 12.98 16.42C12.47 16.63 11.96 16.72 11.39 16.75C11.15 16.78 10.88 16.78 10.64 16.75C9.38 16.66 8.21 16.09 7.31 15.19C6.41 14.29 5.84 13.12 5.75 11.86L5.72 11.71L1.31 7.27L1.1 7.9C0.68 9.01 0.5 10.21 0.5 11.41C0.5 14.26 1.58 16.9 3.59 18.91C5.6 20.92 8.24 22 11.09 22C12.53 22 13.91 21.73 15.2 21.19C15.47 21.07 15.71 20.95 15.95 20.83C17.3 20.14 18.53 19.12 19.46 17.92C20.42 16.69 21.11 15.22 21.44 13.72L21.53 13.21H16.13L16.04 13.48ZM35.4486 9.61C34.0686 8.23 32.2386 7.48 30.3186 7.48C28.6686 7.48 27.1386 8.02 25.8486 9.01L25.6086 9.22L28.1586 11.77L28.3686 11.65C28.9386 11.29 29.5986 11.08 30.3186 11.08C31.2786 11.08 32.2086 11.47 32.8986 12.16C33.5886 12.85 33.9786 13.78 33.9786 14.74C33.9786 15.46 33.7686 16.12 33.4086 16.69L33.2886 16.9L35.8386 19.45L36.0486 19.21C37.0386 17.92 37.5786 16.39 37.5786 14.74C37.5786 12.82 36.8286 10.99 35.4486 9.61ZM32.2686 17.86C31.6686 18.22 31.0086 18.4 30.3186 18.4C29.3286 18.4 28.3986 18.04 27.7086 17.35C27.0186 16.66 26.6586 15.73 26.6586 14.74C26.6586 14.05 26.8386 13.39 27.1986 12.79L27.3486 12.61L24.7686 10.03L24.5586 10.3C23.5686 11.59 23.0586 13.12 23.0586 14.74C23.0586 16.69 23.8086 18.52 25.1586 19.9C26.5386 21.25 28.3686 22 30.3186 22C31.9386 22 33.4686 21.49 34.7586 20.5L35.0286 20.29L32.4486 17.71L32.2686 17.86ZM40.5781 22H44.1481V17.26L40.5781 13.66V22ZM50.4481 10.6L50.3581 10.66V16.72L41.2081 7.57L41.1181 7.48H40.5781V12.01L44.1481 15.61L46.4581 17.92L50.4181 21.88L50.5681 22H53.9581V7.06L50.4481 10.6ZM62.2051 7.48L65.8051 11.08H71.4751V7.48H62.2051ZM71.2951 16.18L71.2351 16.03C71.2351 16 71.2351 16 71.2051 15.97C71.2051 15.97 71.2051 15.97 71.2051 15.94L71.1451 15.76C71.1451 15.76 71.1451 15.76 71.1151 15.76V15.7C71.0851 15.61 71.0251 15.55 70.9951 15.46L70.9651 15.43C70.9051 15.31 70.8451 15.19 70.7851 15.07L70.7551 15.04C70.7251 15.01 70.7251 14.98 70.6951 14.95C70.6951 14.92 70.6651 14.92 70.6351 14.89V14.86C70.6051 14.83 70.6051 14.8 70.5751 14.77L70.5451 14.74C70.5151 14.71 70.5151 14.71 70.5151 14.68H70.4851C70.4851 14.65 70.4851 14.65 70.4551 14.62L70.4251 14.59C70.4251 14.56 70.3951 14.56 70.3951 14.53C70.3351 14.47 70.2751 14.41 70.1851 14.32L70.1551 14.29L70.1251 14.26C70.1251 14.26 70.1251 14.26 70.0951 14.23L70.0651 14.2C70.0651 14.2 70.0651 14.2 70.0351 14.2V14.17C70.0051 14.17 70.0051 14.14 69.9751 14.11C69.9451 14.08 69.9151 14.05 69.8851 14.02C69.7951 13.96 69.7051 13.9 69.6151 13.84L69.5851 13.81C69.5551 13.78 69.5251 13.75 69.4651 13.72C69.4051 13.69 69.3751 13.66 69.3151 13.63L69.2251 13.57C69.1651 13.54 69.1051 13.51 69.0451 13.45C68.9851 13.45 68.9551 13.42 68.9251 13.42C68.9251 13.39 68.8951 13.39 68.8651 13.39C68.8051 13.36 68.7751 13.33 68.7151 13.3H68.6851C68.6551 13.27 68.5951 13.27 68.5351 13.24C68.4451 13.21 68.3851 13.18 68.2951 13.15C68.2351 13.15 68.2051 13.12 68.1751 13.12H68.1451C68.1451 13.12 68.1451 13.12 68.1151 13.12L68.0851 13.09H68.0551C68.0251 13.09 67.9651 13.06 67.9351 13.06H67.9051C67.8751 13.06 67.8451 13.03 67.7851 13.03H67.7551C67.6951 13 67.6651 13 67.6051 13C67.5751 13 67.5451 13 67.5151 13V12.97C67.4551 12.97 67.3951 12.97 67.3651 12.97H67.3351C67.3051 12.97 67.3051 12.97 67.2751 12.97C67.2451 12.97 67.2451 12.97 67.2151 12.97C67.1851 12.97 67.1551 12.94 67.0951 12.94H67.0651C67.0351 12.94 67.0351 12.94 67.0051 12.94C66.9751 12.94 66.9751 12.94 66.9451 12.94H61.4851C60.9451 12.94 60.5251 12.52 60.5251 12.01C60.5251 11.5 60.9451 11.08 61.4851 11.08H64.1551L60.6451 7.57L60.4651 7.6C60.3751 7.63 60.2851 7.63 60.1651 7.69C59.4451 7.9 58.7851 8.29 58.2751 8.8C57.7351 9.34 57.3451 10 57.1351 10.72C57.0151 11.14 56.9551 11.56 56.9551 12.01C56.9551 12.46 57.0151 12.91 57.1351 13.33C57.3451 14.05 57.7351 14.68 58.2751 15.22C58.7851 15.76 59.4451 16.15 60.1651 16.36C60.5851 16.48 61.0351 16.54 61.4851 16.54H66.9451C67.4551 16.54 67.8751 16.96 67.8751 17.47C67.8751 18.01 67.4551 18.43 66.9451 18.43H56.9551V22H66.9451C67.9351 22 68.8651 21.7 69.6751 21.1C70.4251 20.53 70.9951 19.69 71.2651 18.79C71.4151 18.37 71.4751 17.92 71.4751 17.47C71.4751 17.05 71.4151 16.6 71.2951 16.18Z" fill="#2D2D2D"/>
<path d="M82.2146 22H87.3146V16.42L82.2146 11.32V22ZM74.4746 1.39V6.49H82.2146V8.98L87.3146 14.08V6.49H95.0846V1.39H74.4746ZM104.633 16.54C104.723 16.54 104.783 16.54 104.843 16.54H104.903C106.073 16.51 107.153 16.06 107.963 15.25C108.773 14.41 109.253 13.33 109.313 12.16C109.313 12.01 109.313 11.86 109.313 11.71C109.313 11.38 109.283 11.05 109.223 10.72C109.043 9.97 108.653 9.28 108.083 8.74C107.483 8.14 106.733 7.72 105.923 7.57C105.653 7.51 105.383 7.48 105.083 7.48H95.3926V12.79L98.9626 16.39V16.36L104.543 21.94L104.633 22H110.213L104.633 16.54ZM104.393 12.97H100.943L99.2326 11.23H105.533C105.563 11.29 105.563 11.38 105.593 11.44C105.593 11.47 105.623 11.53 105.623 11.59C105.623 11.59 105.623 11.62 105.623 11.65C105.623 11.68 105.623 11.71 105.623 11.71C105.623 11.89 105.593 12.07 105.503 12.25C105.503 12.28 105.473 12.34 105.443 12.37C105.413 12.4 105.413 12.43 105.413 12.43C105.383 12.46 105.383 12.46 105.353 12.49C105.353 12.49 105.353 12.52 105.323 12.52V12.55C105.293 12.55 105.293 12.58 105.263 12.61C105.143 12.73 104.993 12.82 104.813 12.88C104.753 12.91 104.693 12.91 104.633 12.94C104.543 12.94 104.483 12.97 104.393 12.97ZM95.3926 22H98.9626V18.04L95.3926 14.44V22ZM112.004 22H116.204L120.284 15.25L118.184 11.77L112.004 22ZM120.974 7.21L118.874 10.66L124.874 20.59L125.744 22H129.944L120.974 7.21ZM146.15 10.63C146.12 10.63 146.12 10.6 146.12 10.6C144.77 8.65 142.55 7.48 140.18 7.48H132.98V11.59L136.58 15.22V11.11H140.18C141.38 11.11 142.49 11.68 143.15 12.67C143.15 12.67 143.15 12.67 143.18 12.67C143.57 13.3 143.81 14.02 143.81 14.74C143.81 15.49 143.6 16.21 143.18 16.81C143.18 16.81 143.15 16.81 143.15 16.84C142.52 17.74 141.53 18.31 140.42 18.37C140.36 18.4 140.27 18.4 140.18 18.4H136.58V16.84L132.98 13.24V22H140.18C142.55 22 144.77 20.86 146.12 18.91C146.12 18.88 146.15 18.85 146.15 18.85C146.99 17.62 147.41 16.21 147.41 14.74C147.41 13.27 146.96 11.83 146.15 10.63ZM154.011 18.43V17.41L150.441 13.81V22H162.561V18.43H154.011ZM162.561 16.57V12.97H156.291L154.431 11.08H162.561V7.48H150.441V12.16L154.821 16.57H162.561Z" fill="#F48B0E"/>
</svg>
