<svg xmlns="http://www.w3.org/2000/svg" xmlns:xlink="http://www.w3.org/1999/xlink" width="1080" zoomAndPan="magnify" viewBox="0 0 810 809.999993" height="1080" preserveAspectRatio="xMidYMid meet" version="1.0"><defs><linearGradient x1="1" gradientTransform="matrix(809.999993, 0, 0, 809.999993, 0.0000035, 0.00002)" y1="0.5" x2="0" gradientUnits="userSpaceOnUse" y2="0.5" id="3796ffb239"><stop stop-opacity="1" stop-color="rgb(21.998596%, 71.398926%, 99.998474%)" offset="0"/><stop stop-opacity="1" stop-color="rgb(22.303772%, 71.342468%, 99.725342%)" offset="0.00390625"/><stop stop-opacity="1" stop-color="rgb(22.608948%, 71.286011%, 99.453735%)" offset="0.0078125"/><stop stop-opacity="1" stop-color="rgb(22.912598%, 71.229553%, 99.180603%)" offset="0.0117188"/><stop stop-opacity="1" stop-color="rgb(23.217773%, 71.173096%, 98.908997%)" offset="0.015625"/><stop stop-opacity="1" stop-color="rgb(23.522949%, 71.115112%, 98.635864%)" offset="0.0195313"/><stop stop-opacity="1" stop-color="rgb(23.828125%, 71.058655%, 98.362732%)" offset="0.0234375"/><stop stop-opacity="1" stop-color="rgb(24.131775%, 71.002197%, 98.0896%)" offset="0.0273438"/><stop stop-opacity="1" stop-color="rgb(24.436951%, 70.94574%, 97.817993%)" offset="0.03125"/><stop stop-opacity="1" stop-color="rgb(24.740601%, 70.889282%, 97.544861%)" offset="0.0351563"/><stop stop-opacity="1" stop-color="rgb(25.045776%, 70.832825%, 97.273254%)" offset="0.0390625"/><stop stop-opacity="1" stop-color="rgb(25.350952%, 70.776367%, 97.000122%)" offset="0.0429688"/><stop stop-opacity="1" stop-color="rgb(25.656128%, 70.71991%, 96.72699%)" offset="0.046875"/><stop stop-opacity="1" stop-color="rgb(25.959778%, 70.663452%, 96.453857%)" offset="0.0507812"/><stop stop-opacity="1" stop-color="rgb(26.264954%, 70.606995%, 96.182251%)" offset="0.0546875"/><stop stop-opacity="1" stop-color="rgb(26.568604%, 70.549011%, 95.909119%)" offset="0.0585938"/><stop stop-opacity="1" stop-color="rgb(26.873779%, 70.492554%, 95.635986%)" offset="0.0625"/><stop stop-opacity="1" stop-color="rgb(27.178955%, 70.436096%, 95.362854%)" offset="0.0664063"/><stop stop-opacity="1" stop-color="rgb(27.484131%, 70.379639%, 95.091248%)" offset="0.0703125"/><stop stop-opacity="1" stop-color="rgb(27.787781%, 70.323181%, 94.818115%)" offset="0.0742188"/><stop stop-opacity="1" stop-color="rgb(28.092957%, 70.266724%, 94.546509%)" offset="0.078125"/><stop stop-opacity="1" stop-color="rgb(28.396606%, 70.210266%, 94.273376%)" offset="0.0820313"/><stop stop-opacity="1" stop-color="rgb(28.701782%, 70.153809%, 94.000244%)" offset="0.0859375"/><stop stop-opacity="1" stop-color="rgb(29.006958%, 70.095825%, 93.727112%)" offset="0.0898438"/><stop stop-opacity="1" stop-color="rgb(29.312134%, 70.039368%, 93.455505%)" offset="0.09375"/><stop stop-opacity="1" stop-color="rgb(29.615784%, 69.98291%, 93.182373%)" offset="0.0976562"/><stop stop-opacity="1" stop-color="rgb(29.920959%, 69.926453%, 92.910767%)" offset="0.101562"/><stop stop-opacity="1" stop-color="rgb(30.224609%, 69.869995%, 92.637634%)" offset="0.105469"/><stop stop-opacity="1" stop-color="rgb(30.529785%, 69.813538%, 92.364502%)" offset="0.109375"/><stop stop-opacity="1" stop-color="rgb(30.834961%, 69.75708%, 92.09137%)" offset="0.113281"/><stop stop-opacity="1" stop-color="rgb(31.140137%, 69.700623%, 91.819763%)" offset="0.117188"/><stop stop-opacity="1" stop-color="rgb(31.443787%, 69.642639%, 91.546631%)" offset="0.121094"/><stop stop-opacity="1" stop-color="rgb(31.748962%, 69.586182%, 91.273499%)" offset="0.125"/><stop stop-opacity="1" stop-color="rgb(32.054138%, 69.529724%, 91.000366%)" offset="0.128906"/><stop stop-opacity="1" stop-color="rgb(32.359314%, 69.473267%, 90.72876%)" offset="0.132813"/><stop stop-opacity="1" stop-color="rgb(32.662964%, 69.416809%, 90.455627%)" offset="0.136719"/><stop stop-opacity="1" stop-color="rgb(32.96814%, 69.360352%, 90.184021%)" offset="0.140625"/><stop stop-opacity="1" stop-color="rgb(33.27179%, 69.303894%, 89.910889%)" offset="0.144531"/><stop stop-opacity="1" stop-color="rgb(33.576965%, 69.247437%, 89.637756%)" offset="0.148438"/><stop stop-opacity="1" stop-color="rgb(33.882141%, 69.189453%, 89.364624%)" offset="0.152344"/><stop stop-opacity="1" stop-color="rgb(34.187317%, 69.132996%, 89.093018%)" offset="0.15625"/><stop stop-opacity="1" stop-color="rgb(34.490967%, 69.076538%, 88.819885%)" offset="0.160156"/><stop stop-opacity="1" stop-color="rgb(34.796143%, 69.020081%, 88.548279%)" offset="0.164063"/><stop stop-opacity="1" stop-color="rgb(35.099792%, 68.963623%, 88.275146%)" offset="0.167969"/><stop stop-opacity="1" stop-color="rgb(35.404968%, 68.907166%, 88.002014%)" offset="0.171875"/><stop stop-opacity="1" stop-color="rgb(35.710144%, 68.850708%, 87.728882%)" offset="0.175781"/><stop stop-opacity="1" stop-color="rgb(36.01532%, 68.79425%, 87.457275%)" offset="0.179688"/><stop stop-opacity="1" stop-color="rgb(36.31897%, 68.736267%, 87.184143%)" offset="0.183594"/><stop stop-opacity="1" stop-color="rgb(36.624146%, 68.67981%, 86.911011%)" offset="0.1875"/><stop stop-opacity="1" stop-color="rgb(36.927795%, 68.623352%, 86.637878%)" offset="0.191406"/><stop stop-opacity="1" stop-color="rgb(37.232971%, 68.566895%, 86.366272%)" offset="0.195312"/><stop stop-opacity="1" stop-color="rgb(37.538147%, 68.510437%, 86.09314%)" offset="0.199219"/><stop stop-opacity="1" stop-color="rgb(37.843323%, 68.453979%, 85.821533%)" offset="0.203125"/><stop stop-opacity="1" stop-color="rgb(38.146973%, 68.397522%, 85.548401%)" offset="0.207031"/><stop stop-opacity="1" stop-color="rgb(38.452148%, 68.341064%, 85.275269%)" offset="0.210938"/><stop stop-opacity="1" stop-color="rgb(38.757324%, 68.283081%, 85.002136%)" offset="0.214844"/><stop stop-opacity="1" stop-color="rgb(39.0625%, 68.226624%, 84.73053%)" offset="0.21875"/><stop stop-opacity="1" stop-color="rgb(39.36615%, 68.170166%, 84.457397%)" offset="0.222656"/><stop stop-opacity="1" stop-color="rgb(39.671326%, 68.113708%, 84.185791%)" offset="0.226562"/><stop stop-opacity="1" stop-color="rgb(39.974976%, 68.057251%, 83.912659%)" offset="0.230469"/><stop stop-opacity="1" stop-color="rgb(40.280151%, 68.000793%, 83.639526%)" offset="0.234375"/><stop stop-opacity="1" stop-color="rgb(40.585327%, 67.944336%, 83.366394%)" offset="0.238281"/><stop stop-opacity="1" stop-color="rgb(40.890503%, 67.887878%, 83.094788%)" offset="0.242188"/><stop stop-opacity="1" stop-color="rgb(41.194153%, 67.831421%, 82.821655%)" offset="0.246094"/><stop stop-opacity="1" stop-color="rgb(41.499329%, 67.774963%, 82.548523%)" offset="0.25"/><stop stop-opacity="1" stop-color="rgb(41.802979%, 67.71698%, 82.275391%)" offset="0.253906"/><stop stop-opacity="1" stop-color="rgb(42.108154%, 67.660522%, 82.003784%)" offset="0.257813"/><stop stop-opacity="1" stop-color="rgb(42.41333%, 67.604065%, 81.730652%)" offset="0.261719"/><stop stop-opacity="1" stop-color="rgb(42.718506%, 67.547607%, 81.459045%)" offset="0.265625"/><stop stop-opacity="1" stop-color="rgb(43.022156%, 67.49115%, 81.185913%)" offset="0.269531"/><stop stop-opacity="1" stop-color="rgb(43.327332%, 67.434692%, 80.912781%)" offset="0.273438"/><stop stop-opacity="1" stop-color="rgb(43.630981%, 67.378235%, 80.639648%)" offset="0.277344"/><stop stop-opacity="1" stop-color="rgb(43.936157%, 67.321777%, 80.368042%)" offset="0.28125"/><stop stop-opacity="1" stop-color="rgb(44.241333%, 67.263794%, 80.09491%)" offset="0.285156"/><stop stop-opacity="1" stop-color="rgb(44.546509%, 67.207336%, 79.823303%)" offset="0.289063"/><stop stop-opacity="1" stop-color="rgb(44.850159%, 67.150879%, 79.550171%)" offset="0.292969"/><stop stop-opacity="1" stop-color="rgb(45.155334%, 67.094421%, 79.277039%)" offset="0.296875"/><stop stop-opacity="1" stop-color="rgb(45.458984%, 67.037964%, 79.003906%)" offset="0.300781"/><stop stop-opacity="1" stop-color="rgb(45.76416%, 66.981506%, 78.7323%)" offset="0.304688"/><stop stop-opacity="1" stop-color="rgb(46.069336%, 66.925049%, 78.459167%)" offset="0.308594"/><stop stop-opacity="1" stop-color="rgb(46.374512%, 66.868591%, 78.186035%)" offset="0.3125"/><stop stop-opacity="1" stop-color="rgb(46.678162%, 66.810608%, 77.912903%)" offset="0.316406"/><stop stop-opacity="1" stop-color="rgb(46.983337%, 66.75415%, 77.641296%)" offset="0.320313"/><stop stop-opacity="1" stop-color="rgb(47.288513%, 66.697693%, 77.368164%)" offset="0.324219"/><stop stop-opacity="1" stop-color="rgb(47.593689%, 66.641235%, 77.096558%)" offset="0.328125"/><stop stop-opacity="1" stop-color="rgb(47.897339%, 66.584778%, 76.823425%)" offset="0.332031"/><stop stop-opacity="1" stop-color="rgb(48.202515%, 66.52832%, 76.550293%)" offset="0.335938"/><stop stop-opacity="1" stop-color="rgb(48.506165%, 66.471863%, 76.277161%)" offset="0.339844"/><stop stop-opacity="1" stop-color="rgb(48.81134%, 66.415405%, 76.005554%)" offset="0.34375"/><stop stop-opacity="1" stop-color="rgb(49.116516%, 66.357422%, 75.732422%)" offset="0.347656"/><stop stop-opacity="1" stop-color="rgb(49.421692%, 66.300964%, 75.460815%)" offset="0.351563"/><stop stop-opacity="1" stop-color="rgb(49.725342%, 66.244507%, 75.187683%)" offset="0.355469"/><stop stop-opacity="1" stop-color="rgb(50.030518%, 66.188049%, 74.914551%)" offset="0.359375"/><stop stop-opacity="1" stop-color="rgb(50.334167%, 66.131592%, 74.641418%)" offset="0.363281"/><stop stop-opacity="1" stop-color="rgb(50.639343%, 66.075134%, 74.369812%)" offset="0.367188"/><stop stop-opacity="1" stop-color="rgb(50.944519%, 66.018677%, 74.09668%)" offset="0.371094"/><stop stop-opacity="1" stop-color="rgb(51.249695%, 65.962219%, 73.823547%)" offset="0.375"/><stop stop-opacity="1" stop-color="rgb(51.553345%, 65.904236%, 73.550415%)" offset="0.378906"/><stop stop-opacity="1" stop-color="rgb(51.858521%, 65.847778%, 73.278809%)" offset="0.382812"/><stop stop-opacity="1" stop-color="rgb(52.16217%, 65.791321%, 73.005676%)" offset="0.386719"/><stop stop-opacity="1" stop-color="rgb(52.467346%, 65.734863%, 72.73407%)" offset="0.390625"/><stop stop-opacity="1" stop-color="rgb(52.772522%, 65.678406%, 72.460938%)" offset="0.394531"/><stop stop-opacity="1" stop-color="rgb(53.077698%, 65.621948%, 72.187805%)" offset="0.398438"/><stop stop-opacity="1" stop-color="rgb(53.381348%, 65.565491%, 71.914673%)" offset="0.402344"/><stop stop-opacity="1" stop-color="rgb(53.686523%, 65.509033%, 71.643066%)" offset="0.40625"/><stop stop-opacity="1" stop-color="rgb(53.991699%, 65.45105%, 71.369934%)" offset="0.410156"/><stop stop-opacity="1" stop-color="rgb(54.296875%, 65.394592%, 71.098328%)" offset="0.414062"/><stop stop-opacity="1" stop-color="rgb(54.600525%, 65.338135%, 70.825195%)" offset="0.417969"/><stop stop-opacity="1" stop-color="rgb(54.905701%, 65.281677%, 70.552063%)" offset="0.421875"/><stop stop-opacity="1" stop-color="rgb(55.209351%, 65.22522%, 70.278931%)" offset="0.425781"/><stop stop-opacity="1" stop-color="rgb(55.514526%, 65.168762%, 70.007324%)" offset="0.429688"/><stop stop-opacity="1" stop-color="rgb(55.819702%, 65.112305%, 69.734192%)" offset="0.433594"/><stop stop-opacity="1" stop-color="rgb(56.124878%, 65.055847%, 69.46106%)" offset="0.4375"/><stop stop-opacity="1" stop-color="rgb(56.428528%, 64.99939%, 69.187927%)" offset="0.441406"/><stop stop-opacity="1" stop-color="rgb(56.733704%, 64.942932%, 68.916321%)" offset="0.445312"/><stop stop-opacity="1" stop-color="rgb(57.037354%, 64.884949%, 68.643188%)" offset="0.449219"/><stop stop-opacity="1" stop-color="rgb(57.342529%, 64.828491%, 68.371582%)" offset="0.453125"/><stop stop-opacity="1" stop-color="rgb(57.647705%, 64.772034%, 68.09845%)" offset="0.457031"/><stop stop-opacity="1" stop-color="rgb(57.952881%, 64.715576%, 67.825317%)" offset="0.460938"/><stop stop-opacity="1" stop-color="rgb(58.256531%, 64.659119%, 67.552185%)" offset="0.464844"/><stop stop-opacity="1" stop-color="rgb(58.561707%, 64.602661%, 67.280579%)" offset="0.46875"/><stop stop-opacity="1" stop-color="rgb(58.865356%, 64.546204%, 67.007446%)" offset="0.472656"/><stop stop-opacity="1" stop-color="rgb(59.170532%, 64.489746%, 66.73584%)" offset="0.476562"/><stop stop-opacity="1" stop-color="rgb(59.475708%, 64.431763%, 66.462708%)" offset="0.480469"/><stop stop-opacity="1" stop-color="rgb(59.780884%, 64.375305%, 66.189575%)" offset="0.484375"/><stop stop-opacity="1" stop-color="rgb(60.084534%, 64.318848%, 65.916443%)" offset="0.488281"/><stop stop-opacity="1" stop-color="rgb(60.389709%, 64.26239%, 65.644836%)" offset="0.492188"/><stop stop-opacity="1" stop-color="rgb(60.693359%, 64.205933%, 65.371704%)" offset="0.496094"/><stop stop-opacity="1" stop-color="rgb(60.998535%, 64.149475%, 65.098572%)" offset="0.5"/><stop stop-opacity="1" stop-color="rgb(61.303711%, 64.093018%, 64.825439%)" offset="0.503906"/><stop stop-opacity="1" stop-color="rgb(61.608887%, 64.03656%, 64.553833%)" offset="0.507812"/><stop stop-opacity="1" stop-color="rgb(61.912537%, 63.978577%, 64.280701%)" offset="0.511719"/><stop stop-opacity="1" stop-color="rgb(62.217712%, 63.922119%, 64.009094%)" offset="0.515625"/><stop stop-opacity="1" stop-color="rgb(62.522888%, 63.865662%, 63.735962%)" offset="0.519531"/><stop stop-opacity="1" stop-color="rgb(62.828064%, 63.809204%, 63.46283%)" offset="0.523438"/><stop stop-opacity="1" stop-color="rgb(63.131714%, 63.752747%, 63.189697%)" offset="0.527344"/><stop stop-opacity="1" stop-color="rgb(63.43689%, 63.696289%, 62.918091%)" offset="0.53125"/><stop stop-opacity="1" stop-color="rgb(63.74054%, 63.639832%, 62.644958%)" offset="0.535156"/><stop stop-opacity="1" stop-color="rgb(64.045715%, 63.583374%, 62.373352%)" offset="0.539063"/><stop stop-opacity="1" stop-color="rgb(64.350891%, 63.525391%, 62.10022%)" offset="0.542969"/><stop stop-opacity="1" stop-color="rgb(64.656067%, 63.468933%, 61.827087%)" offset="0.546875"/><stop stop-opacity="1" stop-color="rgb(64.959717%, 63.412476%, 61.553955%)" offset="0.550781"/><stop stop-opacity="1" stop-color="rgb(65.264893%, 63.356018%, 61.282349%)" offset="0.554688"/><stop stop-opacity="1" stop-color="rgb(65.568542%, 63.299561%, 61.009216%)" offset="0.558594"/><stop stop-opacity="1" stop-color="rgb(65.873718%, 63.243103%, 60.736084%)" offset="0.5625"/><stop stop-opacity="1" stop-color="rgb(66.178894%, 63.186646%, 60.462952%)" offset="0.566406"/><stop stop-opacity="1" stop-color="rgb(66.48407%, 63.130188%, 60.191345%)" offset="0.570313"/><stop stop-opacity="1" stop-color="rgb(66.78772%, 63.072205%, 59.918213%)" offset="0.574219"/><stop stop-opacity="1" stop-color="rgb(67.092896%, 63.015747%, 59.646606%)" offset="0.578125"/><stop stop-opacity="1" stop-color="rgb(67.396545%, 62.95929%, 59.373474%)" offset="0.582031"/><stop stop-opacity="1" stop-color="rgb(67.701721%, 62.902832%, 59.100342%)" offset="0.585938"/><stop stop-opacity="1" stop-color="rgb(68.006897%, 62.846375%, 58.827209%)" offset="0.589844"/><stop stop-opacity="1" stop-color="rgb(68.312073%, 62.789917%, 58.555603%)" offset="0.59375"/><stop stop-opacity="1" stop-color="rgb(68.615723%, 62.733459%, 58.282471%)" offset="0.597656"/><stop stop-opacity="1" stop-color="rgb(68.920898%, 62.677002%, 58.010864%)" offset="0.601563"/><stop stop-opacity="1" stop-color="rgb(69.226074%, 62.619019%, 57.737732%)" offset="0.605469"/><stop stop-opacity="1" stop-color="rgb(69.53125%, 62.562561%, 57.4646%)" offset="0.609375"/><stop stop-opacity="1" stop-color="rgb(69.8349%, 62.506104%, 57.191467%)" offset="0.613281"/><stop stop-opacity="1" stop-color="rgb(70.140076%, 62.449646%, 56.919861%)" offset="0.617188"/><stop stop-opacity="1" stop-color="rgb(70.443726%, 62.393188%, 56.646729%)" offset="0.621094"/><stop stop-opacity="1" stop-color="rgb(70.748901%, 62.336731%, 56.373596%)" offset="0.625"/><stop stop-opacity="1" stop-color="rgb(71.054077%, 62.280273%, 56.100464%)" offset="0.628906"/><stop stop-opacity="1" stop-color="rgb(71.359253%, 62.223816%, 55.828857%)" offset="0.632813"/><stop stop-opacity="1" stop-color="rgb(71.662903%, 62.167358%, 55.555725%)" offset="0.636719"/><stop stop-opacity="1" stop-color="rgb(71.968079%, 62.110901%, 55.284119%)" offset="0.640625"/><stop stop-opacity="1" stop-color="rgb(72.271729%, 62.052917%, 55.010986%)" offset="0.644531"/><stop stop-opacity="1" stop-color="rgb(72.576904%, 61.99646%, 54.737854%)" offset="0.648438"/><stop stop-opacity="1" stop-color="rgb(72.88208%, 61.940002%, 54.464722%)" offset="0.652344"/><stop stop-opacity="1" stop-color="rgb(73.187256%, 61.883545%, 54.193115%)" offset="0.65625"/><stop stop-opacity="1" stop-color="rgb(73.490906%, 61.827087%, 53.919983%)" offset="0.660156"/><stop stop-opacity="1" stop-color="rgb(73.796082%, 61.77063%, 53.648376%)" offset="0.664063"/><stop stop-opacity="1" stop-color="rgb(74.099731%, 61.714172%, 53.375244%)" offset="0.667969"/><stop stop-opacity="1" stop-color="rgb(74.404907%, 61.657715%, 53.102112%)" offset="0.671875"/><stop stop-opacity="1" stop-color="rgb(74.710083%, 61.599731%, 52.828979%)" offset="0.675781"/><stop stop-opacity="1" stop-color="rgb(75.015259%, 61.543274%, 52.557373%)" offset="0.679688"/><stop stop-opacity="1" stop-color="rgb(75.318909%, 61.486816%, 52.284241%)" offset="0.683594"/><stop stop-opacity="1" stop-color="rgb(75.624084%, 61.430359%, 52.011108%)" offset="0.6875"/><stop stop-opacity="1" stop-color="rgb(75.927734%, 61.373901%, 51.737976%)" offset="0.691406"/><stop stop-opacity="1" stop-color="rgb(76.23291%, 61.317444%, 51.46637%)" offset="0.695313"/><stop stop-opacity="1" stop-color="rgb(76.538086%, 61.260986%, 51.193237%)" offset="0.699219"/><stop stop-opacity="1" stop-color="rgb(76.843262%, 61.204529%, 50.921631%)" offset="0.703125"/><stop stop-opacity="1" stop-color="rgb(77.146912%, 61.146545%, 50.648499%)" offset="0.707031"/><stop stop-opacity="1" stop-color="rgb(77.452087%, 61.090088%, 50.375366%)" offset="0.710938"/><stop stop-opacity="1" stop-color="rgb(77.757263%, 61.03363%, 50.102234%)" offset="0.714844"/><stop stop-opacity="1" stop-color="rgb(78.062439%, 60.977173%, 49.830627%)" offset="0.71875"/><stop stop-opacity="1" stop-color="rgb(78.366089%, 60.920715%, 49.557495%)" offset="0.722656"/><stop stop-opacity="1" stop-color="rgb(78.671265%, 60.864258%, 49.285889%)" offset="0.726563"/><stop stop-opacity="1" stop-color="rgb(78.974915%, 60.8078%, 49.012756%)" offset="0.730469"/><stop stop-opacity="1" stop-color="rgb(79.28009%, 60.751343%, 48.739624%)" offset="0.734375"/><stop stop-opacity="1" stop-color="rgb(79.585266%, 60.693359%, 48.466492%)" offset="0.738281"/><stop stop-opacity="1" stop-color="rgb(79.890442%, 60.636902%, 48.194885%)" offset="0.742188"/><stop stop-opacity="1" stop-color="rgb(80.194092%, 60.580444%, 47.921753%)" offset="0.746094"/><stop stop-opacity="1" stop-color="rgb(80.499268%, 60.523987%, 47.648621%)" offset="0.75"/><stop stop-opacity="1" stop-color="rgb(80.802917%, 60.467529%, 47.375488%)" offset="0.753906"/><stop stop-opacity="1" stop-color="rgb(81.108093%, 60.411072%, 47.103882%)" offset="0.757812"/><stop stop-opacity="1" stop-color="rgb(81.413269%, 60.354614%, 46.83075%)" offset="0.761719"/><stop stop-opacity="1" stop-color="rgb(81.718445%, 60.298157%, 46.559143%)" offset="0.765625"/><stop stop-opacity="1" stop-color="rgb(82.022095%, 60.240173%, 46.286011%)" offset="0.769531"/><stop stop-opacity="1" stop-color="rgb(82.327271%, 60.183716%, 46.012878%)" offset="0.773438"/><stop stop-opacity="1" stop-color="rgb(82.63092%, 60.127258%, 45.739746%)" offset="0.777344"/><stop stop-opacity="1" stop-color="rgb(82.936096%, 60.070801%, 45.46814%)" offset="0.78125"/><stop stop-opacity="1" stop-color="rgb(83.241272%, 60.014343%, 45.195007%)" offset="0.785156"/><stop stop-opacity="1" stop-color="rgb(83.546448%, 59.957886%, 44.923401%)" offset="0.789062"/><stop stop-opacity="1" stop-color="rgb(83.850098%, 59.901428%, 44.650269%)" offset="0.792969"/><stop stop-opacity="1" stop-color="rgb(84.155273%, 59.844971%, 44.377136%)" offset="0.796875"/><stop stop-opacity="1" stop-color="rgb(84.460449%, 59.786987%, 44.104004%)" offset="0.800781"/><stop stop-opacity="1" stop-color="rgb(84.765625%, 59.73053%, 43.832397%)" offset="0.804688"/><stop stop-opacity="1" stop-color="rgb(85.069275%, 59.674072%, 43.559265%)" offset="0.808594"/><stop stop-opacity="1" stop-color="rgb(85.374451%, 59.617615%, 43.286133%)" offset="0.8125"/><stop stop-opacity="1" stop-color="rgb(85.678101%, 59.561157%, 43.013%)" offset="0.816406"/><stop stop-opacity="1" stop-color="rgb(85.983276%, 59.5047%, 42.741394%)" offset="0.820312"/><stop stop-opacity="1" stop-color="rgb(86.288452%, 59.448242%, 42.468262%)" offset="0.824219"/><stop stop-opacity="1" stop-color="rgb(86.593628%, 59.391785%, 42.196655%)" offset="0.828125"/><stop stop-opacity="1" stop-color="rgb(86.897278%, 59.335327%, 41.923523%)" offset="0.832031"/><stop stop-opacity="1" stop-color="rgb(87.202454%, 59.27887%, 41.650391%)" offset="0.835938"/><stop stop-opacity="1" stop-color="rgb(87.506104%, 59.220886%, 41.377258%)" offset="0.839844"/><stop stop-opacity="1" stop-color="rgb(87.811279%, 59.164429%, 41.105652%)" offset="0.84375"/><stop stop-opacity="1" stop-color="rgb(88.116455%, 59.107971%, 40.83252%)" offset="0.847656"/><stop stop-opacity="1" stop-color="rgb(88.421631%, 59.051514%, 40.560913%)" offset="0.851562"/><stop stop-opacity="1" stop-color="rgb(88.725281%, 58.995056%, 40.287781%)" offset="0.855469"/><stop stop-opacity="1" stop-color="rgb(89.030457%, 58.938599%, 40.014648%)" offset="0.859375"/><stop stop-opacity="1" stop-color="rgb(89.334106%, 58.882141%, 39.741516%)" offset="0.863281"/><stop stop-opacity="1" stop-color="rgb(89.639282%, 58.825684%, 39.46991%)" offset="0.867188"/><stop stop-opacity="1" stop-color="rgb(89.944458%, 58.7677%, 39.196777%)" offset="0.871094"/><stop stop-opacity="1" stop-color="rgb(90.249634%, 58.711243%, 38.923645%)" offset="0.875"/><stop stop-opacity="1" stop-color="rgb(90.553284%, 58.654785%, 38.650513%)" offset="0.878906"/><stop stop-opacity="1" stop-color="rgb(90.858459%, 58.598328%, 38.378906%)" offset="0.882812"/><stop stop-opacity="1" stop-color="rgb(91.162109%, 58.54187%, 38.105774%)" offset="0.886719"/><stop stop-opacity="1" stop-color="rgb(91.467285%, 58.485413%, 37.834167%)" offset="0.890625"/><stop stop-opacity="1" stop-color="rgb(91.772461%, 58.428955%, 37.561035%)" offset="0.894531"/><stop stop-opacity="1" stop-color="rgb(92.077637%, 58.372498%, 37.287903%)" offset="0.898438"/><stop stop-opacity="1" stop-color="rgb(92.381287%, 58.314514%, 37.014771%)" offset="0.902344"/><stop stop-opacity="1" stop-color="rgb(92.686462%, 58.258057%, 36.743164%)" offset="0.90625"/><stop stop-opacity="1" stop-color="rgb(92.991638%, 58.201599%, 36.470032%)" offset="0.910156"/><stop stop-opacity="1" stop-color="rgb(93.296814%, 58.145142%, 36.198425%)" offset="0.914062"/><stop stop-opacity="1" stop-color="rgb(93.600464%, 58.088684%, 35.925293%)" offset="0.917969"/><stop stop-opacity="1" stop-color="rgb(93.90564%, 58.032227%, 35.652161%)" offset="0.921875"/><stop stop-opacity="1" stop-color="rgb(94.20929%, 57.975769%, 35.379028%)" offset="0.925781"/><stop stop-opacity="1" stop-color="rgb(94.514465%, 57.919312%, 35.107422%)" offset="0.929688"/><stop stop-opacity="1" stop-color="rgb(94.819641%, 57.861328%, 34.83429%)" offset="0.933594"/><stop stop-opacity="1" stop-color="rgb(95.124817%, 57.804871%, 34.561157%)" offset="0.9375"/><stop stop-opacity="1" stop-color="rgb(95.428467%, 57.748413%, 34.288025%)" offset="0.941406"/><stop stop-opacity="1" stop-color="rgb(95.733643%, 57.691956%, 34.016418%)" offset="0.945312"/><stop stop-opacity="1" stop-color="rgb(96.037292%, 57.635498%, 33.743286%)" offset="0.949219"/><stop stop-opacity="1" stop-color="rgb(96.342468%, 57.579041%, 33.47168%)" offset="0.953125"/><stop stop-opacity="1" stop-color="rgb(96.647644%, 57.522583%, 33.198547%)" offset="0.957031"/><stop stop-opacity="1" stop-color="rgb(96.95282%, 57.466125%, 32.925415%)" offset="0.960938"/><stop stop-opacity="1" stop-color="rgb(97.25647%, 57.408142%, 32.652283%)" offset="0.964844"/><stop stop-opacity="1" stop-color="rgb(97.561646%, 57.351685%, 32.380676%)" offset="0.96875"/><stop stop-opacity="1" stop-color="rgb(97.865295%, 57.295227%, 32.107544%)" offset="0.972656"/><stop stop-opacity="1" stop-color="rgb(98.170471%, 57.23877%, 31.834412%)" offset="0.976562"/><stop stop-opacity="1" stop-color="rgb(98.475647%, 57.182312%, 31.561279%)" offset="0.980469"/><stop stop-opacity="1" stop-color="rgb(98.780823%, 57.125854%, 31.289673%)" offset="0.984375"/><stop stop-opacity="1" stop-color="rgb(99.084473%, 57.069397%, 31.016541%)" offset="0.988281"/><stop stop-opacity="1" stop-color="rgb(99.389648%, 57.012939%, 30.744934%)" offset="0.992188"/><stop stop-opacity="1" stop-color="rgb(99.694824%, 56.954956%, 30.471802%)" offset="0.996094"/><stop stop-opacity="1" stop-color="rgb(100%, 56.898499%, 30.198669%)" offset="1"/></linearGradient><clipPath id="735682fa00"><path d="M 288 257.335938 L 521.980469 257.335938 L 521.980469 391 L 288 391 Z M 288 257.335938 " clip-rule="nonzero"/></clipPath><clipPath id="81638b18b2"><path d="M 332 339 L 521.980469 339 L 521.980469 447.835938 L 332 447.835938 Z M 332 339 " clip-rule="nonzero"/></clipPath><clipPath id="6dcaddb843"><path d="M 292 257.335938 L 521.980469 257.335938 L 521.980469 342 L 292 342 Z M 292 257.335938 " clip-rule="nonzero"/></clipPath><clipPath id="580513ea2b"><path d="M 289 462 L 391 462 L 391 492.550781 L 289 492.550781 Z M 289 462 " clip-rule="nonzero"/></clipPath><clipPath id="26449efc7a"><path d="M 394 463 L 521 463 L 521 492.550781 L 394 492.550781 Z M 394 463 " clip-rule="nonzero"/></clipPath></defs><rect x="-81" width="972" fill="#ffffff" y="-80.999999" height="971.999992" fill-opacity="1"/><rect x="-81" width="972" fill="#ffffff" y="-80.999999" height="971.999992" fill-opacity="1"/><rect x="-81" width="972" fill="#ffffff" y="-80.999999" height="971.999992" fill-opacity="1"/><rect x="-81" fill="url(#3796ffb239)" width="972" y="-80.999999" height="971.999992"/><path fill="#1a237e" d="M 358.015625 270.320312 L 476.246094 338.632812 L 451.933594 380.773438 L 333.707031 312.460938 Z M 358.015625 270.320312 " fill-opacity="1" fill-rule="nonzero"/><g clip-path="url(#735682fa00)"><path fill="#3949ab" d="M 288.191406 337.851562 C 288.191406 337.851562 288.199219 337.945312 288.207031 337.984375 C 288.21875 338.039062 288.238281 338.085938 288.246094 338.140625 C 288.253906 338.1875 288.273438 338.226562 288.285156 338.269531 C 288.300781 338.328125 288.328125 338.375 288.347656 338.429688 C 288.367188 338.476562 288.386719 338.511719 288.414062 338.558594 C 288.441406 338.613281 288.476562 338.660156 288.507812 338.71875 C 288.535156 338.753906 288.550781 338.800781 288.582031 338.839844 C 288.617188 338.894531 288.664062 338.941406 288.703125 338.988281 C 288.730469 339.023438 288.765625 339.0625 288.792969 339.097656 C 288.839844 339.15625 288.898438 339.199219 288.953125 339.246094 C 288.988281 339.285156 289.015625 339.3125 289.054688 339.351562 C 289.121094 339.40625 289.183594 339.453125 289.257812 339.507812 C 289.296875 339.535156 289.324219 339.5625 289.359375 339.582031 C 289.472656 339.65625 289.585938 339.730469 289.703125 339.796875 C 289.898438 339.90625 290.121094 340.011719 290.355469 340.113281 C 290.402344 340.128906 290.449219 340.148438 290.503906 340.167969 C 290.699219 340.242188 290.914062 340.308594 291.136719 340.363281 C 291.199219 340.382812 291.257812 340.402344 291.320312 340.417969 C 291.589844 340.484375 291.878906 340.53125 292.167969 340.566406 C 292.230469 340.566406 292.296875 340.585938 292.371094 340.585938 C 292.457031 340.585938 292.539062 340.585938 292.621094 340.605469 C 292.84375 340.625 293.070312 340.640625 293.308594 340.640625 L 306.875 340.640625 C 306.875 340.640625 332.828125 340.640625 332.828125 340.640625 L 407.660156 383.878906 C 408.152344 384.167969 408.652344 384.4375 409.164062 384.699219 C 409.332031 384.78125 409.5 384.867188 409.667969 384.949219 C 410.019531 385.125 410.375 385.292969 410.726562 385.460938 C 410.929688 385.554688 411.136719 385.648438 411.332031 385.730469 C 411.664062 385.878906 412.007812 386.027344 412.351562 386.167969 C 412.566406 386.25 412.78125 386.34375 412.992188 386.429688 C 413.347656 386.566406 413.699219 386.699219 414.050781 386.828125 C 414.246094 386.902344 414.433594 386.96875 414.628906 387.042969 C 415.382812 387.300781 416.144531 387.554688 416.921875 387.785156 C 417.070312 387.832031 417.230469 387.871094 417.378906 387.917969 C 418.1875 388.148438 418.996094 388.363281 419.832031 388.558594 C 419.859375 388.558594 419.886719 388.566406 419.90625 388.578125 C 420.585938 388.734375 421.261719 388.875 421.949219 389.003906 C 422.144531 389.042969 422.351562 389.078125 422.542969 389.117188 C 423.140625 389.226562 423.734375 389.320312 424.339844 389.414062 C 424.476562 389.433594 424.609375 389.460938 424.746094 389.476562 C 425.433594 389.582031 426.132812 389.664062 426.828125 389.738281 C 426.996094 389.757812 427.171875 389.777344 427.339844 389.785156 C 427.886719 389.839844 428.425781 389.886719 428.972656 389.925781 C 428.992188 389.925781 429.011719 389.925781 429.019531 389.925781 C 429.214844 389.941406 429.410156 389.953125 429.617188 389.960938 C 430.230469 390 430.851562 390.035156 431.472656 390.054688 C 431.492188 390.054688 431.511719 390.054688 431.53125 390.054688 C 431.613281 390.054688 431.695312 390.054688 431.78125 390.0625 C 432.496094 390.082031 433.210938 390.09375 433.925781 390.09375 C 434.113281 390.09375 434.289062 390.09375 434.476562 390.09375 C 435.117188 390.09375 435.757812 390.0625 436.398438 390.035156 C 436.566406 390.035156 436.722656 390.027344 436.890625 390.019531 C 437.652344 389.980469 438.40625 389.925781 439.15625 389.859375 C 439.1875 389.859375 439.214844 389.859375 439.242188 389.859375 C 439.539062 389.832031 439.828125 389.804688 440.113281 389.777344 C 440.328125 389.757812 440.550781 389.730469 440.765625 389.710938 C 441.136719 389.664062 441.519531 389.617188 441.890625 389.570312 C 442.066406 389.542969 442.242188 389.523438 442.429688 389.496094 C 442.976562 389.421875 443.523438 389.328125 444.074219 389.238281 C 444.109375 389.238281 444.15625 389.21875 444.195312 389.21875 C 444.695312 389.132812 445.1875 389.042969 445.679688 388.9375 C 446.285156 388.816406 446.878906 388.6875 447.472656 388.546875 C 447.59375 388.519531 447.707031 388.492188 447.816406 388.464844 C 448.292969 388.351562 448.765625 388.230469 449.230469 388.101562 C 449.433594 388.046875 449.640625 387.980469 449.84375 387.925781 C 450.214844 387.824219 450.585938 387.710938 450.957031 387.601562 C 451.058594 387.5625 451.171875 387.535156 451.273438 387.496094 C 451.394531 387.460938 451.507812 387.421875 451.628906 387.386719 C 451.972656 387.273438 452.316406 387.164062 452.648438 387.042969 C 452.871094 386.957031 453.105469 386.882812 453.328125 386.800781 C 453.660156 386.679688 453.988281 386.550781 454.3125 386.417969 C 454.535156 386.335938 454.75 386.242188 454.972656 386.148438 C 455.296875 386.011719 455.621094 385.871094 455.949219 385.722656 C 456.03125 385.683594 456.113281 385.648438 456.207031 385.609375 C 456.328125 385.554688 456.441406 385.507812 456.5625 385.453125 C 456.90625 385.292969 457.25 385.117188 457.59375 384.949219 C 457.757812 384.867188 457.925781 384.78125 458.09375 384.699219 C 458.597656 384.4375 459.089844 384.167969 459.5625 383.890625 L 511.289062 353.808594 C 511.734375 353.546875 512.160156 353.289062 512.578125 353.019531 C 512.710938 352.933594 512.820312 352.851562 512.949219 352.769531 C 513.230469 352.582031 513.519531 352.394531 513.785156 352.199219 C 513.925781 352.109375 514.046875 352.003906 514.1875 351.902344 C 514.429688 351.71875 514.679688 351.539062 514.921875 351.355469 C 515.050781 351.253906 515.171875 351.140625 515.300781 351.039062 C 515.523438 350.851562 515.746094 350.675781 515.960938 350.488281 C 516.054688 350.40625 516.148438 350.320312 516.238281 350.238281 C 516.472656 350.023438 516.703125 349.820312 516.925781 349.597656 C 517.011719 349.511719 517.085938 349.429688 517.160156 349.355469 C 517.375 349.132812 517.597656 348.910156 517.800781 348.6875 C 517.867188 348.609375 517.921875 348.535156 517.988281 348.472656 C 518.191406 348.238281 518.394531 347.996094 518.589844 347.753906 C 518.636719 347.691406 518.683594 347.636719 518.730469 347.570312 C 518.925781 347.320312 519.121094 347.058594 519.296875 346.808594 C 519.316406 346.789062 519.324219 346.761719 519.34375 346.742188 C 519.546875 346.445312 519.742188 346.148438 519.917969 345.839844 C 519.957031 345.785156 519.984375 345.71875 520.023438 345.664062 C 520.179688 345.402344 520.328125 345.132812 520.457031 344.863281 C 520.484375 344.816406 520.503906 344.769531 520.523438 344.722656 C 520.664062 344.445312 520.792969 344.15625 520.914062 343.878906 C 520.980469 343.71875 521.035156 343.570312 521.089844 343.414062 C 521.15625 343.238281 521.230469 343.058594 521.285156 342.882812 C 521.339844 342.726562 521.378906 342.558594 521.425781 342.398438 C 521.472656 342.222656 521.527344 342.054688 521.574219 341.878906 C 521.574219 341.859375 521.574219 341.851562 521.582031 341.832031 C 521.621094 341.683594 521.636719 341.535156 521.675781 341.386719 C 521.710938 341.210938 521.75 341.03125 521.777344 340.867188 C 521.796875 340.773438 521.796875 340.6875 521.816406 340.597656 C 521.851562 340.34375 521.878906 340.09375 521.90625 339.84375 C 521.917969 339.675781 521.925781 339.515625 521.925781 339.351562 C 522.160156 333.714844 518.554688 328.035156 511.121094 323.726562 L 407 263.566406 C 392.625 255.261719 369.386719 255.261719 355.109375 263.566406 L 303.382812 293.648438 C 302.304688 294.269531 301.308594 294.929688 300.398438 295.609375 C 295.234375 299.457031 292.679688 304.109375 292.734375 308.757812 C 292.734375 309.019531 292.753906 309.277344 292.769531 309.539062 C 292.769531 309.660156 292.789062 309.78125 292.800781 309.902344 C 292.835938 310.28125 292.890625 310.65625 292.964844 311.035156 C 293.867188 315.667969 297.40625 320.175781 303.550781 323.726562 L 306.800781 325.605469 L 303.539062 327.503906 L 292.648438 333.835938 L 289.667969 335.574219 C 288.609375 336.1875 288.152344 336.949219 288.171875 337.695312 C 288.171875 337.75 288.171875 337.796875 288.179688 337.851562 Z M 465.324219 351.941406 C 465.324219 352.015625 465.3125 352.097656 465.304688 352.171875 C 465.304688 352.265625 465.304688 352.359375 465.277344 352.453125 C 465.257812 352.5625 465.230469 352.675781 465.191406 352.777344 C 465.175781 352.832031 465.164062 352.898438 465.144531 352.953125 C 465.117188 353.027344 465.089844 353.09375 465.0625 353.167969 C 465.042969 353.203125 465.035156 353.242188 465.015625 353.277344 C 464.996094 353.324219 464.980469 353.363281 464.960938 353.410156 C 464.960938 353.429688 464.949219 353.4375 464.941406 353.457031 C 464.875 353.59375 464.792969 353.726562 464.699219 353.855469 C 464.683594 353.882812 464.671875 353.910156 464.644531 353.9375 C 464.570312 354.050781 464.476562 354.164062 464.382812 354.265625 C 464.347656 354.3125 464.308594 354.359375 464.273438 354.402344 C 464.171875 354.515625 464.058594 354.617188 463.949219 354.730469 C 463.902344 354.777344 463.863281 354.8125 463.816406 354.859375 C 463.714844 354.953125 463.59375 355.035156 463.484375 355.128906 C 463.410156 355.183594 463.34375 355.242188 463.269531 355.296875 C 463.113281 355.410156 462.945312 355.511719 462.769531 355.621094 C 462.730469 355.640625 462.691406 355.667969 462.65625 355.695312 C 462.414062 355.835938 462.164062 355.964844 461.902344 356.085938 C 461.820312 356.125 461.734375 356.160156 461.652344 356.191406 C 461.46875 356.273438 461.289062 356.347656 461.09375 356.414062 C 461.019531 356.441406 460.945312 356.460938 460.882812 356.488281 C 460.855469 356.496094 460.816406 356.503906 460.789062 356.523438 C 460.613281 356.578125 460.433594 356.644531 460.25 356.691406 C 460.136719 356.730469 460.015625 356.757812 459.90625 356.785156 C 459.730469 356.832031 459.542969 356.878906 459.367188 356.914062 C 459.238281 356.941406 459.105469 356.96875 458.96875 357 C 458.847656 357.015625 458.726562 357.046875 458.605469 357.0625 C 458.519531 357.082031 458.429688 357.089844 458.335938 357.101562 C 458.269531 357.101562 458.207031 357.121094 458.140625 357.128906 C 458.019531 357.148438 457.898438 357.15625 457.777344 357.175781 C 457.667969 357.183594 457.554688 357.195312 457.433594 357.203125 C 457.109375 357.230469 456.773438 357.25 456.449219 357.25 C 456.382812 357.25 456.320312 357.25 456.253906 357.25 C 455.976562 357.25 455.695312 357.25 455.425781 357.230469 C 453.335938 357.128906 451.292969 356.617188 449.683594 355.695312 C 446.089844 353.625 446.070312 350.257812 449.640625 348.183594 C 451.421875 347.140625 453.773438 346.621094 456.113281 346.621094 C 456.144531 346.621094 456.171875 346.621094 456.207031 346.621094 C 456.515625 346.621094 456.8125 346.628906 457.117188 346.648438 C 457.144531 346.648438 457.175781 346.648438 457.203125 346.648438 C 457.265625 346.648438 457.332031 346.660156 457.386719 346.667969 C 457.425781 346.667969 457.472656 346.667969 457.507812 346.675781 C 457.742188 346.695312 457.964844 346.722656 458.195312 346.75 C 458.234375 346.75 458.28125 346.761719 458.316406 346.769531 C 458.578125 346.808594 458.828125 346.855469 459.078125 346.898438 C 459.960938 347.078125 460.808594 347.328125 461.578125 347.664062 C 461.660156 347.699219 461.753906 347.738281 461.847656 347.773438 C 462.117188 347.894531 462.367188 348.023438 462.617188 348.164062 C 462.84375 348.296875 463.054688 348.433594 463.25 348.574219 C 463.304688 348.609375 463.351562 348.65625 463.410156 348.703125 C 463.5 348.769531 463.585938 348.84375 463.667969 348.910156 C 463.707031 348.945312 463.753906 348.972656 463.789062 349.011719 C 463.855469 349.066406 463.910156 349.121094 463.964844 349.179688 C 464.070312 349.269531 464.171875 349.363281 464.253906 349.457031 C 464.320312 349.523438 464.367188 349.597656 464.421875 349.660156 C 464.421875 349.660156 464.421875 349.671875 464.429688 349.679688 C 464.496094 349.765625 464.570312 349.847656 464.636719 349.929688 C 464.683594 350.007812 464.726562 350.082031 464.765625 350.15625 C 464.792969 350.203125 464.832031 350.257812 464.859375 350.304688 C 464.875 350.339844 464.90625 350.386719 464.933594 350.425781 C 464.96875 350.5 464.996094 350.574219 465.027344 350.648438 C 465.054688 350.703125 465.082031 350.757812 465.101562 350.824219 C 465.109375 350.863281 465.128906 350.890625 465.144531 350.925781 C 465.175781 351 465.183594 351.074219 465.203125 351.160156 C 465.230469 351.25 465.257812 351.34375 465.265625 351.4375 C 465.277344 351.511719 465.277344 351.597656 465.285156 351.671875 C 465.285156 351.761719 465.304688 351.855469 465.304688 351.949219 Z M 449.554688 333.121094 C 450.746094 332.421875 452.195312 331.964844 453.71875 331.742188 C 453.8125 331.726562 453.902344 331.714844 454.003906 331.707031 C 456.5625 331.371094 459.300781 331.679688 461.496094 332.617188 C 461.523438 332.625 461.550781 332.644531 461.578125 332.65625 C 461.902344 332.804688 462.230469 332.953125 462.527344 333.128906 C 462.75 333.257812 462.960938 333.398438 463.15625 333.539062 C 463.222656 333.585938 463.289062 333.640625 463.351562 333.6875 C 463.472656 333.78125 463.605469 333.871094 463.714844 333.964844 C 463.78125 334.03125 463.84375 334.085938 463.910156 334.152344 C 464.003906 334.246094 464.105469 334.328125 464.1875 334.421875 C 464.246094 334.488281 464.300781 334.550781 464.347656 334.625 C 464.421875 334.71875 464.503906 334.804688 464.570312 334.894531 C 464.617188 334.96875 464.652344 335.035156 464.699219 335.109375 C 464.757812 335.203125 464.820312 335.296875 464.867188 335.378906 C 464.90625 335.453125 464.933594 335.527344 464.960938 335.601562 C 464.996094 335.695312 465.042969 335.777344 465.070312 335.871094 C 465.101562 335.945312 465.109375 336.03125 465.128906 336.105469 C 465.15625 336.199219 465.183594 336.28125 465.191406 336.375 C 465.203125 336.457031 465.210938 336.53125 465.210938 336.617188 C 465.210938 336.707031 465.230469 336.800781 465.230469 336.886719 C 465.230469 336.96875 465.21875 337.042969 465.210938 337.128906 C 465.210938 337.21875 465.210938 337.304688 465.191406 337.398438 C 465.175781 337.507812 465.144531 337.621094 465.109375 337.730469 C 465.089844 337.789062 465.082031 337.84375 465.0625 337.910156 C 465.035156 337.984375 464.996094 338.066406 464.96875 338.140625 C 464.960938 338.167969 464.941406 338.207031 464.933594 338.234375 C 464.914062 338.28125 464.90625 338.316406 464.875 338.363281 C 464.875 338.375 464.867188 338.390625 464.859375 338.402344 C 464.792969 338.539062 464.710938 338.671875 464.617188 338.800781 C 464.597656 338.828125 464.589844 338.855469 464.570312 338.886719 C 464.496094 338.996094 464.402344 339.109375 464.308594 339.21875 C 464.273438 339.265625 464.234375 339.3125 464.199219 339.359375 C 464.097656 339.46875 463.984375 339.582031 463.863281 339.683594 C 463.816406 339.722656 463.78125 339.769531 463.734375 339.804688 C 463.621094 339.898438 463.5 339.992188 463.382812 340.085938 C 463.316406 340.132812 463.261719 340.1875 463.195312 340.234375 C 463.019531 340.355469 462.832031 340.476562 462.636719 340.597656 C 462.617188 340.605469 462.589844 340.625 462.574219 340.640625 C 462.332031 340.78125 462.078125 340.910156 461.820312 341.03125 C 461.734375 341.070312 461.652344 341.105469 461.570312 341.144531 C 461.390625 341.21875 461.207031 341.300781 461.019531 341.367188 C 460.945312 341.394531 460.871094 341.414062 460.796875 341.441406 C 460.769531 341.453125 460.734375 341.460938 460.703125 341.480469 C 460.527344 341.535156 460.351562 341.589844 460.175781 341.648438 C 460.0625 341.683594 459.941406 341.710938 459.820312 341.738281 C 459.644531 341.785156 459.46875 341.832031 459.285156 341.871094 C 459.152344 341.898438 459.015625 341.925781 458.882812 341.953125 C 458.761719 341.972656 458.640625 342 458.519531 342.019531 C 458.429688 342.035156 458.34375 342.046875 458.253906 342.054688 C 458.1875 342.054688 458.121094 342.074219 458.058594 342.082031 C 457.9375 342.101562 457.816406 342.113281 457.695312 342.128906 C 457.582031 342.140625 457.472656 342.148438 457.351562 342.15625 C 457.027344 342.1875 456.691406 342.203125 456.367188 342.203125 C 456.300781 342.203125 456.234375 342.203125 456.171875 342.203125 C 456.144531 342.203125 456.125 342.203125 456.097656 342.203125 C 453.746094 342.203125 451.394531 341.683594 449.601562 340.640625 C 446.683594 338.960938 446.117188 336.421875 447.929688 334.414062 C 448.347656 333.949219 448.886719 333.511719 449.5625 333.121094 Z M 439.371094 351.941406 C 439.371094 352.023438 439.363281 352.105469 439.351562 352.191406 C 439.351562 352.273438 439.351562 352.367188 439.335938 352.453125 C 439.316406 352.5625 439.289062 352.675781 439.25 352.785156 C 439.230469 352.84375 439.222656 352.898438 439.203125 352.960938 C 439.175781 353.046875 439.140625 353.121094 439.101562 353.195312 C 439.09375 353.222656 439.074219 353.25 439.066406 353.289062 C 439.046875 353.335938 439.027344 353.371094 439.007812 353.417969 C 439.007812 353.429688 439 353.445312 438.992188 353.457031 C 438.925781 353.59375 438.84375 353.726562 438.75 353.863281 C 438.730469 353.894531 438.722656 353.921875 438.703125 353.949219 C 438.628906 354.058594 438.535156 354.171875 438.441406 354.285156 C 438.40625 354.328125 438.367188 354.375 438.332031 354.421875 C 438.230469 354.535156 438.117188 354.644531 437.996094 354.75 C 437.949219 354.785156 437.914062 354.832031 437.867188 354.867188 C 437.753906 354.960938 437.632812 355.054688 437.511719 355.148438 C 437.449219 355.195312 437.394531 355.25 437.316406 355.296875 C 437.140625 355.417969 436.957031 355.539062 436.761719 355.648438 C 436.734375 355.667969 436.714844 355.679688 436.695312 355.695312 C 436.453125 355.835938 436.203125 355.964844 435.941406 356.085938 C 435.859375 356.125 435.777344 356.160156 435.691406 356.199219 C 435.515625 356.273438 435.328125 356.355469 435.144531 356.421875 C 435.070312 356.449219 434.996094 356.46875 434.929688 356.496094 C 434.894531 356.503906 434.867188 356.523438 434.828125 356.535156 C 434.652344 356.589844 434.476562 356.65625 434.296875 356.699219 C 434.1875 356.738281 434.066406 356.765625 433.945312 356.792969 C 433.769531 356.839844 433.59375 356.886719 433.40625 356.925781 C 433.277344 356.953125 433.136719 356.980469 433.007812 357.007812 C 432.886719 357.027344 432.765625 357.054688 432.644531 357.074219 C 432.5625 357.089844 432.46875 357.101562 432.375 357.109375 C 432.308594 357.109375 432.246094 357.128906 432.179688 357.136719 C 432.058594 357.15625 431.9375 357.164062 431.816406 357.183594 C 431.707031 357.195312 431.59375 357.203125 431.472656 357.210938 C 431.140625 357.238281 430.8125 357.257812 430.480469 357.257812 C 430.414062 357.257812 430.351562 357.257812 430.292969 357.257812 C 430.265625 357.257812 430.246094 357.257812 430.21875 357.257812 C 427.867188 357.257812 425.519531 356.738281 423.726562 355.707031 C 420.128906 353.632812 420.109375 350.257812 423.679688 348.183594 C 425.460938 347.140625 427.8125 346.628906 430.15625 346.628906 C 430.183594 346.628906 430.210938 346.628906 430.238281 346.628906 C 430.542969 346.628906 430.84375 346.640625 431.148438 346.660156 C 431.175781 346.660156 431.203125 346.660156 431.230469 346.660156 C 431.289062 346.660156 431.34375 346.667969 431.398438 346.667969 C 431.445312 346.667969 431.492188 346.667969 431.539062 346.675781 C 431.769531 346.695312 432.003906 346.722656 432.226562 346.75 C 432.226562 346.75 432.246094 346.75 432.253906 346.75 C 432.542969 346.789062 432.832031 346.835938 433.109375 346.890625 C 433.695312 347.003906 434.269531 347.160156 434.808594 347.347656 C 434.828125 347.347656 434.855469 347.363281 434.875 347.363281 C 435.125 347.449219 435.375 347.550781 435.617188 347.652344 C 435.664062 347.671875 435.710938 347.691406 435.757812 347.710938 C 436.0625 347.847656 436.371094 347.996094 436.648438 348.15625 C 436.871094 348.285156 437.085938 348.425781 437.28125 348.566406 C 437.335938 348.609375 437.394531 348.648438 437.449219 348.695312 C 437.53125 348.761719 437.625 348.824219 437.707031 348.898438 C 437.746094 348.9375 437.792969 348.964844 437.839844 349 C 437.902344 349.058594 437.960938 349.121094 438.015625 349.179688 C 438.117188 349.269531 438.210938 349.363281 438.304688 349.457031 C 438.359375 349.523438 438.40625 349.585938 438.460938 349.652344 C 438.460938 349.652344 438.46875 349.660156 438.480469 349.671875 C 438.542969 349.753906 438.628906 349.839844 438.683594 349.929688 C 438.730469 350.007812 438.769531 350.070312 438.8125 350.144531 C 438.84375 350.203125 438.878906 350.246094 438.90625 350.304688 C 438.925781 350.339844 438.953125 350.386719 438.980469 350.425781 C 439.019531 350.5 439.046875 350.574219 439.074219 350.648438 C 439.101562 350.703125 439.128906 350.769531 439.148438 350.824219 C 439.15625 350.863281 439.175781 350.890625 439.195312 350.925781 C 439.222656 351 439.230469 351.085938 439.25 351.160156 C 439.277344 351.25 439.308594 351.34375 439.316406 351.4375 C 439.324219 351.523438 439.324219 351.597656 439.335938 351.679688 C 439.335938 351.773438 439.351562 351.867188 439.351562 351.949219 Z M 423.605469 333.128906 C 425.386719 332.085938 427.738281 331.566406 430.082031 331.566406 C 430.414062 331.566406 430.738281 331.574219 431.074219 331.605469 C 431.101562 331.605469 431.128906 331.605469 431.15625 331.605469 C 431.222656 331.605469 431.289062 331.613281 431.34375 331.621094 C 431.613281 331.640625 431.882812 331.667969 432.144531 331.707031 C 432.1875 331.707031 432.234375 331.714844 432.28125 331.726562 C 433.851562 331.949219 435.339844 332.414062 436.566406 333.121094 C 436.789062 333.25 437.003906 333.390625 437.199219 333.527344 C 437.261719 333.574219 437.316406 333.621094 437.375 333.667969 C 437.503906 333.761719 437.632812 333.863281 437.746094 333.957031 C 437.8125 334.011719 437.867188 334.078125 437.921875 334.132812 C 438.015625 334.226562 438.117188 334.320312 438.210938 334.414062 C 438.265625 334.476562 438.3125 334.542969 438.367188 334.597656 C 438.441406 334.691406 438.527344 334.785156 438.589844 334.878906 C 438.636719 334.941406 438.675781 335.015625 438.722656 335.089844 C 438.777344 335.183594 438.84375 335.277344 438.886719 335.371094 C 438.925781 335.445312 438.953125 335.519531 438.980469 335.59375 C 439.019531 335.6875 439.066406 335.777344 439.09375 335.863281 C 439.121094 335.9375 439.128906 336.019531 439.148438 336.09375 C 439.175781 336.1875 439.203125 336.28125 439.214844 336.363281 C 439.222656 336.449219 439.222656 336.523438 439.230469 336.605469 C 439.230469 336.699219 439.25 336.792969 439.25 336.875 C 439.25 336.960938 439.242188 337.042969 439.230469 337.128906 C 439.230469 337.210938 439.230469 337.292969 439.214844 337.386719 C 439.195312 337.5 439.167969 337.609375 439.128906 337.722656 C 439.113281 337.777344 439.101562 337.835938 439.082031 337.898438 C 439.054688 337.984375 439.019531 338.066406 438.980469 338.148438 C 438.972656 338.167969 438.964844 338.195312 438.953125 338.214844 C 438.933594 338.261719 438.917969 338.308594 438.898438 338.355469 C 438.898438 338.363281 438.886719 338.382812 438.878906 338.390625 C 438.804688 338.53125 438.722656 338.660156 438.636719 338.800781 C 438.617188 338.828125 438.609375 338.855469 438.589844 338.875 C 438.507812 338.988281 438.414062 339.097656 438.320312 339.210938 C 438.285156 339.257812 438.257812 339.304688 438.210938 339.339844 C 438.109375 339.453125 437.988281 339.5625 437.867188 339.675781 C 437.828125 339.710938 437.792969 339.75 437.746094 339.785156 C 437.632812 339.890625 437.503906 339.980469 437.375 340.085938 C 437.316406 340.128906 437.261719 340.175781 437.207031 340.214844 C 437.011719 340.355469 436.808594 340.484375 436.585938 340.613281 C 436.359375 340.746094 436.128906 340.867188 435.886719 340.976562 C 432.292969 342.679688 426.984375 342.558594 423.613281 340.613281 C 420.019531 338.53125 420 335.175781 423.566406 333.09375 Z M 371.496094 295.527344 L 378.195312 291.628906 C 381.644531 289.628906 387.226562 289.628906 390.695312 291.628906 L 391.175781 291.910156 C 394.644531 293.90625 394.660156 297.152344 391.214844 299.152344 L 384.515625 303.046875 L 391.261719 306.945312 C 391.472656 307.074219 391.679688 307.203125 391.875 307.335938 C 391.9375 307.382812 391.984375 307.425781 392.050781 307.472656 C 392.125 307.53125 392.207031 307.59375 392.28125 307.652344 C 392.320312 307.6875 392.367188 307.714844 392.402344 307.753906 C 392.46875 307.808594 392.523438 307.875 392.589844 307.929688 C 392.683594 308.011719 392.773438 308.097656 392.847656 308.191406 C 392.90625 308.253906 392.960938 308.320312 393.007812 308.394531 C 393.074219 308.476562 393.148438 308.5625 393.210938 308.644531 C 393.257812 308.71875 393.296875 308.785156 393.34375 308.859375 C 393.371094 308.90625 393.398438 308.953125 393.425781 309 C 393.445312 309.035156 393.472656 309.082031 393.5 309.121094 C 393.535156 309.195312 393.566406 309.269531 393.59375 309.34375 C 393.609375 309.398438 393.640625 309.445312 393.65625 309.5 C 393.667969 309.539062 393.6875 309.574219 393.703125 309.605469 C 393.730469 309.679688 393.742188 309.753906 393.761719 309.828125 C 393.777344 309.910156 393.804688 310.003906 393.824219 310.085938 C 393.835938 310.160156 393.835938 310.246094 393.84375 310.320312 C 393.84375 310.402344 393.863281 310.496094 393.863281 310.578125 C 393.863281 310.65625 393.851562 310.738281 393.84375 310.8125 C 393.84375 310.894531 393.84375 310.980469 393.824219 311.074219 C 393.804688 311.175781 393.777344 311.285156 393.75 311.390625 C 393.730469 311.445312 393.722656 311.5 393.703125 311.554688 C 393.675781 311.628906 393.640625 311.707031 393.609375 311.78125 C 393.601562 311.808594 393.59375 311.835938 393.574219 311.863281 C 393.554688 311.910156 393.535156 311.945312 393.519531 311.992188 C 393.519531 312.003906 393.507812 312.019531 393.5 312.03125 C 393.433594 312.160156 393.351562 312.289062 393.265625 312.421875 C 393.25 312.449219 393.238281 312.476562 393.222656 312.496094 C 393.148438 312.605469 393.054688 312.710938 392.96875 312.8125 C 392.933594 312.859375 392.90625 312.90625 392.867188 312.941406 C 392.765625 313.054688 392.652344 313.15625 392.542969 313.257812 C 392.503906 313.296875 392.46875 313.332031 392.421875 313.371094 C 392.320312 313.460938 392.199219 313.554688 392.078125 313.640625 C 392.011719 313.6875 391.964844 313.730469 391.902344 313.777344 C 391.734375 313.898438 391.546875 314.019531 391.351562 314.132812 C 391.335938 314.140625 391.316406 314.160156 391.296875 314.167969 C 391.296875 314.167969 390.824219 314.4375 390.824219 314.4375 C 390.589844 314.570312 390.351562 314.699219 390.097656 314.8125 C 390.015625 314.847656 389.933594 314.886719 389.847656 314.914062 C 389.671875 314.988281 389.503906 315.0625 389.320312 315.128906 C 389.214844 315.164062 389.113281 315.203125 389.011719 315.230469 C 388.902344 315.265625 388.796875 315.304688 388.6875 315.339844 C 388.660156 315.339844 388.632812 315.359375 388.59375 315.367188 C 388.566406 315.367188 388.527344 315.386719 388.5 315.398438 C 388.390625 315.425781 388.277344 315.460938 388.15625 315.488281 C 387.988281 315.535156 387.8125 315.574219 387.636719 315.609375 C 387.542969 315.628906 387.441406 315.648438 387.339844 315.667969 C 387.257812 315.683594 387.164062 315.703125 387.078125 315.722656 C 387.042969 315.722656 386.996094 315.730469 386.957031 315.742188 C 386.652344 315.789062 386.34375 315.832031 386.03125 315.863281 C 385.945312 315.863281 385.863281 315.878906 385.777344 315.878906 C 385.613281 315.890625 385.445312 315.90625 385.285156 315.917969 C 382.796875 316.027344 380.230469 315.546875 378.316406 314.4375 L 371.570312 310.542969 L 364.863281 314.4375 C 361.425781 316.4375 355.824219 316.4375 352.367188 314.4375 L 351.882812 314.160156 C 348.417969 312.160156 348.410156 308.914062 351.847656 306.917969 L 358.554688 303.019531 L 351.808594 299.125 C 348.34375 297.125 348.324219 293.878906 351.773438 291.878906 L 352.246094 291.609375 C 354.402344 290.355469 357.394531 289.890625 360.179688 290.207031 C 361.851562 290.394531 363.441406 290.867188 364.742188 291.609375 L 371.488281 295.507812 Z M 371.496094 295.527344 " fill-opacity="1" fill-rule="nonzero"/></g><path fill="#1a237e" d="M 306.808594 325.652344 L 303.550781 327.550781 L 292.660156 333.882812 L 292.734375 308.617188 C 292.734375 308.683594 292.742188 308.738281 292.742188 308.804688 C 292.742188 309.0625 292.761719 309.324219 292.78125 309.585938 C 292.789062 309.667969 292.78125 309.761719 292.800781 309.84375 C 292.800781 309.882812 292.808594 309.910156 292.816406 309.9375 C 292.855469 310.320312 292.910156 310.691406 292.984375 311.074219 C 293.886719 315.703125 297.425781 320.214844 303.566406 323.757812 L 306.820312 325.632812 Z M 306.808594 325.652344 " fill-opacity="1" fill-rule="nonzero"/><path fill="#1a237e" d="M 332.835938 340.6875 L 332.679688 398.367188 L 293.160156 398.367188 L 293.328125 340.6875 Z M 332.835938 340.6875 " fill-opacity="1" fill-rule="nonzero"/><path fill="#1a237e" d="M 293.328125 340.6875 L 293.160156 398.367188 C 292.9375 398.367188 292.722656 398.347656 292.519531 398.332031 C 292.425781 398.320312 292.316406 398.320312 292.222656 398.3125 C 292.148438 398.3125 292.082031 398.304688 292.019531 398.292969 C 291.960938 398.285156 291.917969 398.273438 291.859375 398.265625 C 291.636719 398.226562 291.414062 398.199219 291.199219 398.152344 C 291.191406 398.152344 291.171875 398.152344 291.164062 398.144531 C 291.097656 398.125 291.042969 398.109375 290.96875 398.089844 C 290.792969 398.042969 290.632812 397.988281 290.464844 397.929688 C 290.429688 397.914062 290.382812 397.902344 290.347656 397.894531 C 290.289062 397.875 290.242188 397.855469 290.199219 397.835938 C 289.964844 397.746094 289.742188 397.632812 289.546875 397.523438 C 288.5625 396.953125 288.003906 396.164062 288.003906 395.363281 L 288.171875 337.683594 C 288.171875 337.683594 288.171875 337.722656 288.171875 337.742188 C 288.171875 337.789062 288.171875 337.84375 288.191406 337.898438 C 288.191406 337.945312 288.199219 337.992188 288.207031 338.03125 C 288.21875 338.085938 288.238281 338.132812 288.246094 338.1875 C 288.265625 338.234375 288.273438 338.269531 288.292969 338.316406 C 288.3125 338.375 288.339844 338.417969 288.359375 338.476562 C 288.375 338.503906 288.386719 338.539062 288.402344 338.570312 C 288.402344 338.578125 288.414062 338.585938 288.421875 338.605469 C 288.449219 338.660156 288.488281 338.707031 288.515625 338.765625 C 288.542969 338.800781 288.5625 338.839844 288.589844 338.886719 C 288.628906 338.929688 288.671875 338.988281 288.710938 339.035156 C 288.738281 339.070312 288.765625 339.109375 288.804688 339.144531 C 288.851562 339.199219 288.90625 339.246094 288.960938 339.304688 C 289 339.332031 289.027344 339.367188 289.0625 339.394531 C 289.128906 339.453125 289.195312 339.5 289.257812 339.554688 C 289.296875 339.582031 289.324219 339.609375 289.359375 339.628906 C 289.472656 339.703125 289.585938 339.777344 289.703125 339.84375 C 289.898438 339.953125 290.132812 340.066406 290.355469 340.160156 C 290.402344 340.175781 290.449219 340.207031 290.503906 340.222656 C 290.550781 340.242188 290.585938 340.261719 290.625 340.269531 C 290.78125 340.324219 290.960938 340.371094 291.125 340.417969 C 291.191406 340.4375 291.246094 340.457031 291.320312 340.476562 C 291.332031 340.476562 291.347656 340.484375 291.359375 340.484375 C 291.574219 340.539062 291.796875 340.578125 292.019531 340.605469 C 292.074219 340.613281 292.121094 340.613281 292.175781 340.625 C 292.242188 340.625 292.304688 340.640625 292.378906 340.640625 C 292.464844 340.652344 292.546875 340.660156 292.632812 340.671875 C 292.648438 340.671875 292.667969 340.671875 292.679688 340.671875 C 292.890625 340.6875 293.105469 340.6875 293.320312 340.6875 Z M 293.328125 340.6875 " fill-opacity="1" fill-rule="nonzero"/><g clip-path="url(#81638b18b2)"><path fill="#1a237e" d="M 521.953125 339.097656 L 521.785156 396.621094 C 521.785156 396.742188 521.769531 396.863281 521.769531 396.980469 C 521.757812 397.308594 521.730469 397.632812 521.695312 397.957031 C 521.675781 398.078125 521.667969 398.199219 521.648438 398.320312 C 521.59375 398.675781 521.535156 399.027344 521.453125 399.382812 C 521.441406 399.429688 521.433594 399.464844 521.425781 399.511719 C 521.425781 399.53125 521.425781 399.546875 521.414062 399.558594 C 521.3125 399.96875 521.191406 400.375 521.042969 400.777344 C 521.007812 400.886719 520.960938 400.988281 520.921875 401.101562 C 520.800781 401.417969 520.671875 401.726562 520.53125 402.023438 C 520.503906 402.085938 520.476562 402.152344 520.449219 402.21875 C 520.410156 402.300781 520.375 402.375 520.335938 402.460938 C 520.292969 402.542969 520.253906 402.636719 520.207031 402.71875 C 520.085938 402.953125 519.957031 403.195312 519.816406 403.425781 C 519.78125 403.480469 519.753906 403.546875 519.714844 403.601562 C 519.539062 403.890625 519.351562 404.179688 519.15625 404.457031 C 519.109375 404.523438 519.066406 404.589844 519.007812 404.664062 C 518.914062 404.792969 518.8125 404.914062 518.710938 405.042969 C 518.65625 405.117188 518.601562 405.203125 518.535156 405.277344 C 518.441406 405.398438 518.339844 405.519531 518.238281 405.648438 C 518.089844 405.824219 517.941406 406.003906 517.792969 406.167969 C 517.679688 406.289062 517.578125 406.410156 517.464844 406.53125 C 517.300781 406.707031 517.132812 406.875 516.964844 407.054688 C 516.851562 407.164062 516.742188 407.285156 516.621094 407.398438 C 516.433594 407.582031 516.238281 407.757812 516.042969 407.9375 C 515.933594 408.039062 515.820312 408.140625 515.699219 408.242188 C 515.671875 408.269531 515.644531 408.289062 515.625 408.308594 C 515.460938 408.449219 515.292969 408.585938 515.117188 408.734375 C 514.96875 408.855469 514.828125 408.976562 514.679688 409.097656 C 514.464844 409.265625 514.234375 409.433594 514.011719 409.601562 C 513.863281 409.703125 513.722656 409.8125 513.574219 409.925781 C 513.324219 410.101562 513.054688 410.28125 512.785156 410.457031 C 512.652344 410.539062 512.523438 410.632812 512.394531 410.714844 C 511.984375 410.976562 511.566406 411.238281 511.128906 411.488281 L 459.414062 441.570312 C 458.929688 441.847656 458.4375 442.117188 457.945312 442.378906 C 457.777344 442.460938 457.609375 442.546875 457.445312 442.621094 C 457.109375 442.796875 456.765625 442.964844 456.414062 443.121094 C 456.21875 443.214844 456.011719 443.308594 455.808594 443.390625 C 455.484375 443.539062 455.15625 443.679688 454.832031 443.820312 C 454.617188 443.914062 454.394531 443.996094 454.171875 444.078125 C 453.847656 444.210938 453.523438 444.332031 453.1875 444.460938 C 452.964844 444.542969 452.742188 444.628906 452.511719 444.703125 C 452.175781 444.8125 451.832031 444.933594 451.488281 445.046875 C 451.265625 445.121094 451.042969 445.195312 450.820312 445.261719 C 450.457031 445.371094 450.074219 445.484375 449.703125 445.585938 C 449.5 445.640625 449.296875 445.707031 449.089844 445.761719 C 448.625 445.882812 448.152344 446.003906 447.679688 446.125 C 447.566406 446.152344 447.457031 446.179688 447.335938 446.210938 C 446.738281 446.347656 446.144531 446.480469 445.550781 446.597656 C 445.523438 446.597656 445.503906 446.609375 445.484375 446.617188 C 445.011719 446.710938 444.539062 446.804688 444.0625 446.878906 C 444.015625 446.886719 443.980469 446.898438 443.941406 446.90625 C 443.402344 447 442.855469 447.082031 442.308594 447.167969 C 442.132812 447.195312 441.953125 447.214844 441.777344 447.230469 C 441.40625 447.277344 441.027344 447.335938 440.652344 447.378906 C 440.441406 447.410156 440.21875 447.425781 440.003906 447.445312 C 439.742188 447.472656 439.472656 447.5 439.214844 447.519531 C 439.15625 447.519531 439.113281 447.53125 439.046875 447.539062 C 438.292969 447.605469 437.542969 447.660156 436.78125 447.695312 C 436.613281 447.707031 436.453125 447.714844 436.285156 447.714844 C 435.644531 447.742188 435.003906 447.761719 434.363281 447.769531 C 434.253906 447.769531 434.132812 447.769531 434.019531 447.769531 L 433.816406 447.769531 C 433.101562 447.769531 432.382812 447.769531 431.667969 447.742188 C 431.566406 447.742188 431.464844 447.734375 431.363281 447.734375 C 430.738281 447.707031 430.125 447.679688 429.503906 447.640625 C 429.402344 447.632812 429.308594 447.621094 429.207031 447.613281 C 429.09375 447.613281 428.972656 447.59375 428.863281 447.585938 C 428.324219 447.546875 427.777344 447.5 427.226562 447.445312 C 427.050781 447.425781 426.882812 447.410156 426.714844 447.390625 C 426.011719 447.316406 425.324219 447.222656 424.625 447.128906 C 424.589844 447.128906 424.550781 447.109375 424.523438 447.109375 C 424.421875 447.09375 424.320312 447.082031 424.21875 447.066406 C 423.621094 446.972656 423.019531 446.871094 422.433594 446.757812 C 422.238281 446.71875 422.035156 446.683594 421.839844 446.644531 C 421.160156 446.515625 420.472656 446.375 419.792969 446.21875 C 419.777344 446.21875 419.75 446.210938 419.730469 446.199219 C 419.730469 446.199219 419.730469 446.199219 419.71875 446.199219 C 418.894531 446.003906 418.085938 445.789062 417.277344 445.558594 C 417.117188 445.511719 416.96875 445.472656 416.820312 445.429688 C 416.039062 445.195312 415.277344 444.953125 414.527344 444.683594 C 414.46875 444.664062 414.414062 444.636719 414.351562 444.617188 C 414.21875 444.574219 414.082031 444.527344 413.949219 444.46875 C 413.597656 444.339844 413.234375 444.210938 412.890625 444.070312 C 412.675781 443.988281 412.464844 443.894531 412.25 443.808594 C 411.90625 443.671875 411.570312 443.523438 411.226562 443.371094 C 411.023438 443.28125 410.820312 443.195312 410.613281 443.101562 C 410.253906 442.9375 409.898438 442.769531 409.554688 442.59375 C 409.386719 442.507812 409.222656 442.425781 409.054688 442.339844 C 408.542969 442.082031 408.039062 441.800781 407.546875 441.523438 L 332.714844 398.285156 L 332.882812 340.605469 L 407.714844 383.84375 C 408.207031 384.132812 408.710938 384.390625 409.222656 384.660156 C 409.386719 384.746094 409.554688 384.828125 409.722656 384.914062 C 410.074219 385.089844 410.429688 385.265625 410.78125 385.425781 C 410.984375 385.515625 411.179688 385.609375 411.394531 385.695312 C 411.730469 385.84375 412.074219 385.992188 412.417969 386.132812 C 412.632812 386.214844 412.84375 386.308594 413.058594 386.390625 C 413.410156 386.53125 413.765625 386.660156 414.117188 386.792969 C 414.246094 386.847656 414.386719 386.894531 414.515625 386.949219 C 414.574219 386.96875 414.636719 386.988281 414.695312 387.003906 C 415.445312 387.265625 416.21875 387.515625 416.988281 387.738281 C 417.148438 387.785156 417.296875 387.824219 417.445312 387.871094 C 418.253906 388.101562 419.0625 388.324219 419.886719 388.511719 C 419.886719 388.511719 419.898438 388.511719 419.898438 388.511719 C 419.925781 388.511719 419.941406 388.511719 419.960938 388.519531 C 420.640625 388.679688 421.320312 388.828125 422.007812 388.957031 C 422.199219 388.996094 422.394531 389.03125 422.601562 389.070312 C 423.195312 389.179688 423.789062 389.28125 424.394531 389.367188 C 424.488281 389.386719 424.589844 389.402344 424.691406 389.421875 C 424.726562 389.421875 424.765625 389.433594 424.792969 389.441406 C 425.492188 389.535156 426.179688 389.628906 426.882812 389.703125 C 427.050781 389.71875 427.226562 389.738281 427.394531 389.757812 C 427.933594 389.8125 428.480469 389.859375 429.03125 389.898438 C 429.050781 389.898438 429.066406 389.898438 429.085938 389.898438 C 429.179688 389.90625 429.28125 389.914062 429.382812 389.925781 C 429.484375 389.933594 429.578125 389.933594 429.679688 389.941406 C 430.292969 389.988281 430.917969 390.019531 431.539062 390.035156 C 431.558594 390.035156 431.578125 390.035156 431.59375 390.035156 C 431.679688 390.035156 431.761719 390.046875 431.84375 390.046875 C 432.5625 390.0625 433.277344 390.074219 433.992188 390.074219 C 434.058594 390.074219 434.121094 390.074219 434.195312 390.074219 C 434.308594 390.074219 434.417969 390.074219 434.539062 390.0625 C 435.179688 390.0625 435.824219 390.035156 436.464844 390.007812 C 436.628906 390.007812 436.789062 390 436.957031 389.988281 C 437.71875 389.953125 438.480469 389.898438 439.222656 389.832031 C 439.25 389.832031 439.277344 389.832031 439.308594 389.832031 C 439.335938 389.832031 439.363281 389.832031 439.390625 389.832031 C 439.652344 389.804688 439.921875 389.777344 440.179688 389.75 C 440.394531 389.730469 440.617188 389.710938 440.832031 389.683594 C 441.203125 389.636719 441.582031 389.589844 441.953125 389.542969 C 442.132812 389.515625 442.308594 389.496094 442.484375 389.46875 C 443.03125 389.394531 443.582031 389.300781 444.121094 389.21875 C 444.167969 389.207031 444.203125 389.199219 444.242188 389.191406 C 444.714844 389.105469 445.1875 389.023438 445.660156 388.929688 C 445.691406 388.929688 445.707031 388.921875 445.726562 388.910156 C 446.332031 388.789062 446.925781 388.660156 447.511719 388.519531 C 447.632812 388.492188 447.742188 388.464844 447.855469 388.4375 C 448.328125 388.324219 448.800781 388.203125 449.265625 388.074219 C 449.472656 388.019531 449.675781 387.953125 449.878906 387.898438 C 450.253906 387.796875 450.632812 387.683594 450.996094 387.570312 C 451.097656 387.535156 451.210938 387.507812 451.3125 387.46875 C 451.433594 387.433594 451.542969 387.394531 451.664062 387.347656 C 452.007812 387.238281 452.34375 387.125 452.6875 387.003906 C 452.917969 386.929688 453.140625 386.847656 453.363281 386.761719 C 453.699219 386.640625 454.023438 386.519531 454.347656 386.390625 C 454.574219 386.308594 454.796875 386.214844 455.007812 386.132812 C 455.34375 385.992188 455.660156 385.84375 455.984375 385.703125 C 456.070312 385.664062 456.160156 385.628906 456.234375 385.589844 C 456.355469 385.535156 456.46875 385.488281 456.589844 385.433594 C 456.941406 385.265625 457.285156 385.097656 457.621094 384.929688 C 457.789062 384.847656 457.953125 384.765625 458.121094 384.679688 C 458.625 384.421875 459.117188 384.160156 459.589844 383.878906 L 511.304688 353.800781 C 511.742188 353.546875 512.160156 353.289062 512.570312 353.027344 C 512.578125 353.027344 512.589844 353.007812 512.597656 353.007812 C 512.726562 352.925781 512.839844 352.84375 512.96875 352.757812 C 513.238281 352.582031 513.5 352.40625 513.757812 352.226562 C 513.777344 352.21875 513.796875 352.199219 513.816406 352.191406 C 513.945312 352.097656 514.074219 351.996094 514.207031 351.894531 C 514.429688 351.726562 514.652344 351.566406 514.863281 351.402344 C 514.894531 351.382812 514.910156 351.363281 514.9375 351.34375 C 515.070312 351.242188 515.191406 351.132812 515.320312 351.027344 C 515.488281 350.898438 515.65625 350.757812 515.8125 350.628906 C 515.839844 350.601562 515.867188 350.582031 515.886719 350.554688 C 515.914062 350.527344 515.953125 350.507812 515.96875 350.480469 C 516.0625 350.398438 516.15625 350.3125 516.25 350.230469 C 516.433594 350.0625 516.621094 349.886719 516.808594 349.71875 C 516.851562 349.679688 516.890625 349.632812 516.9375 349.597656 C 517.019531 349.511719 517.09375 349.429688 517.167969 349.355469 C 517.335938 349.1875 517.496094 349.019531 517.652344 348.851562 C 517.699219 348.796875 517.753906 348.742188 517.808594 348.6875 C 517.875 348.609375 517.929688 348.535156 517.996094 348.472656 C 518.144531 348.304688 518.285156 348.136719 518.421875 347.96875 C 518.480469 347.894531 518.542969 347.820312 518.601562 347.753906 C 518.648438 347.699219 518.691406 347.636719 518.738281 347.570312 C 518.796875 347.503906 518.839844 347.449219 518.898438 347.375 C 519 347.246094 519.09375 347.105469 519.195312 346.976562 C 519.230469 346.917969 519.277344 346.863281 519.316406 346.796875 C 519.335938 346.78125 519.34375 346.75 519.363281 346.734375 C 519.546875 346.464844 519.722656 346.183594 519.890625 345.90625 C 519.910156 345.878906 519.917969 345.859375 519.9375 345.832031 C 519.976562 345.765625 520.003906 345.710938 520.039062 345.652344 C 520.160156 345.441406 520.273438 345.226562 520.394531 345.023438 C 520.421875 344.964844 520.449219 344.910156 520.476562 344.855469 C 520.503906 344.808594 520.523438 344.761719 520.542969 344.714844 C 520.570312 344.648438 520.605469 344.59375 520.636719 344.539062 C 520.671875 344.472656 520.691406 344.398438 520.71875 344.324219 C 520.792969 344.167969 520.867188 344.019531 520.933594 343.859375 C 520.996094 343.703125 521.054688 343.550781 521.109375 343.394531 C 521.144531 343.28125 521.191406 343.171875 521.230469 343.070312 C 521.257812 342.996094 521.285156 342.929688 521.304688 342.863281 C 521.359375 342.695312 521.398438 342.539062 521.441406 342.382812 C 521.5 342.203125 521.546875 342.035156 521.59375 341.859375 C 521.59375 341.84375 521.601562 341.832031 521.609375 341.8125 C 521.648438 341.664062 521.667969 341.515625 521.703125 341.367188 C 521.742188 341.191406 521.777344 341.023438 521.804688 340.847656 C 521.824219 340.753906 521.832031 340.671875 521.84375 340.578125 C 521.863281 340.464844 521.871094 340.355469 521.878906 340.234375 C 521.898438 340.101562 521.917969 339.964844 521.925781 339.832031 C 521.945312 339.664062 521.945312 339.5 521.953125 339.339844 L 521.953125 339.265625 C 521.953125 339.191406 521.972656 339.125 521.972656 339.050781 Z M 521.953125 339.097656 " fill-opacity="1" fill-rule="nonzero"/></g><g clip-path="url(#6dcaddb843)"><path fill="#ffffff" d="M 292.808594 309.902344 C 292.84375 310.28125 292.902344 310.65625 292.976562 311.035156 C 292.984375 311.101562 293.023438 311.15625 293.039062 311.210938 C 293.710938 307.34375 296.089844 303.550781 300.410156 300.332031 C 301.320312 299.652344 302.3125 298.992188 303.390625 298.371094 L 355.117188 268.289062 C 369.398438 259.988281 392.636719 259.988281 407.007812 268.289062 L 511.128906 328.453125 C 517.347656 332.042969 520.847656 336.605469 521.703125 341.292969 C 521.730469 341.144531 521.769531 340.996094 521.796875 340.847656 C 521.816406 340.753906 521.816406 340.671875 521.832031 340.578125 C 521.871094 340.324219 521.898438 340.074219 521.917969 339.824219 C 521.925781 339.65625 521.9375 339.5 521.9375 339.332031 C 522.167969 333.695312 518.5625 328.015625 511.128906 323.710938 L 407.007812 263.566406 C 392.636719 255.261719 369.398438 255.261719 355.117188 263.566406 L 303.390625 293.648438 C 302.3125 294.269531 301.320312 294.929688 300.410156 295.609375 C 295.242188 299.457031 292.6875 304.109375 292.742188 308.757812 C 292.742188 309.019531 292.761719 309.277344 292.78125 309.539062 C 292.78125 309.660156 292.789062 309.78125 292.808594 309.902344 Z M 292.808594 309.902344 " fill-opacity="0.098" fill-rule="nonzero"/></g><g clip-path="url(#580513ea2b)"><path fill="#2d2d2d" d="M 297.347656 473.953125 C 297.734375 473.222656 298.207031 472.578125 298.808594 471.976562 C 300.226562 470.515625 302.15625 469.742188 304.21875 469.742188 C 306.234375 469.742188 308.167969 470.515625 309.628906 471.976562 C 310.355469 472.707031 310.914062 473.523438 311.300781 474.46875 L 311.429688 474.8125 L 319.15625 474.8125 L 319.03125 474.125 C 318.300781 470.773438 316.410156 467.765625 313.75 465.621094 C 311.085938 463.429688 307.695312 462.226562 304.21875 462.226562 C 299.238281 462.226562 294.558594 464.675781 291.722656 468.753906 L 291.46875 469.140625 L 297.003906 474.683594 Z M 311.300781 480.351562 C 310.914062 481.253906 310.355469 482.113281 309.628906 482.800781 C 309.027344 483.402344 308.382812 483.875 307.652344 484.261719 C 307.394531 484.390625 307.179688 484.476562 306.921875 484.5625 C 306.191406 484.863281 305.460938 484.992188 304.648438 485.035156 C 304.304688 485.078125 303.917969 485.078125 303.574219 485.035156 C 301.769531 484.90625 300.097656 484.089844 298.808594 482.800781 C 297.519531 481.511719 296.703125 479.835938 296.574219 478.035156 L 296.53125 477.820312 L 290.222656 471.460938 L 289.921875 472.363281 C 289.320312 473.953125 289.0625 475.671875 289.0625 477.390625 C 289.0625 481.46875 290.609375 485.25 293.484375 488.128906 C 296.359375 491.007812 300.140625 492.550781 304.21875 492.550781 C 306.277344 492.550781 308.253906 492.164062 310.097656 491.390625 C 310.484375 491.222656 310.828125 491.050781 311.171875 490.878906 C 313.105469 489.890625 314.863281 488.429688 316.195312 486.710938 C 317.570312 484.949219 318.558594 482.84375 319.03125 480.695312 L 319.15625 479.964844 L 311.429688 479.964844 Z M 339.078125 474.8125 C 337.101562 472.835938 334.484375 471.761719 331.734375 471.761719 C 329.375 471.761719 327.183594 472.535156 325.339844 473.953125 L 324.996094 474.253906 L 328.644531 477.90625 L 328.945312 477.734375 C 329.761719 477.21875 330.703125 476.917969 331.734375 476.917969 C 333.109375 476.917969 334.441406 477.476562 335.425781 478.464844 C 336.414062 479.449219 336.972656 480.78125 336.972656 482.15625 C 336.972656 483.1875 336.671875 484.132812 336.15625 484.949219 L 335.984375 485.25 L 339.632812 488.902344 L 339.933594 488.558594 C 341.351562 486.710938 342.125 484.519531 342.125 482.15625 C 342.125 479.410156 341.050781 476.789062 339.078125 474.8125 Z M 334.527344 486.625 C 333.667969 487.140625 332.722656 487.398438 331.734375 487.398438 C 330.320312 487.398438 328.988281 486.882812 328 485.894531 C 327.011719 484.90625 326.496094 483.574219 326.496094 482.15625 C 326.496094 481.167969 326.753906 480.222656 327.269531 479.367188 L 327.484375 479.109375 L 323.792969 475.414062 L 323.492188 475.800781 C 322.074219 477.648438 321.34375 479.835938 321.34375 482.15625 C 321.34375 484.949219 322.417969 487.570312 324.351562 489.546875 C 326.324219 491.476562 328.945312 492.550781 331.734375 492.550781 C 334.054688 492.550781 336.242188 491.820312 338.089844 490.40625 L 338.476562 490.105469 L 334.785156 486.410156 Z M 346.417969 492.550781 L 351.527344 492.550781 L 351.527344 485.765625 L 346.417969 480.609375 Z M 360.542969 476.230469 L 360.414062 476.316406 L 360.414062 484.992188 L 347.320312 471.890625 L 347.191406 471.761719 L 346.417969 471.761719 L 346.417969 478.25 L 351.527344 483.402344 L 354.832031 486.710938 L 360.5 492.378906 L 360.714844 492.550781 L 365.566406 492.550781 L 365.566406 471.160156 Z M 377.367188 471.761719 L 382.519531 476.917969 L 390.632812 476.917969 L 390.632812 471.761719 Z M 390.375 484.21875 L 390.289062 484.003906 C 390.289062 483.960938 390.289062 483.960938 390.246094 483.917969 C 390.246094 483.917969 390.246094 483.917969 390.246094 483.875 L 390.160156 483.617188 C 390.160156 483.617188 390.160156 483.617188 390.117188 483.617188 L 390.117188 483.53125 C 390.074219 483.402344 389.988281 483.316406 389.945312 483.1875 L 389.902344 483.144531 C 389.816406 482.972656 389.730469 482.800781 389.644531 482.628906 L 389.601562 482.585938 C 389.558594 482.542969 389.558594 482.5 389.515625 482.457031 C 389.515625 482.414062 389.472656 482.414062 389.429688 482.371094 L 389.429688 482.328125 C 389.386719 482.285156 389.386719 482.242188 389.34375 482.199219 L 389.300781 482.15625 C 389.257812 482.113281 389.257812 482.113281 389.257812 482.070312 L 389.214844 482.070312 C 389.214844 482.027344 389.214844 482.027344 389.171875 481.984375 L 389.128906 481.941406 C 389.128906 481.898438 389.085938 481.898438 389.085938 481.855469 C 389 481.769531 388.914062 481.683594 388.785156 481.554688 L 388.699219 481.46875 C 388.699219 481.46875 388.699219 481.46875 388.660156 481.425781 L 388.617188 481.382812 C 388.617188 481.382812 388.617188 481.382812 388.574219 481.382812 L 388.574219 481.339844 C 388.53125 481.339844 388.53125 481.296875 388.488281 481.253906 C 388.445312 481.210938 388.402344 481.167969 388.359375 481.125 C 388.230469 481.039062 388.101562 480.953125 387.972656 480.867188 L 387.929688 480.824219 C 387.886719 480.78125 387.84375 480.738281 387.757812 480.695312 C 387.671875 480.652344 387.628906 480.609375 387.542969 480.566406 L 387.414062 480.480469 C 387.328125 480.4375 387.242188 480.394531 387.15625 480.308594 C 387.070312 480.308594 387.027344 480.265625 386.984375 480.265625 C 386.984375 480.222656 386.941406 480.222656 386.898438 480.222656 C 386.8125 480.179688 386.769531 480.136719 386.683594 480.09375 L 386.640625 480.09375 C 386.597656 480.050781 386.511719 480.050781 386.425781 480.007812 C 386.296875 479.964844 386.210938 479.921875 386.082031 479.878906 C 385.996094 479.878906 385.953125 479.835938 385.910156 479.835938 L 385.867188 479.835938 C 385.867188 479.835938 385.867188 479.835938 385.824219 479.835938 L 385.78125 479.792969 L 385.738281 479.792969 C 385.695312 479.792969 385.609375 479.75 385.566406 479.75 L 385.523438 479.75 C 385.480469 479.75 385.4375 479.707031 385.351562 479.707031 L 385.308594 479.707031 C 385.222656 479.664062 385.179688 479.664062 385.09375 479.664062 C 385.050781 479.664062 385.007812 479.664062 384.964844 479.664062 L 384.964844 479.621094 C 384.878906 479.621094 384.792969 479.621094 384.75 479.621094 L 384.707031 479.621094 C 384.664062 479.621094 384.664062 479.621094 384.621094 479.621094 C 384.578125 479.621094 384.578125 479.621094 384.535156 479.621094 C 384.492188 479.621094 384.449219 479.578125 384.363281 479.578125 L 384.320312 479.578125 C 384.277344 479.578125 384.277344 479.578125 384.234375 479.578125 C 384.191406 479.578125 384.191406 479.578125 384.148438 479.578125 L 376.335938 479.578125 C 375.5625 479.578125 374.960938 478.980469 374.960938 478.25 C 374.960938 477.519531 375.5625 476.917969 376.335938 476.917969 L 380.15625 476.917969 L 375.132812 471.890625 L 374.878906 471.933594 C 374.75 471.976562 374.621094 471.976562 374.449219 472.0625 C 373.417969 472.363281 372.472656 472.921875 371.742188 473.652344 C 370.96875 474.425781 370.410156 475.371094 370.113281 476.402344 C 369.941406 477.003906 369.855469 477.605469 369.855469 478.25 C 369.855469 478.894531 369.941406 479.535156 370.113281 480.136719 C 370.410156 481.167969 370.96875 482.070312 371.742188 482.84375 C 372.472656 483.617188 373.417969 484.175781 374.449219 484.476562 C 375.046875 484.648438 375.691406 484.734375 376.335938 484.734375 L 384.148438 484.734375 C 384.878906 484.734375 385.480469 485.335938 385.480469 486.066406 C 385.480469 486.839844 384.878906 487.441406 384.148438 487.441406 L 369.855469 487.441406 L 369.855469 492.550781 L 384.148438 492.550781 C 385.566406 492.550781 386.898438 492.121094 388.058594 491.261719 C 389.128906 490.449219 389.945312 489.246094 390.332031 487.957031 C 390.546875 487.355469 390.632812 486.710938 390.632812 486.066406 C 390.632812 485.464844 390.546875 484.820312 390.375 484.21875 Z M 390.375 484.21875 " fill-opacity="1" fill-rule="nonzero"/></g><g clip-path="url(#26449efc7a)"><path fill="#f48b0e" d="M 406.003906 492.550781 L 413.300781 492.550781 L 413.300781 484.5625 L 406.003906 477.261719 Z M 394.925781 463.042969 L 394.925781 470.34375 L 406.003906 470.34375 L 406.003906 473.910156 L 413.300781 481.210938 L 413.300781 470.34375 L 424.421875 470.34375 L 424.421875 463.042969 Z M 438.085938 484.734375 C 438.214844 484.734375 438.300781 484.734375 438.386719 484.734375 L 438.472656 484.734375 C 440.144531 484.691406 441.691406 484.046875 442.851562 482.886719 C 444.007812 481.683594 444.695312 480.136719 444.78125 478.464844 C 444.78125 478.25 444.78125 478.035156 444.78125 477.820312 C 444.78125 477.347656 444.738281 476.875 444.652344 476.402344 C 444.394531 475.328125 443.835938 474.339844 443.023438 473.566406 C 442.164062 472.707031 441.089844 472.105469 439.929688 471.890625 C 439.542969 471.804688 439.15625 471.761719 438.726562 471.761719 L 424.859375 471.761719 L 424.859375 479.367188 L 429.96875 484.519531 L 429.96875 484.476562 L 437.957031 492.464844 L 438.085938 492.550781 L 446.070312 492.550781 Z M 437.742188 479.621094 L 432.804688 479.621094 L 430.355469 477.132812 L 439.371094 477.132812 C 439.414062 477.21875 439.414062 477.347656 439.457031 477.433594 C 439.457031 477.476562 439.5 477.5625 439.5 477.648438 C 439.5 477.648438 439.5 477.691406 439.5 477.734375 C 439.5 477.777344 439.5 477.820312 439.5 477.820312 C 439.5 478.078125 439.457031 478.335938 439.328125 478.59375 C 439.328125 478.636719 439.285156 478.722656 439.242188 478.765625 C 439.199219 478.808594 439.199219 478.851562 439.199219 478.851562 C 439.15625 478.894531 439.15625 478.894531 439.113281 478.9375 C 439.113281 478.9375 439.113281 478.980469 439.070312 478.980469 L 439.070312 479.023438 C 439.027344 479.023438 439.027344 479.066406 438.984375 479.109375 C 438.8125 479.28125 438.597656 479.410156 438.34375 479.492188 C 438.257812 479.535156 438.171875 479.535156 438.085938 479.578125 C 437.957031 479.578125 437.871094 479.621094 437.742188 479.621094 Z M 424.859375 492.550781 L 429.96875 492.550781 L 429.96875 486.882812 L 424.859375 481.726562 Z M 448.632812 492.550781 L 454.644531 492.550781 L 460.480469 482.886719 L 457.476562 477.90625 Z M 461.46875 471.375 L 458.464844 476.316406 L 467.050781 490.535156 L 468.296875 492.550781 L 474.304688 492.550781 Z M 497.5 476.273438 C 497.457031 476.273438 497.457031 476.230469 497.457031 476.230469 C 495.523438 473.4375 492.347656 471.761719 488.953125 471.761719 L 478.652344 471.761719 L 478.652344 477.648438 L 483.804688 482.84375 L 483.804688 476.960938 L 488.953125 476.960938 C 490.671875 476.960938 492.261719 477.777344 493.203125 479.195312 C 493.203125 479.195312 493.203125 479.195312 493.246094 479.195312 C 493.804688 480.09375 494.148438 481.125 494.148438 482.15625 C 494.148438 483.230469 493.847656 484.261719 493.246094 485.121094 C 493.246094 485.121094 493.203125 485.121094 493.203125 485.164062 C 492.304688 486.453125 490.886719 487.269531 489.296875 487.355469 C 489.210938 487.398438 489.082031 487.398438 488.953125 487.398438 L 483.804688 487.398438 L 483.804688 485.164062 L 478.652344 480.007812 L 478.652344 492.550781 L 488.953125 492.550781 C 492.347656 492.550781 495.523438 490.921875 497.457031 488.128906 C 497.457031 488.085938 497.5 488.042969 497.5 488.042969 C 498.699219 486.28125 499.300781 484.261719 499.300781 482.15625 C 499.300781 480.050781 498.65625 477.992188 497.5 476.273438 Z M 508.746094 487.441406 L 508.746094 485.980469 L 503.640625 480.824219 L 503.640625 492.550781 L 520.984375 492.550781 L 520.984375 487.441406 Z M 520.984375 484.777344 L 520.984375 479.621094 L 512.011719 479.621094 L 509.347656 476.917969 L 520.984375 476.917969 L 520.984375 471.761719 L 503.640625 471.761719 L 503.640625 478.464844 L 509.90625 484.777344 Z M 520.984375 484.777344 " fill-opacity="1" fill-rule="nonzero"/></g></svg>