<svg xmlns="http://www.w3.org/2000/svg" xmlns:xlink="http://www.w3.org/1999/xlink" width="1040" zoomAndPan="magnify" viewBox="0 0 780 779.999994" height="1040" preserveAspectRatio="xMidYMid meet" version="1.0"><defs><linearGradient x1="1" gradientTransform="matrix(779.999994, 0, 0, 779.999994, 0.00000315, 0.00002)" y1="0.5" x2="0" gradientUnits="userSpaceOnUse" y2="0.5" id="9ca030c2f3"><stop stop-opacity="1" stop-color="rgb(22.698975%, 71.398926%, 99.198914%)" offset="0"/><stop stop-opacity="1" stop-color="rgb(22.984314%, 71.34552%, 98.944092%)" offset="0.00390625"/><stop stop-opacity="1" stop-color="rgb(23.269653%, 71.292114%, 98.690796%)" offset="0.0078125"/><stop stop-opacity="1" stop-color="rgb(23.554993%, 71.237183%, 98.435974%)" offset="0.0117187"/><stop stop-opacity="1" stop-color="rgb(23.840332%, 71.183777%, 98.182678%)" offset="0.015625"/><stop stop-opacity="1" stop-color="rgb(24.124146%, 71.128845%, 97.927856%)" offset="0.0195312"/><stop stop-opacity="1" stop-color="rgb(24.409485%, 71.075439%, 97.673035%)" offset="0.0234375"/><stop stop-opacity="1" stop-color="rgb(24.694824%, 71.022034%, 97.418213%)" offset="0.0273437"/><stop stop-opacity="1" stop-color="rgb(24.980164%, 70.968628%, 97.164917%)" offset="0.03125"/><stop stop-opacity="1" stop-color="rgb(25.265503%, 70.913696%, 96.910095%)" offset="0.0351562"/><stop stop-opacity="1" stop-color="rgb(25.550842%, 70.860291%, 96.656799%)" offset="0.0390625"/><stop stop-opacity="1" stop-color="rgb(25.836182%, 70.805359%, 96.401978%)" offset="0.0429687"/><stop stop-opacity="1" stop-color="rgb(26.121521%, 70.751953%, 96.147156%)" offset="0.046875"/><stop stop-opacity="1" stop-color="rgb(26.405334%, 70.698547%, 95.892334%)" offset="0.0507812"/><stop stop-opacity="1" stop-color="rgb(26.690674%, 70.645142%, 95.639038%)" offset="0.0546875"/><stop stop-opacity="1" stop-color="rgb(26.976013%, 70.59021%, 95.384216%)" offset="0.0585937"/><stop stop-opacity="1" stop-color="rgb(27.261353%, 70.536804%, 95.13092%)" offset="0.0625"/><stop stop-opacity="1" stop-color="rgb(27.546692%, 70.481873%, 94.876099%)" offset="0.0664062"/><stop stop-opacity="1" stop-color="rgb(27.832031%, 70.428467%, 94.621277%)" offset="0.0703125"/><stop stop-opacity="1" stop-color="rgb(28.117371%, 70.375061%, 94.366455%)" offset="0.0742187"/><stop stop-opacity="1" stop-color="rgb(28.40271%, 70.321655%, 94.113159%)" offset="0.078125"/><stop stop-opacity="1" stop-color="rgb(28.688049%, 70.266724%, 93.858337%)" offset="0.0820312"/><stop stop-opacity="1" stop-color="rgb(28.973389%, 70.213318%, 93.605042%)" offset="0.0859375"/><stop stop-opacity="1" stop-color="rgb(29.257202%, 70.158386%, 93.35022%)" offset="0.0898437"/><stop stop-opacity="1" stop-color="rgb(29.542542%, 70.10498%, 93.095398%)" offset="0.09375"/><stop stop-opacity="1" stop-color="rgb(29.827881%, 70.051575%, 92.840576%)" offset="0.0976562"/><stop stop-opacity="1" stop-color="rgb(30.11322%, 69.998169%, 92.58728%)" offset="0.101562"/><stop stop-opacity="1" stop-color="rgb(30.39856%, 69.943237%, 92.332458%)" offset="0.105469"/><stop stop-opacity="1" stop-color="rgb(30.683899%, 69.889832%, 92.079163%)" offset="0.109375"/><stop stop-opacity="1" stop-color="rgb(30.969238%, 69.8349%, 91.824341%)" offset="0.113281"/><stop stop-opacity="1" stop-color="rgb(31.254578%, 69.781494%, 91.571045%)" offset="0.117187"/><stop stop-opacity="1" stop-color="rgb(31.538391%, 69.728088%, 91.316223%)" offset="0.121094"/><stop stop-opacity="1" stop-color="rgb(31.82373%, 69.674683%, 91.061401%)" offset="0.125"/><stop stop-opacity="1" stop-color="rgb(32.10907%, 69.619751%, 90.80658%)" offset="0.128906"/><stop stop-opacity="1" stop-color="rgb(32.394409%, 69.566345%, 90.553284%)" offset="0.132812"/><stop stop-opacity="1" stop-color="rgb(32.679749%, 69.511414%, 90.298462%)" offset="0.136719"/><stop stop-opacity="1" stop-color="rgb(32.965088%, 69.458008%, 90.045166%)" offset="0.140625"/><stop stop-opacity="1" stop-color="rgb(33.250427%, 69.404602%, 89.790344%)" offset="0.144531"/><stop stop-opacity="1" stop-color="rgb(33.535767%, 69.351196%, 89.535522%)" offset="0.148437"/><stop stop-opacity="1" stop-color="rgb(33.81958%, 69.296265%, 89.280701%)" offset="0.152344"/><stop stop-opacity="1" stop-color="rgb(34.104919%, 69.242859%, 89.027405%)" offset="0.15625"/><stop stop-opacity="1" stop-color="rgb(34.390259%, 69.187927%, 88.772583%)" offset="0.160156"/><stop stop-opacity="1" stop-color="rgb(34.675598%, 69.134521%, 88.519287%)" offset="0.164062"/><stop stop-opacity="1" stop-color="rgb(34.960938%, 69.081116%, 88.264465%)" offset="0.167969"/><stop stop-opacity="1" stop-color="rgb(35.246277%, 69.02771%, 88.009644%)" offset="0.171875"/><stop stop-opacity="1" stop-color="rgb(35.531616%, 68.972778%, 87.754822%)" offset="0.175781"/><stop stop-opacity="1" stop-color="rgb(35.816956%, 68.919373%, 87.501526%)" offset="0.179687"/><stop stop-opacity="1" stop-color="rgb(36.100769%, 68.864441%, 87.246704%)" offset="0.183594"/><stop stop-opacity="1" stop-color="rgb(36.386108%, 68.811035%, 86.993408%)" offset="0.1875"/><stop stop-opacity="1" stop-color="rgb(36.671448%, 68.757629%, 86.738586%)" offset="0.191406"/><stop stop-opacity="1" stop-color="rgb(36.956787%, 68.704224%, 86.483765%)" offset="0.195312"/><stop stop-opacity="1" stop-color="rgb(37.242126%, 68.649292%, 86.228943%)" offset="0.199219"/><stop stop-opacity="1" stop-color="rgb(37.527466%, 68.595886%, 85.975647%)" offset="0.203125"/><stop stop-opacity="1" stop-color="rgb(37.812805%, 68.540955%, 85.720825%)" offset="0.207031"/><stop stop-opacity="1" stop-color="rgb(38.098145%, 68.487549%, 85.467529%)" offset="0.210937"/><stop stop-opacity="1" stop-color="rgb(38.381958%, 68.434143%, 85.212708%)" offset="0.214844"/><stop stop-opacity="1" stop-color="rgb(38.667297%, 68.380737%, 84.957886%)" offset="0.21875"/><stop stop-opacity="1" stop-color="rgb(38.952637%, 68.325806%, 84.703064%)" offset="0.222656"/><stop stop-opacity="1" stop-color="rgb(39.237976%, 68.2724%, 84.449768%)" offset="0.226562"/><stop stop-opacity="1" stop-color="rgb(39.523315%, 68.218994%, 84.194946%)" offset="0.230469"/><stop stop-opacity="1" stop-color="rgb(39.808655%, 68.165588%, 83.94165%)" offset="0.234375"/><stop stop-opacity="1" stop-color="rgb(40.093994%, 68.110657%, 83.686829%)" offset="0.238281"/><stop stop-opacity="1" stop-color="rgb(40.379333%, 68.057251%, 83.433533%)" offset="0.242187"/><stop stop-opacity="1" stop-color="rgb(40.663147%, 68.002319%, 83.178711%)" offset="0.246094"/><stop stop-opacity="1" stop-color="rgb(40.948486%, 67.948914%, 82.923889%)" offset="0.25"/><stop stop-opacity="1" stop-color="rgb(41.233826%, 67.895508%, 82.669067%)" offset="0.253906"/><stop stop-opacity="1" stop-color="rgb(41.519165%, 67.842102%, 82.415771%)" offset="0.257812"/><stop stop-opacity="1" stop-color="rgb(41.804504%, 67.78717%, 82.16095%)" offset="0.261719"/><stop stop-opacity="1" stop-color="rgb(42.089844%, 67.733765%, 81.907654%)" offset="0.265625"/><stop stop-opacity="1" stop-color="rgb(42.375183%, 67.678833%, 81.652832%)" offset="0.269531"/><stop stop-opacity="1" stop-color="rgb(42.660522%, 67.625427%, 81.39801%)" offset="0.273437"/><stop stop-opacity="1" stop-color="rgb(42.945862%, 67.572021%, 81.143188%)" offset="0.277344"/><stop stop-opacity="1" stop-color="rgb(43.231201%, 67.518616%, 80.889893%)" offset="0.28125"/><stop stop-opacity="1" stop-color="rgb(43.515015%, 67.463684%, 80.635071%)" offset="0.285156"/><stop stop-opacity="1" stop-color="rgb(43.800354%, 67.410278%, 80.381775%)" offset="0.289062"/><stop stop-opacity="1" stop-color="rgb(44.085693%, 67.355347%, 80.126953%)" offset="0.292969"/><stop stop-opacity="1" stop-color="rgb(44.371033%, 67.301941%, 79.872131%)" offset="0.296875"/><stop stop-opacity="1" stop-color="rgb(44.656372%, 67.248535%, 79.61731%)" offset="0.300781"/><stop stop-opacity="1" stop-color="rgb(44.941711%, 67.195129%, 79.364014%)" offset="0.304687"/><stop stop-opacity="1" stop-color="rgb(45.227051%, 67.140198%, 79.109192%)" offset="0.308594"/><stop stop-opacity="1" stop-color="rgb(45.51239%, 67.086792%, 78.855896%)" offset="0.3125"/><stop stop-opacity="1" stop-color="rgb(45.796204%, 67.03186%, 78.601074%)" offset="0.316406"/><stop stop-opacity="1" stop-color="rgb(46.081543%, 66.978455%, 78.346252%)" offset="0.320312"/><stop stop-opacity="1" stop-color="rgb(46.366882%, 66.925049%, 78.091431%)" offset="0.324219"/><stop stop-opacity="1" stop-color="rgb(46.652222%, 66.871643%, 77.838135%)" offset="0.328125"/><stop stop-opacity="1" stop-color="rgb(46.937561%, 66.816711%, 77.583313%)" offset="0.332031"/><stop stop-opacity="1" stop-color="rgb(47.2229%, 66.763306%, 77.330017%)" offset="0.335937"/><stop stop-opacity="1" stop-color="rgb(47.50824%, 66.708374%, 77.075195%)" offset="0.339844"/><stop stop-opacity="1" stop-color="rgb(47.793579%, 66.654968%, 76.820374%)" offset="0.34375"/><stop stop-opacity="1" stop-color="rgb(48.077393%, 66.601562%, 76.565552%)" offset="0.347656"/><stop stop-opacity="1" stop-color="rgb(48.362732%, 66.548157%, 76.312256%)" offset="0.351562"/><stop stop-opacity="1" stop-color="rgb(48.648071%, 66.493225%, 76.057434%)" offset="0.355469"/><stop stop-opacity="1" stop-color="rgb(48.933411%, 66.439819%, 75.804138%)" offset="0.359375"/><stop stop-opacity="1" stop-color="rgb(49.21875%, 66.384888%, 75.549316%)" offset="0.363281"/><stop stop-opacity="1" stop-color="rgb(49.504089%, 66.331482%, 75.296021%)" offset="0.367187"/><stop stop-opacity="1" stop-color="rgb(49.789429%, 66.278076%, 75.041199%)" offset="0.371094"/><stop stop-opacity="1" stop-color="rgb(50.074768%, 66.22467%, 74.786377%)" offset="0.375"/><stop stop-opacity="1" stop-color="rgb(50.358582%, 66.169739%, 74.531555%)" offset="0.378906"/><stop stop-opacity="1" stop-color="rgb(50.643921%, 66.116333%, 74.278259%)" offset="0.382812"/><stop stop-opacity="1" stop-color="rgb(50.92926%, 66.061401%, 74.023438%)" offset="0.386719"/><stop stop-opacity="1" stop-color="rgb(51.2146%, 66.007996%, 73.770142%)" offset="0.390625"/><stop stop-opacity="1" stop-color="rgb(51.499939%, 65.95459%, 73.51532%)" offset="0.394531"/><stop stop-opacity="1" stop-color="rgb(51.785278%, 65.901184%, 73.260498%)" offset="0.398437"/><stop stop-opacity="1" stop-color="rgb(52.070618%, 65.846252%, 73.005676%)" offset="0.402344"/><stop stop-opacity="1" stop-color="rgb(52.355957%, 65.792847%, 72.75238%)" offset="0.40625"/><stop stop-opacity="1" stop-color="rgb(52.639771%, 65.737915%, 72.497559%)" offset="0.410156"/><stop stop-opacity="1" stop-color="rgb(52.92511%, 65.684509%, 72.244263%)" offset="0.414062"/><stop stop-opacity="1" stop-color="rgb(53.210449%, 65.631104%, 71.989441%)" offset="0.417969"/><stop stop-opacity="1" stop-color="rgb(53.495789%, 65.577698%, 71.734619%)" offset="0.421875"/><stop stop-opacity="1" stop-color="rgb(53.781128%, 65.522766%, 71.479797%)" offset="0.425781"/><stop stop-opacity="1" stop-color="rgb(54.066467%, 65.46936%, 71.226501%)" offset="0.429687"/><stop stop-opacity="1" stop-color="rgb(54.351807%, 65.414429%, 70.97168%)" offset="0.433594"/><stop stop-opacity="1" stop-color="rgb(54.637146%, 65.361023%, 70.718384%)" offset="0.4375"/><stop stop-opacity="1" stop-color="rgb(54.920959%, 65.307617%, 70.463562%)" offset="0.441406"/><stop stop-opacity="1" stop-color="rgb(55.206299%, 65.254211%, 70.20874%)" offset="0.445312"/><stop stop-opacity="1" stop-color="rgb(55.491638%, 65.19928%, 69.953918%)" offset="0.449219"/><stop stop-opacity="1" stop-color="rgb(55.776978%, 65.145874%, 69.700623%)" offset="0.453125"/><stop stop-opacity="1" stop-color="rgb(56.062317%, 65.090942%, 69.445801%)" offset="0.457031"/><stop stop-opacity="1" stop-color="rgb(56.347656%, 65.037537%, 69.192505%)" offset="0.460937"/><stop stop-opacity="1" stop-color="rgb(56.632996%, 64.984131%, 68.937683%)" offset="0.464844"/><stop stop-opacity="1" stop-color="rgb(56.918335%, 64.930725%, 68.682861%)" offset="0.46875"/><stop stop-opacity="1" stop-color="rgb(57.203674%, 64.875793%, 68.42804%)" offset="0.472656"/><stop stop-opacity="1" stop-color="rgb(57.489014%, 64.822388%, 68.174744%)" offset="0.476562"/><stop stop-opacity="1" stop-color="rgb(57.772827%, 64.768982%, 67.919922%)" offset="0.480469"/><stop stop-opacity="1" stop-color="rgb(58.058167%, 64.715576%, 67.666626%)" offset="0.484375"/><stop stop-opacity="1" stop-color="rgb(58.343506%, 64.660645%, 67.411804%)" offset="0.488281"/><stop stop-opacity="1" stop-color="rgb(58.628845%, 64.607239%, 67.158508%)" offset="0.492187"/><stop stop-opacity="1" stop-color="rgb(58.914185%, 64.552307%, 66.903687%)" offset="0.496094"/><stop stop-opacity="1" stop-color="rgb(59.199524%, 64.498901%, 66.648865%)" offset="0.5"/><stop stop-opacity="1" stop-color="rgb(59.484863%, 64.445496%, 66.394043%)" offset="0.503906"/><stop stop-opacity="1" stop-color="rgb(59.770203%, 64.39209%, 66.140747%)" offset="0.507812"/><stop stop-opacity="1" stop-color="rgb(60.054016%, 64.337158%, 65.885925%)" offset="0.511719"/><stop stop-opacity="1" stop-color="rgb(60.339355%, 64.283752%, 65.632629%)" offset="0.515625"/><stop stop-opacity="1" stop-color="rgb(60.624695%, 64.228821%, 65.377808%)" offset="0.519531"/><stop stop-opacity="1" stop-color="rgb(60.910034%, 64.175415%, 65.122986%)" offset="0.523438"/><stop stop-opacity="1" stop-color="rgb(61.195374%, 64.122009%, 64.868164%)" offset="0.527344"/><stop stop-opacity="1" stop-color="rgb(61.480713%, 64.068604%, 64.614868%)" offset="0.53125"/><stop stop-opacity="1" stop-color="rgb(61.766052%, 64.013672%, 64.360046%)" offset="0.535156"/><stop stop-opacity="1" stop-color="rgb(62.051392%, 63.960266%, 64.10675%)" offset="0.539062"/><stop stop-opacity="1" stop-color="rgb(62.335205%, 63.905334%, 63.851929%)" offset="0.542969"/><stop stop-opacity="1" stop-color="rgb(62.620544%, 63.851929%, 63.597107%)" offset="0.546875"/><stop stop-opacity="1" stop-color="rgb(62.905884%, 63.798523%, 63.342285%)" offset="0.550781"/><stop stop-opacity="1" stop-color="rgb(63.191223%, 63.745117%, 63.088989%)" offset="0.554688"/><stop stop-opacity="1" stop-color="rgb(63.476562%, 63.690186%, 62.834167%)" offset="0.558594"/><stop stop-opacity="1" stop-color="rgb(63.761902%, 63.63678%, 62.580872%)" offset="0.5625"/><stop stop-opacity="1" stop-color="rgb(64.047241%, 63.581848%, 62.32605%)" offset="0.566406"/><stop stop-opacity="1" stop-color="rgb(64.332581%, 63.528442%, 62.071228%)" offset="0.570312"/><stop stop-opacity="1" stop-color="rgb(64.616394%, 63.475037%, 61.816406%)" offset="0.574219"/><stop stop-opacity="1" stop-color="rgb(64.901733%, 63.421631%, 61.56311%)" offset="0.578125"/><stop stop-opacity="1" stop-color="rgb(65.187073%, 63.366699%, 61.308289%)" offset="0.582031"/><stop stop-opacity="1" stop-color="rgb(65.472412%, 63.313293%, 61.054993%)" offset="0.585938"/><stop stop-opacity="1" stop-color="rgb(65.757751%, 63.258362%, 60.800171%)" offset="0.589844"/><stop stop-opacity="1" stop-color="rgb(66.043091%, 63.204956%, 60.545349%)" offset="0.59375"/><stop stop-opacity="1" stop-color="rgb(66.32843%, 63.15155%, 60.290527%)" offset="0.597656"/><stop stop-opacity="1" stop-color="rgb(66.61377%, 63.098145%, 60.037231%)" offset="0.601562"/><stop stop-opacity="1" stop-color="rgb(66.897583%, 63.043213%, 59.78241%)" offset="0.605469"/><stop stop-opacity="1" stop-color="rgb(67.182922%, 62.989807%, 59.529114%)" offset="0.609375"/><stop stop-opacity="1" stop-color="rgb(67.468262%, 62.934875%, 59.274292%)" offset="0.613281"/><stop stop-opacity="1" stop-color="rgb(67.753601%, 62.88147%, 59.020996%)" offset="0.617188"/><stop stop-opacity="1" stop-color="rgb(68.03894%, 62.828064%, 58.766174%)" offset="0.621094"/><stop stop-opacity="1" stop-color="rgb(68.32428%, 62.774658%, 58.511353%)" offset="0.625"/><stop stop-opacity="1" stop-color="rgb(68.609619%, 62.719727%, 58.256531%)" offset="0.628906"/><stop stop-opacity="1" stop-color="rgb(68.894958%, 62.666321%, 58.003235%)" offset="0.632812"/><stop stop-opacity="1" stop-color="rgb(69.178772%, 62.611389%, 57.748413%)" offset="0.636719"/><stop stop-opacity="1" stop-color="rgb(69.464111%, 62.557983%, 57.495117%)" offset="0.640625"/><stop stop-opacity="1" stop-color="rgb(69.749451%, 62.504578%, 57.240295%)" offset="0.644531"/><stop stop-opacity="1" stop-color="rgb(70.03479%, 62.451172%, 56.985474%)" offset="0.648438"/><stop stop-opacity="1" stop-color="rgb(70.320129%, 62.39624%, 56.730652%)" offset="0.652344"/><stop stop-opacity="1" stop-color="rgb(70.605469%, 62.342834%, 56.477356%)" offset="0.65625"/><stop stop-opacity="1" stop-color="rgb(70.890808%, 62.287903%, 56.222534%)" offset="0.660156"/><stop stop-opacity="1" stop-color="rgb(71.176147%, 62.234497%, 55.969238%)" offset="0.664062"/><stop stop-opacity="1" stop-color="rgb(71.461487%, 62.181091%, 55.714417%)" offset="0.667969"/><stop stop-opacity="1" stop-color="rgb(71.746826%, 62.127686%, 55.459595%)" offset="0.671875"/><stop stop-opacity="1" stop-color="rgb(72.03064%, 62.072754%, 55.204773%)" offset="0.675781"/><stop stop-opacity="1" stop-color="rgb(72.315979%, 62.019348%, 54.951477%)" offset="0.679688"/><stop stop-opacity="1" stop-color="rgb(72.601318%, 61.964417%, 54.696655%)" offset="0.683594"/><stop stop-opacity="1" stop-color="rgb(72.886658%, 61.911011%, 54.443359%)" offset="0.6875"/><stop stop-opacity="1" stop-color="rgb(73.171997%, 61.857605%, 54.188538%)" offset="0.691406"/><stop stop-opacity="1" stop-color="rgb(73.457336%, 61.804199%, 53.933716%)" offset="0.695312"/><stop stop-opacity="1" stop-color="rgb(73.742676%, 61.749268%, 53.678894%)" offset="0.699219"/><stop stop-opacity="1" stop-color="rgb(74.028015%, 61.695862%, 53.425598%)" offset="0.703125"/><stop stop-opacity="1" stop-color="rgb(74.311829%, 61.642456%, 53.170776%)" offset="0.707031"/><stop stop-opacity="1" stop-color="rgb(74.597168%, 61.58905%, 52.91748%)" offset="0.710938"/><stop stop-opacity="1" stop-color="rgb(74.882507%, 61.534119%, 52.662659%)" offset="0.714844"/><stop stop-opacity="1" stop-color="rgb(75.167847%, 61.480713%, 52.409363%)" offset="0.71875"/><stop stop-opacity="1" stop-color="rgb(75.453186%, 61.425781%, 52.154541%)" offset="0.722656"/><stop stop-opacity="1" stop-color="rgb(75.738525%, 61.372375%, 51.899719%)" offset="0.726562"/><stop stop-opacity="1" stop-color="rgb(76.023865%, 61.31897%, 51.644897%)" offset="0.730469"/><stop stop-opacity="1" stop-color="rgb(76.309204%, 61.265564%, 51.391602%)" offset="0.734375"/><stop stop-opacity="1" stop-color="rgb(76.593018%, 61.210632%, 51.13678%)" offset="0.738281"/><stop stop-opacity="1" stop-color="rgb(76.878357%, 61.157227%, 50.883484%)" offset="0.742188"/><stop stop-opacity="1" stop-color="rgb(77.163696%, 61.102295%, 50.628662%)" offset="0.746094"/><stop stop-opacity="1" stop-color="rgb(77.449036%, 61.048889%, 50.37384%)" offset="0.75"/><stop stop-opacity="1" stop-color="rgb(77.734375%, 60.995483%, 50.119019%)" offset="0.753906"/><stop stop-opacity="1" stop-color="rgb(78.019714%, 60.942078%, 49.865723%)" offset="0.757812"/><stop stop-opacity="1" stop-color="rgb(78.305054%, 60.887146%, 49.610901%)" offset="0.761719"/><stop stop-opacity="1" stop-color="rgb(78.590393%, 60.83374%, 49.357605%)" offset="0.765625"/><stop stop-opacity="1" stop-color="rgb(78.874207%, 60.778809%, 49.102783%)" offset="0.769531"/><stop stop-opacity="1" stop-color="rgb(79.159546%, 60.725403%, 48.847961%)" offset="0.773438"/><stop stop-opacity="1" stop-color="rgb(79.444885%, 60.671997%, 48.59314%)" offset="0.777344"/><stop stop-opacity="1" stop-color="rgb(79.730225%, 60.618591%, 48.339844%)" offset="0.78125"/><stop stop-opacity="1" stop-color="rgb(80.015564%, 60.56366%, 48.085022%)" offset="0.785156"/><stop stop-opacity="1" stop-color="rgb(80.300903%, 60.510254%, 47.831726%)" offset="0.789062"/><stop stop-opacity="1" stop-color="rgb(80.586243%, 60.455322%, 47.576904%)" offset="0.792969"/><stop stop-opacity="1" stop-color="rgb(80.871582%, 60.401917%, 47.322083%)" offset="0.796875"/><stop stop-opacity="1" stop-color="rgb(81.155396%, 60.348511%, 47.067261%)" offset="0.800781"/><stop stop-opacity="1" stop-color="rgb(81.440735%, 60.295105%, 46.813965%)" offset="0.804688"/><stop stop-opacity="1" stop-color="rgb(81.726074%, 60.240173%, 46.559143%)" offset="0.808594"/><stop stop-opacity="1" stop-color="rgb(82.011414%, 60.186768%, 46.305847%)" offset="0.8125"/><stop stop-opacity="1" stop-color="rgb(82.296753%, 60.131836%, 46.051025%)" offset="0.816406"/><stop stop-opacity="1" stop-color="rgb(82.582092%, 60.07843%, 45.796204%)" offset="0.820312"/><stop stop-opacity="1" stop-color="rgb(82.867432%, 60.025024%, 45.541382%)" offset="0.824219"/><stop stop-opacity="1" stop-color="rgb(83.152771%, 59.971619%, 45.288086%)" offset="0.828125"/><stop stop-opacity="1" stop-color="rgb(83.436584%, 59.916687%, 45.033264%)" offset="0.832031"/><stop stop-opacity="1" stop-color="rgb(83.721924%, 59.863281%, 44.779968%)" offset="0.835938"/><stop stop-opacity="1" stop-color="rgb(84.007263%, 59.80835%, 44.525146%)" offset="0.839844"/><stop stop-opacity="1" stop-color="rgb(84.292603%, 59.754944%, 44.271851%)" offset="0.84375"/><stop stop-opacity="1" stop-color="rgb(84.577942%, 59.701538%, 44.017029%)" offset="0.847656"/><stop stop-opacity="1" stop-color="rgb(84.863281%, 59.648132%, 43.762207%)" offset="0.851562"/><stop stop-opacity="1" stop-color="rgb(85.148621%, 59.593201%, 43.507385%)" offset="0.855469"/><stop stop-opacity="1" stop-color="rgb(85.43396%, 59.539795%, 43.254089%)" offset="0.859375"/><stop stop-opacity="1" stop-color="rgb(85.719299%, 59.484863%, 42.999268%)" offset="0.863281"/><stop stop-opacity="1" stop-color="rgb(86.004639%, 59.431458%, 42.745972%)" offset="0.867188"/><stop stop-opacity="1" stop-color="rgb(86.288452%, 59.378052%, 42.49115%)" offset="0.871094"/><stop stop-opacity="1" stop-color="rgb(86.573792%, 59.324646%, 42.236328%)" offset="0.875"/><stop stop-opacity="1" stop-color="rgb(86.859131%, 59.269714%, 41.981506%)" offset="0.878906"/><stop stop-opacity="1" stop-color="rgb(87.14447%, 59.216309%, 41.72821%)" offset="0.882812"/><stop stop-opacity="1" stop-color="rgb(87.42981%, 59.161377%, 41.473389%)" offset="0.886719"/><stop stop-opacity="1" stop-color="rgb(87.715149%, 59.107971%, 41.220093%)" offset="0.890625"/><stop stop-opacity="1" stop-color="rgb(88.000488%, 59.054565%, 40.965271%)" offset="0.894531"/><stop stop-opacity="1" stop-color="rgb(88.285828%, 59.00116%, 40.710449%)" offset="0.898438"/><stop stop-opacity="1" stop-color="rgb(88.569641%, 58.946228%, 40.455627%)" offset="0.902344"/><stop stop-opacity="1" stop-color="rgb(88.85498%, 58.892822%, 40.202332%)" offset="0.90625"/><stop stop-opacity="1" stop-color="rgb(89.14032%, 58.837891%, 39.94751%)" offset="0.910156"/><stop stop-opacity="1" stop-color="rgb(89.425659%, 58.784485%, 39.694214%)" offset="0.914062"/><stop stop-opacity="1" stop-color="rgb(89.710999%, 58.731079%, 39.439392%)" offset="0.917969"/><stop stop-opacity="1" stop-color="rgb(89.996338%, 58.677673%, 39.18457%)" offset="0.921875"/><stop stop-opacity="1" stop-color="rgb(90.281677%, 58.622742%, 38.929749%)" offset="0.925781"/><stop stop-opacity="1" stop-color="rgb(90.567017%, 58.569336%, 38.676453%)" offset="0.929688"/><stop stop-opacity="1" stop-color="rgb(90.85083%, 58.514404%, 38.421631%)" offset="0.933594"/><stop stop-opacity="1" stop-color="rgb(91.136169%, 58.460999%, 38.168335%)" offset="0.9375"/><stop stop-opacity="1" stop-color="rgb(91.421509%, 58.407593%, 37.913513%)" offset="0.941406"/><stop stop-opacity="1" stop-color="rgb(91.706848%, 58.354187%, 37.658691%)" offset="0.945312"/><stop stop-opacity="1" stop-color="rgb(91.992188%, 58.299255%, 37.40387%)" offset="0.949219"/><stop stop-opacity="1" stop-color="rgb(92.277527%, 58.24585%, 37.150574%)" offset="0.953125"/><stop stop-opacity="1" stop-color="rgb(92.562866%, 58.192444%, 36.895752%)" offset="0.957031"/><stop stop-opacity="1" stop-color="rgb(92.848206%, 58.139038%, 36.642456%)" offset="0.960938"/><stop stop-opacity="1" stop-color="rgb(93.132019%, 58.084106%, 36.387634%)" offset="0.964844"/><stop stop-opacity="1" stop-color="rgb(93.417358%, 58.030701%, 36.134338%)" offset="0.96875"/><stop stop-opacity="1" stop-color="rgb(93.702698%, 57.975769%, 35.879517%)" offset="0.972656"/><stop stop-opacity="1" stop-color="rgb(93.988037%, 57.922363%, 35.624695%)" offset="0.976562"/><stop stop-opacity="1" stop-color="rgb(94.273376%, 57.868958%, 35.369873%)" offset="0.980469"/><stop stop-opacity="1" stop-color="rgb(94.558716%, 57.815552%, 35.116577%)" offset="0.984375"/><stop stop-opacity="1" stop-color="rgb(94.844055%, 57.76062%, 34.861755%)" offset="0.988281"/><stop stop-opacity="1" stop-color="rgb(95.129395%, 57.707214%, 34.608459%)" offset="0.992188"/><stop stop-opacity="1" stop-color="rgb(95.413208%, 57.652283%, 34.353638%)" offset="0.996094"/><stop stop-opacity="1" stop-color="rgb(95.698547%, 57.598877%, 34.098816%)" offset="1"/></linearGradient><clipPath id="0c3923b3ae"><path d="M 266 420 L 375 420 L 375 453.324219 L 266 453.324219 Z M 266 420 " clip-rule="nonzero"/></clipPath><clipPath id="c9656f2981"><path d="M 379 421 L 514 421 L 514 453.324219 L 379 453.324219 Z M 379 421 " clip-rule="nonzero"/></clipPath></defs><rect x="-78" width="936" fill="#ffffff" y="-77.999999" height="935.999992" fill-opacity="1"/><rect x="-78" width="936" fill="#ffffff" y="-77.999999" height="935.999992" fill-opacity="1"/><rect x="-78" width="936" fill="#ffffff" y="-77.999999" height="935.999992" fill-opacity="1"/><rect x="-78" fill="url(#9ca030c2f3)" width="936" y="-77.999999" height="935.999992"/><g clip-path="url(#0c3923b3ae)"><path fill="#2d2d2d" d="M 275.5 433.394531 C 275.910156 432.613281 276.414062 431.921875 277.050781 431.277344 C 278.558594 429.714844 280.617188 428.886719 282.808594 428.886719 C 284.953125 428.886719 287.011719 429.714844 288.5625 431.277344 C 289.339844 432.0625 289.933594 432.933594 290.34375 433.949219 L 290.480469 434.316406 L 298.703125 434.316406 L 298.566406 433.578125 C 297.789062 429.988281 295.78125 426.769531 292.949219 424.46875 C 290.117188 422.121094 286.507812 420.832031 282.808594 420.832031 C 277.507812 420.832031 272.53125 423.453125 269.515625 427.828125 L 269.242188 428.242188 L 275.132812 434.179688 Z M 290.34375 440.253906 C 289.933594 441.21875 289.339844 442.140625 288.5625 442.875 C 287.921875 443.519531 287.238281 444.027344 286.460938 444.441406 C 286.1875 444.578125 285.960938 444.671875 285.683594 444.761719 C 284.910156 445.085938 284.132812 445.222656 283.265625 445.269531 C 282.898438 445.316406 282.488281 445.316406 282.121094 445.269531 C 280.203125 445.132812 278.421875 444.257812 277.050781 442.875 C 275.683594 441.496094 274.816406 439.699219 274.675781 437.769531 L 274.632812 437.539062 L 267.917969 430.726562 L 267.597656 431.691406 C 266.957031 433.394531 266.683594 435.238281 266.683594 437.078125 C 266.683594 441.449219 268.328125 445.5 271.390625 448.582031 C 274.449219 451.667969 278.46875 453.324219 282.808594 453.324219 C 285 453.324219 287.101562 452.910156 289.066406 452.082031 C 289.476562 451.898438 289.84375 451.710938 290.207031 451.527344 C 292.261719 450.46875 294.136719 448.90625 295.550781 447.0625 C 297.011719 445.175781 298.0625 442.921875 298.566406 440.621094 L 298.703125 439.839844 L 290.480469 439.839844 Z M 319.894531 434.316406 C 317.792969 432.199219 315.007812 431.046875 312.082031 431.046875 C 309.570312 431.046875 307.242188 431.875 305.277344 433.394531 L 304.914062 433.71875 L 308.796875 437.628906 L 309.113281 437.445312 C 309.984375 436.894531 310.988281 436.570312 312.082031 436.570312 C 313.546875 436.570312 314.960938 437.167969 316.011719 438.226562 C 317.0625 439.285156 317.65625 440.714844 317.65625 442.1875 C 317.65625 443.289062 317.335938 444.304688 316.789062 445.175781 L 316.605469 445.5 L 320.488281 449.410156 L 320.808594 449.042969 C 322.316406 447.0625 323.136719 444.71875 323.136719 442.1875 C 323.136719 439.242188 321.996094 436.433594 319.894531 434.316406 Z M 315.050781 446.972656 C 314.140625 447.523438 313.132812 447.800781 312.082031 447.800781 C 310.578125 447.800781 309.160156 447.25 308.109375 446.191406 C 307.058594 445.132812 306.511719 443.703125 306.511719 442.1875 C 306.511719 441.128906 306.785156 440.113281 307.332031 439.195312 L 307.5625 438.917969 L 303.632812 434.960938 L 303.3125 435.375 C 301.808594 437.351562 301.03125 439.699219 301.03125 442.1875 C 301.03125 445.175781 302.171875 447.984375 304.226562 450.101562 C 306.328125 452.171875 309.113281 453.324219 312.082031 453.324219 C 314.550781 453.324219 316.878906 452.539062 318.84375 451.023438 L 319.253906 450.699219 L 315.328125 446.742188 Z M 327.703125 453.324219 L 333.140625 453.324219 L 333.140625 446.050781 L 327.703125 440.527344 Z M 342.730469 435.835938 L 342.59375 435.925781 L 342.59375 445.222656 L 328.664062 431.1875 L 328.527344 431.046875 L 327.703125 431.046875 L 327.703125 437.996094 L 333.140625 443.519531 L 336.65625 447.0625 L 342.683594 453.140625 L 342.914062 453.324219 L 348.074219 453.324219 L 348.074219 430.402344 Z M 360.632812 431.046875 L 366.113281 436.570312 L 374.746094 436.570312 L 374.746094 431.046875 Z M 374.472656 444.394531 L 374.378906 444.164062 C 374.378906 444.117188 374.378906 444.117188 374.335938 444.074219 C 374.335938 444.074219 374.335938 444.074219 374.335938 444.027344 L 374.242188 443.75 C 374.242188 443.75 374.242188 443.75 374.195312 443.75 L 374.195312 443.660156 C 374.152344 443.519531 374.058594 443.429688 374.015625 443.289062 L 373.96875 443.246094 C 373.878906 443.058594 373.785156 442.875 373.695312 442.691406 L 373.648438 442.644531 C 373.601562 442.601562 373.601562 442.554688 373.558594 442.507812 C 373.558594 442.460938 373.511719 442.460938 373.464844 442.414062 L 373.464844 442.371094 C 373.421875 442.324219 373.421875 442.277344 373.375 442.230469 L 373.328125 442.1875 C 373.285156 442.140625 373.285156 442.140625 373.285156 442.09375 L 373.238281 442.09375 C 373.238281 442.046875 373.238281 442.046875 373.191406 442 L 373.144531 441.957031 C 373.144531 441.910156 373.101562 441.910156 373.101562 441.863281 C 373.007812 441.773438 372.917969 441.679688 372.78125 441.542969 L 372.734375 441.496094 L 372.691406 441.449219 C 372.691406 441.449219 372.691406 441.449219 372.644531 441.402344 L 372.597656 441.359375 C 372.597656 441.359375 372.597656 441.359375 372.550781 441.359375 L 372.550781 441.3125 C 372.507812 441.3125 372.507812 441.265625 372.460938 441.21875 C 372.414062 441.171875 372.371094 441.128906 372.324219 441.082031 C 372.1875 440.988281 372.050781 440.898438 371.914062 440.804688 L 371.867188 440.757812 C 371.820312 440.714844 371.777344 440.667969 371.683594 440.621094 C 371.59375 440.574219 371.546875 440.527344 371.457031 440.484375 L 371.320312 440.390625 C 371.226562 440.34375 371.136719 440.300781 371.046875 440.207031 C 370.953125 440.207031 370.910156 440.160156 370.863281 440.160156 C 370.863281 440.113281 370.816406 440.113281 370.769531 440.113281 C 370.679688 440.070312 370.632812 440.023438 370.542969 439.976562 L 370.496094 439.976562 C 370.453125 439.929688 370.359375 439.929688 370.269531 439.882812 C 370.132812 439.839844 370.039062 439.792969 369.902344 439.746094 C 369.8125 439.746094 369.765625 439.699219 369.722656 439.699219 L 369.675781 439.699219 C 369.675781 439.699219 369.675781 439.699219 369.628906 439.699219 L 369.582031 439.65625 L 369.539062 439.65625 C 369.492188 439.65625 369.402344 439.609375 369.355469 439.609375 L 369.308594 439.609375 C 369.265625 439.609375 369.21875 439.5625 369.128906 439.5625 L 369.082031 439.5625 C 368.988281 439.515625 368.945312 439.515625 368.851562 439.515625 C 368.808594 439.515625 368.761719 439.515625 368.714844 439.515625 L 368.714844 439.46875 C 368.625 439.46875 368.535156 439.46875 368.488281 439.46875 L 368.441406 439.46875 C 368.394531 439.46875 368.394531 439.46875 368.351562 439.46875 C 368.304688 439.46875 368.304688 439.46875 368.257812 439.46875 C 368.214844 439.46875 368.167969 439.425781 368.078125 439.425781 L 368.03125 439.425781 C 367.984375 439.425781 367.984375 439.425781 367.9375 439.425781 C 367.894531 439.425781 367.894531 439.425781 367.847656 439.425781 L 359.535156 439.425781 C 358.714844 439.425781 358.074219 438.78125 358.074219 437.996094 C 358.074219 437.214844 358.714844 436.570312 359.535156 436.570312 L 363.601562 436.570312 L 358.257812 431.1875 L 357.980469 431.234375 C 357.84375 431.277344 357.707031 431.277344 357.527344 431.371094 C 356.429688 431.691406 355.425781 432.289062 354.648438 433.074219 C 353.824219 433.902344 353.230469 434.914062 352.914062 436.019531 C 352.730469 436.664062 352.636719 437.308594 352.636719 437.996094 C 352.636719 438.6875 352.730469 439.378906 352.914062 440.023438 C 353.230469 441.128906 353.824219 442.09375 354.648438 442.921875 C 355.425781 443.75 356.429688 444.347656 357.527344 444.671875 C 358.164062 444.855469 358.851562 444.945312 359.535156 444.945312 L 367.847656 444.945312 C 368.625 444.945312 369.265625 445.589844 369.265625 446.375 C 369.265625 447.203125 368.625 447.847656 367.847656 447.847656 L 352.636719 447.847656 L 352.636719 453.324219 L 367.847656 453.324219 C 369.355469 453.324219 370.769531 452.863281 372.003906 451.941406 C 373.144531 451.066406 374.015625 449.78125 374.425781 448.398438 C 374.652344 447.753906 374.746094 447.0625 374.746094 446.375 C 374.746094 445.730469 374.652344 445.039062 374.472656 444.394531 Z M 374.472656 444.394531 " fill-opacity="1" fill-rule="nonzero"/></g><g clip-path="url(#c9656f2981)"><path fill="#f48b0e" d="M 391.097656 453.324219 L 398.859375 453.324219 L 398.859375 444.761719 L 391.097656 436.9375 Z M 379.3125 421.707031 L 379.3125 429.53125 L 391.097656 429.53125 L 391.097656 433.347656 L 398.859375 441.171875 L 398.859375 429.53125 L 410.691406 429.53125 L 410.691406 421.707031 Z M 425.226562 444.945312 C 425.367188 444.945312 425.457031 444.945312 425.546875 444.945312 L 425.640625 444.945312 C 427.421875 444.902344 429.066406 444.210938 430.296875 442.96875 C 431.53125 441.679688 432.261719 440.023438 432.355469 438.226562 C 432.355469 437.996094 432.355469 437.769531 432.355469 437.539062 C 432.355469 437.03125 432.308594 436.523438 432.21875 436.019531 C 431.941406 434.867188 431.347656 433.808594 430.480469 432.980469 C 429.566406 432.0625 428.425781 431.417969 427.191406 431.1875 C 426.78125 431.09375 426.371094 431.046875 425.914062 431.046875 L 411.160156 431.046875 L 411.160156 439.195312 L 416.59375 444.71875 L 416.59375 444.671875 L 425.089844 453.230469 L 425.226562 453.324219 L 433.722656 453.324219 Z M 424.863281 439.46875 L 419.609375 439.46875 L 417.007812 436.800781 L 426.597656 436.800781 C 426.644531 436.894531 426.644531 437.03125 426.691406 437.125 C 426.691406 437.167969 426.734375 437.261719 426.734375 437.351562 C 426.734375 437.351562 426.734375 437.398438 426.734375 437.445312 C 426.734375 437.492188 426.734375 437.539062 426.734375 437.539062 C 426.734375 437.8125 426.691406 438.089844 426.554688 438.367188 C 426.554688 438.410156 426.507812 438.503906 426.460938 438.550781 C 426.417969 438.597656 426.417969 438.640625 426.417969 438.640625 C 426.371094 438.6875 426.371094 438.6875 426.324219 438.734375 C 426.324219 438.734375 426.324219 438.78125 426.277344 438.78125 L 426.277344 438.828125 C 426.234375 438.828125 426.234375 438.871094 426.1875 438.917969 C 426.003906 439.101562 425.777344 439.242188 425.503906 439.332031 C 425.410156 439.378906 425.320312 439.378906 425.226562 439.425781 C 425.089844 439.425781 425 439.46875 424.863281 439.46875 Z M 411.160156 453.324219 L 416.59375 453.324219 L 416.59375 447.25 L 411.160156 441.726562 Z M 436.449219 453.324219 L 442.84375 453.324219 L 449.058594 442.96875 L 445.859375 437.628906 Z M 450.109375 430.632812 L 446.910156 435.925781 L 456.046875 451.160156 L 457.371094 453.324219 L 463.765625 453.324219 Z M 488.4375 435.878906 C 488.394531 435.878906 488.394531 435.835938 488.394531 435.835938 C 486.335938 432.84375 482.957031 431.046875 479.347656 431.046875 L 468.386719 431.046875 L 468.386719 437.351562 L 473.867188 442.921875 L 473.867188 436.617188 L 479.347656 436.617188 C 481.175781 436.617188 482.867188 437.492188 483.871094 439.011719 C 483.871094 439.011719 483.871094 439.011719 483.917969 439.011719 C 484.511719 439.976562 484.875 441.082031 484.875 442.1875 C 484.875 443.335938 484.554688 444.441406 483.917969 445.363281 C 483.917969 445.363281 483.871094 445.363281 483.871094 445.40625 C 482.910156 446.789062 481.40625 447.664062 479.714844 447.753906 C 479.625 447.800781 479.488281 447.800781 479.347656 447.800781 L 473.867188 447.800781 L 473.867188 445.40625 L 468.386719 439.882812 L 468.386719 453.324219 L 479.347656 453.324219 C 482.957031 453.324219 486.335938 451.574219 488.394531 448.582031 C 488.394531 448.535156 488.4375 448.492188 488.4375 448.492188 C 489.71875 446.605469 490.355469 444.441406 490.355469 442.1875 C 490.355469 439.929688 489.671875 437.722656 488.4375 435.878906 Z M 500.40625 447.847656 L 500.40625 446.28125 L 494.972656 440.757812 L 494.972656 453.324219 L 513.425781 453.324219 L 513.425781 447.847656 Z M 513.425781 444.992188 L 513.425781 439.46875 L 503.878906 439.46875 L 501.046875 436.570312 L 513.425781 436.570312 L 513.425781 431.046875 L 494.972656 431.046875 L 494.972656 438.226562 L 501.640625 444.992188 Z M 513.425781 444.992188 " fill-opacity="1" fill-rule="nonzero"/></g></svg>