<?xml version="1.0" encoding="UTF-8"?>
<svg id="Layer_2" data-name="Layer 2" xmlns="http://www.w3.org/2000/svg" viewBox="0 0 251.79 204.87">
  <defs>
    <style>
      .cls-1 {
        fill: #fff;
      }

      .cls-2 {
        fill: #3949ab;
      }

      .cls-3 {
        fill: #1a237e;
      }

      .cls-4 {
        opacity: .1;
      }
    </style>
  </defs>
  <g id="Content">
    <g>
      <g>
        <rect class="cls-3" x="52.43" y="47.19" width="146.93" height="52.33" transform="translate(53.54 -53.12) rotate(30)"/>
        <path id="Top" class="cls-2" d="M.2,86.59s.01,.1,.02,.14c.01,.06,.03,.11,.04,.17,.01,.05,.03,.09,.04,.14,.02,.06,.05,.11,.07,.17,.02,.05,.04,.09,.07,.14,.03,.06,.07,.11,.1,.17,.03,.04,.05,.09,.08,.13,.04,.06,.09,.11,.13,.16,.03,.04,.07,.08,.1,.12,.05,.06,.11,.11,.17,.16,.04,.04,.07,.07,.11,.11,.07,.06,.14,.11,.22,.17,.04,.03,.07,.06,.11,.08,.12,.08,.24,.16,.37,.23,.21,.12,.45,.23,.7,.34,.05,.02,.1,.04,.16,.06,.21,.08,.44,.15,.68,.21,.07,.02,.13,.04,.2,.06,.29,.07,.6,.12,.91,.16,.07,0,.14,.02,.22,.02,.09,0,.18,0,.27,.02,.24,.02,.48,.04,.74,.04h14.6s27.93,0,27.93,0l80.54,46.5c.53,.31,1.07,.6,1.62,.88,.18,.09,.36,.18,.54,.27,.38,.19,.76,.37,1.14,.55,.22,.1,.44,.2,.65,.29,.36,.16,.73,.32,1.1,.47,.23,.09,.46,.19,.69,.28,.38,.15,.76,.29,1.14,.43,.21,.08,.41,.15,.62,.23,.81,.28,1.63,.55,2.47,.8,.16,.05,.33,.09,.49,.14,.87,.25,1.74,.48,2.64,.69,.03,0,.06,.01,.08,.02,.73,.17,1.46,.32,2.2,.46,.21,.04,.43,.08,.64,.12,.64,.12,1.28,.22,1.93,.32,.15,.02,.29,.05,.44,.07,.74,.11,1.49,.2,2.24,.28,.18,.02,.37,.04,.55,.05,.59,.06,1.17,.11,1.76,.15,.02,0,.04,0,.05,0,.21,.02,.42,.03,.64,.04,.66,.04,1.33,.08,2,.1,.02,0,.04,0,.06,0,.09,0,.18,0,.27,.01,.77,.02,1.54,.03,2.31,.03,.2,0,.39,0,.59,0,.69,0,1.38-.03,2.07-.06,.18,0,.35-.01,.53-.02,.82-.04,1.63-.1,2.44-.17,.03,0,.06,0,.09,0,0,0,0,0,0,0,0,0,0,0,0,0,.32-.03,.63-.06,.94-.09,.23-.02,.47-.05,.7-.07,.4-.05,.81-.1,1.21-.15,.19-.03,.38-.05,.58-.08,.59-.08,1.18-.18,1.77-.28,.04,0,.09-.02,.13-.02,.54-.09,1.07-.19,1.6-.3,.65-.13,1.29-.27,1.93-.42,.13-.03,.25-.06,.37-.09,.51-.12,1.02-.25,1.52-.39,.22-.06,.44-.13,.66-.19,.4-.11,.8-.23,1.2-.35,.11-.04,.23-.07,.34-.11,.13-.04,.25-.08,.38-.12,.37-.12,.74-.24,1.1-.37,.24-.09,.49-.17,.73-.26,.36-.13,.71-.27,1.06-.41,.24-.09,.47-.19,.71-.29,.35-.15,.7-.3,1.05-.46,.09-.04,.18-.08,.28-.12,.13-.06,.25-.11,.38-.17,.37-.17,.74-.36,1.11-.54,.18-.09,.36-.18,.54-.27,.54-.28,1.07-.57,1.58-.87l55.67-32.35c.48-.28,.94-.56,1.39-.85,.14-.09,.26-.18,.4-.27,.3-.2,.61-.4,.9-.61,.15-.1,.28-.21,.43-.32,.26-.2,.53-.39,.79-.59,.14-.11,.27-.23,.41-.34,.24-.2,.48-.39,.71-.59,.1-.09,.2-.18,.3-.27,.25-.23,.5-.45,.74-.69,.09-.09,.17-.18,.25-.26,.23-.24,.47-.48,.69-.72,.07-.08,.13-.16,.2-.23,.22-.25,.44-.51,.65-.77,.05-.07,.1-.13,.15-.2,.21-.27,.42-.55,.61-.82,.02-.02,.03-.05,.05-.07,.22-.32,.43-.64,.62-.97,.04-.06,.07-.13,.11-.19,.17-.28,.33-.57,.47-.86,.03-.05,.05-.1,.07-.15,.15-.3,.29-.61,.42-.91,.07-.17,.13-.33,.19-.5,.07-.19,.15-.38,.21-.57,.06-.17,.1-.35,.15-.52,.05-.19,.11-.37,.16-.56,0-.02,0-.03,.01-.05,0,0,0,0,0,0,.04-.16,.06-.32,.1-.48,.04-.19,.08-.38,.11-.56,.02-.1,.02-.19,.04-.29,.04-.27,.07-.54,.1-.81,.01-.18,.02-.35,.02-.53,.25-6.06-3.63-12.17-11.63-16.8L128.07,6.7c-15.47-8.93-40.48-8.93-55.85,0L16.55,39.05c-1.16,.67-2.23,1.38-3.21,2.11-5.56,4.14-8.31,9.14-8.25,14.14,0,.28,.02,.56,.04,.84,0,.13,.02,.26,.03,.39,.04,.41,.1,.81,.18,1.22,.97,4.98,4.78,9.83,11.39,13.65l3.5,2.02-3.51,2.04-11.72,6.81-3.21,1.87c-1.14,.66-1.63,1.48-1.61,2.28,0,.06,0,.11,.01,.17Zm190.64,15.15c0,.08-.01,.17-.02,.25,0,.1,0,.2-.03,.3-.02,.12-.05,.24-.09,.35-.02,.06-.03,.13-.05,.19-.03,.08-.06,.15-.09,.23-.02,.04-.03,.08-.05,.12-.02,.05-.04,.09-.06,.14,0,.02-.01,.03-.02,.05-.07,.15-.16,.29-.26,.43-.02,.03-.03,.06-.06,.09-.08,.12-.18,.24-.28,.35-.04,.05-.08,.1-.12,.15-.11,.12-.23,.23-.35,.35-.05,.05-.09,.09-.14,.14-.11,.1-.24,.19-.36,.29-.08,.06-.15,.12-.23,.18-.17,.12-.35,.23-.54,.35-.04,.02-.08,.05-.12,.08-.26,.15-.53,.29-.81,.42-.09,.04-.18,.08-.27,.11-.2,.09-.39,.17-.6,.24-.08,.03-.16,.05-.23,.08-.03,.01-.07,.02-.1,.04-.19,.06-.38,.13-.58,.18-.12,.04-.25,.07-.37,.1-.19,.05-.39,.1-.58,.14-.14,.03-.28,.06-.43,.09-.13,.02-.26,.05-.39,.07-.09,.02-.19,.03-.29,.04-.07,0-.14,.02-.21,.03-.13,.02-.26,.03-.39,.05-.12,.01-.24,.02-.37,.03-.35,.03-.71,.05-1.06,.05-.07,0-.14,0-.21,0-.3,0-.6,0-.89-.02-2.25-.11-4.45-.66-6.18-1.65-3.87-2.23-3.89-5.85-.05-8.08,1.92-1.12,4.45-1.68,6.97-1.68,.03,0,.06,0,.1,0,.33,0,.65,.01,.98,.03,.03,0,.06,0,.09,0,.07,0,.14,.01,.2,.02,.04,0,.09,0,.13,.01,.25,.02,.49,.05,.74,.08,.04,0,.09,.01,.13,.02,.28,.04,.55,.09,.82,.14,.95,.19,1.86,.46,2.69,.82,.09,.04,.19,.08,.29,.12,.29,.13,.56,.27,.83,.42,.24,.14,.47,.29,.68,.44,.06,.04,.11,.09,.17,.14,.1,.07,.19,.15,.28,.22,.04,.04,.09,.07,.13,.11,.07,.06,.13,.12,.19,.18,.11,.1,.22,.2,.31,.3,.07,.07,.12,.15,.18,.22,0,0,0,.01,.01,.02,.07,.09,.15,.18,.22,.27,.05,.08,.1,.16,.14,.24,.03,.05,.07,.11,.1,.16,.02,.04,.05,.09,.08,.13,.04,.08,.07,.16,.1,.24,.03,.06,.06,.12,.08,.19,.01,.04,.03,.07,.05,.11,.03,.08,.04,.16,.06,.25,.03,.1,.06,.2,.07,.3,.01,.08,.01,.17,.02,.25,0,.1,.02,.2,.02,.3Zm-16.97-20.24c1.28-.75,2.84-1.24,4.48-1.48,.1-.02,.2-.03,.31-.04,2.75-.36,5.7-.03,8.06,.98,.03,.01,.06,.03,.09,.04,.35,.16,.7,.32,1.02,.51,.24,.14,.47,.29,.68,.44,.07,.05,.14,.11,.21,.16,.13,.1,.27,.2,.39,.3,.07,.07,.14,.13,.21,.2,.1,.1,.21,.19,.3,.29,.06,.07,.12,.14,.17,.22,.08,.1,.17,.19,.24,.29,.05,.08,.09,.15,.14,.23,.06,.1,.13,.2,.18,.29,.04,.08,.07,.16,.1,.24,.04,.1,.09,.19,.12,.29,.03,.08,.04,.17,.06,.25,.03,.1,.06,.19,.07,.29,.01,.09,.02,.17,.02,.26,0,.1,.02,.2,.02,.29,0,.09-.01,.17-.02,.26,0,.1,0,.19-.02,.29-.02,.12-.05,.24-.09,.36-.02,.06-.03,.12-.05,.19-.03,.08-.07,.17-.1,.25-.01,.03-.03,.07-.04,.1-.02,.05-.03,.09-.06,.14,0,.01-.01,.03-.02,.04-.07,.15-.16,.29-.26,.43-.02,.03-.03,.06-.05,.09-.08,.12-.18,.24-.28,.36-.04,.05-.08,.1-.12,.15-.11,.12-.23,.24-.36,.35-.05,.04-.09,.09-.14,.13-.12,.1-.25,.2-.38,.3-.07,.05-.13,.11-.2,.16-.19,.13-.39,.26-.6,.39-.02,.01-.05,.03-.07,.05-.26,.15-.53,.29-.81,.42-.09,.04-.18,.08-.27,.12-.19,.08-.39,.17-.59,.24-.08,.03-.16,.05-.24,.08-.03,.01-.07,.02-.1,.04-.19,.06-.38,.12-.57,.18-.12,.04-.25,.07-.38,.1-.19,.05-.38,.1-.58,.14-.14,.03-.29,.06-.43,.09-.13,.02-.26,.05-.39,.07-.1,.02-.19,.03-.29,.04-.07,0-.14,.02-.21,.03-.13,.02-.26,.03-.39,.05-.12,.01-.24,.02-.37,.03-.35,.03-.71,.05-1.06,.05-.07,0-.14,0-.21,0-.03,0-.05,0-.08,0-2.53,0-5.06-.56-6.99-1.68-3.14-1.81-3.75-4.54-1.8-6.7,.45-.5,1.03-.97,1.76-1.39Zm-10.96,20.24c0,.09-.01,.18-.02,.27,0,.09,0,.19-.02,.28-.02,.12-.05,.24-.09,.36-.02,.06-.03,.12-.05,.19-.03,.09-.07,.17-.11,.25-.01,.03-.03,.06-.04,.1-.02,.05-.04,.09-.06,.14,0,.01-.01,.03-.02,.04-.07,.15-.16,.29-.26,.44-.02,.03-.03,.06-.05,.09-.08,.12-.18,.24-.28,.36-.04,.05-.08,.1-.12,.15-.11,.12-.23,.24-.36,.35-.05,.04-.09,.09-.14,.13-.12,.1-.25,.2-.38,.3-.07,.05-.13,.11-.21,.16-.19,.13-.39,.26-.6,.38-.03,.02-.05,.03-.07,.05-.26,.15-.53,.29-.81,.42-.09,.04-.18,.08-.27,.12-.19,.08-.39,.17-.59,.24-.08,.03-.16,.05-.23,.08-.04,.01-.07,.03-.11,.04-.19,.06-.38,.13-.57,.18-.12,.04-.25,.07-.38,.1-.19,.05-.38,.1-.58,.14-.14,.03-.29,.06-.43,.09-.13,.02-.26,.05-.39,.07-.09,.02-.19,.03-.29,.04-.07,0-.14,.02-.21,.03-.13,.02-.26,.03-.39,.05-.12,.01-.24,.02-.37,.03-.36,.03-.71,.05-1.07,.05-.07,0-.14,0-.2,0-.03,0-.05,0-.08,0-2.53,0-5.06-.56-6.99-1.67-3.87-2.23-3.89-5.86-.05-8.09,1.92-1.12,4.45-1.67,6.97-1.67,.03,0,.06,0,.09,0,.33,0,.65,.01,.98,.03,.03,0,.06,0,.09,0,.06,0,.12,.01,.18,.01,.05,0,.1,0,.15,.01,.25,.02,.5,.05,.74,.08,0,0,.02,0,.03,0,.31,.04,.62,.09,.92,.15,.63,.12,1.25,.29,1.83,.49,.02,0,.05,.02,.07,.02,.27,.09,.54,.2,.8,.31,.05,.02,.1,.04,.15,.06,.33,.15,.66,.31,.96,.48,.24,.14,.47,.29,.68,.44,.06,.05,.12,.09,.18,.14,.09,.07,.19,.14,.28,.22,.04,.04,.09,.07,.14,.11,.07,.06,.13,.13,.19,.19,.11,.1,.21,.2,.31,.3,.06,.07,.11,.14,.17,.21,0,0,.01,.01,.02,.02,.07,.09,.16,.18,.22,.28,.05,.08,.09,.15,.14,.23,.03,.06,.07,.11,.1,.17,.02,.04,.05,.09,.08,.13,.04,.08,.07,.16,.1,.24,.03,.06,.06,.13,.08,.19,.01,.04,.03,.07,.05,.11,.03,.08,.04,.17,.06,.25,.03,.1,.06,.2,.07,.3,.01,.09,.01,.17,.02,.26,0,.1,.02,.2,.02,.29Zm-16.97-20.23c1.92-1.12,4.45-1.68,6.97-1.68,.36,0,.71,.01,1.07,.04,.03,0,.06,0,.09,0,.07,0,.14,.01,.2,.02,.29,.02,.58,.05,.86,.09,.05,0,.1,.01,.15,.02,1.69,.24,3.29,.74,4.61,1.5,.24,.14,.47,.29,.68,.44,.07,.05,.13,.1,.19,.15,.14,.1,.28,.21,.4,.31,.07,.06,.13,.13,.19,.19,.1,.1,.21,.2,.31,.3,.06,.07,.11,.14,.17,.2,.08,.1,.17,.2,.24,.3,.05,.07,.09,.15,.14,.23,.06,.1,.13,.2,.18,.3,.04,.08,.07,.16,.1,.24,.04,.1,.09,.2,.12,.29,.03,.08,.04,.17,.06,.25,.03,.1,.06,.2,.07,.29,.01,.09,.01,.17,.02,.26,0,.1,.02,.2,.02,.29,0,.09-.01,.18-.02,.27,0,.09,0,.18-.02,.28-.02,.12-.05,.24-.09,.36-.02,.06-.03,.12-.05,.19-.03,.09-.07,.18-.11,.27-.01,.02-.02,.05-.03,.07-.02,.05-.04,.1-.06,.15,0,.01-.01,.03-.02,.04-.08,.15-.17,.29-.26,.44-.02,.03-.03,.06-.05,.08-.09,.12-.19,.24-.29,.36-.04,.05-.07,.1-.12,.14-.11,.12-.24,.24-.37,.36-.04,.04-.08,.08-.13,.12-.12,.11-.26,.21-.4,.32-.06,.05-.12,.1-.18,.14-.21,.15-.43,.29-.67,.43,0,0,0,0,0,0-.24,.14-.49,.27-.75,.39-3.87,1.83-9.58,1.7-13.21-.39-3.87-2.24-3.89-5.85-.05-8.09Zm-56.08-40.44l7.21-4.19c3.71-2.15,9.72-2.15,13.45,0l.52,.3c3.73,2.15,3.75,5.64,.04,7.79l-7.21,4.19,7.26,4.19c.23,.14,.45,.28,.66,.42,.07,.05,.12,.1,.19,.15,.08,.06,.17,.13,.25,.19,.04,.04,.09,.07,.13,.11,.07,.06,.13,.13,.2,.19,.1,.09,.2,.18,.28,.28,.06,.07,.12,.14,.17,.22,0,0,0,0,0,0,.07,.09,.15,.18,.22,.27,.05,.08,.09,.15,.14,.23,.03,.05,.06,.1,.09,.15,.02,.04,.05,.09,.08,.13,.04,.08,.07,.16,.1,.24,.02,.06,.05,.11,.07,.17,.01,.04,.03,.08,.05,.11,.03,.08,.04,.16,.06,.24,.02,.09,.05,.19,.07,.28,.01,.08,.01,.17,.02,.25,0,.09,.02,.19,.02,.28,0,.08-.01,.17-.02,.25,0,.09,0,.18-.02,.28-.02,.11-.05,.23-.08,.34-.02,.06-.03,.12-.05,.18-.03,.08-.07,.16-.1,.24-.01,.03-.02,.06-.04,.09-.02,.05-.04,.09-.06,.14,0,.01-.01,.03-.02,.04-.07,.14-.16,.28-.25,.42-.02,.03-.03,.06-.05,.08-.08,.12-.18,.23-.27,.34-.04,.05-.07,.1-.11,.14-.11,.12-.23,.23-.35,.34-.04,.04-.08,.08-.13,.12-.11,.1-.24,.2-.37,.29-.07,.05-.12,.1-.19,.15-.18,.13-.38,.26-.59,.38-.02,.01-.04,.03-.06,.04h0s-.51,.29-.51,.29c0,0,0,0,0,0-.25,.14-.51,.28-.78,.4-.09,.04-.18,.08-.27,.11-.19,.08-.37,.16-.57,.23-.11,.04-.22,.08-.33,.11-.12,.04-.23,.08-.35,.12-.03,0-.06,.02-.1,.03-.03,0-.07,.02-.1,.03-.12,.03-.24,.07-.37,.1-.18,.05-.37,.09-.56,.13-.1,.02-.21,.04-.32,.06-.09,.02-.19,.04-.28,.06-.04,0-.09,.01-.13,.02-.33,.05-.66,.1-1,.13-.09,0-.18,.02-.27,.02-.18,.01-.36,.03-.53,.04-2.68,.12-5.44-.4-7.5-1.59l-7.26-4.19-7.22,4.19c-3.7,2.15-9.73,2.15-13.45,0l-.52-.3c-3.73-2.15-3.74-5.64-.04-7.79l7.22-4.19-7.26-4.19c-3.73-2.15-3.75-5.64-.04-7.79l.51-.29c2.32-1.35,5.54-1.85,8.54-1.51,1.8,.2,3.51,.71,4.91,1.51l7.26,4.19Z"/>
        <g id="Side">
          <g>
            <g id="Side_A" data-name="Side A">
              <path class="cls-3" d="M20.24,73.47l-3.51,2.04-11.72,6.81,.08-27.17c0,.07,.01,.13,.01,.2,0,.28,.02,.56,.04,.84,.01,.09,0,.19,.02,.28,0,.04,.01,.07,.02,.1,.04,.41,.1,.81,.18,1.22,.97,4.98,4.78,9.83,11.39,13.64l3.5,2.02Z"/>
            </g>
            <g id="Side_C" data-name="Side C">
              <polygon class="cls-3" points="48.25 89.64 48.08 151.67 5.55 151.67 5.73 89.64 48.25 89.64"/>
            </g>
            <g id="Side_B" data-name="Side B">
              <path class="cls-3" d="M5.73,89.64l-.18,62.03c-.24,0-.47-.02-.69-.04-.1-.01-.22-.01-.32-.02-.08,0-.15-.01-.22-.02-.06-.01-.11-.02-.17-.03-.24-.04-.48-.07-.71-.12-.01,0-.03,0-.04-.01-.07-.02-.13-.04-.21-.06-.19-.05-.36-.11-.54-.17-.04-.02-.09-.03-.13-.04-.06-.02-.11-.04-.16-.06-.25-.1-.49-.22-.7-.34-1.06-.61-1.66-1.46-1.66-2.32l.18-62.03s0,.04,0,.06c0,.05,0,.11,.02,.17,0,.05,.01,.1,.02,.14,.01,.06,.03,.11,.04,.17,.02,.05,.03,.09,.05,.14,.02,.06,.05,.11,.07,.17,.02,.03,.03,.07,.05,.1,0,.01,.01,.02,.02,.04,.03,.06,.07,.11,.1,.17,.03,.04,.05,.08,.08,.13,.04,.05,.09,.11,.13,.16,.03,.04,.06,.08,.1,.12,.05,.06,.11,.11,.17,.17,.04,.03,.07,.07,.11,.1,.07,.06,.14,.11,.21,.17,.04,.03,.07,.06,.11,.08,.12,.08,.24,.16,.37,.23,.21,.12,.46,.24,.7,.34,.05,.02,.1,.05,.16,.07,.05,.02,.09,.04,.13,.05,.17,.06,.36,.11,.54,.16,.07,.02,.13,.04,.21,.06,.01,0,.03,.01,.04,.01,.23,.06,.47,.1,.71,.13,.06,.01,.11,.01,.17,.02,.07,0,.14,.02,.22,.02,.09,.01,.18,.02,.27,.03,.02,0,.04,0,.05,0,.23,.02,.46,.02,.69,.02Z"/>
            </g>
            <g id="Side_D" data-name="Side D">
              <path class="cls-3" d="M251.79,87.93l-.18,61.86c0,.13-.02,.26-.02,.39-.01,.35-.04,.7-.08,1.05-.02,.13-.03,.26-.05,.39-.06,.38-.12,.76-.21,1.14-.01,.05-.02,.09-.03,.14,0,.02,0,.04-.01,.05-.11,.44-.24,.88-.4,1.31-.04,.12-.09,.23-.13,.35-.13,.34-.27,.67-.42,.99-.03,.07-.06,.14-.09,.21-.04,.09-.08,.17-.12,.26-.05,.09-.09,.19-.14,.28-.13,.25-.27,.51-.42,.76-.04,.06-.07,.13-.11,.19-.19,.31-.39,.62-.6,.92-.05,.07-.1,.14-.16,.22-.1,.14-.21,.27-.32,.41-.06,.08-.12,.17-.19,.25-.1,.13-.21,.26-.32,.4-.16,.19-.32,.38-.48,.56-.12,.13-.23,.26-.35,.39-.18,.19-.36,.37-.54,.56-.12,.12-.24,.25-.37,.37-.2,.2-.41,.39-.62,.58-.12,.11-.24,.22-.37,.33-.03,.03-.06,.05-.08,.07-.18,.15-.36,.3-.55,.46-.16,.13-.31,.26-.47,.39-.23,.18-.48,.36-.72,.54-.16,.11-.31,.23-.47,.35-.27,.19-.56,.38-.85,.57-.14,.09-.28,.19-.42,.28-.44,.28-.89,.56-1.36,.83l-55.66,32.35c-.52,.3-1.05,.59-1.58,.87-.18,.09-.36,.18-.54,.26-.36,.19-.73,.37-1.11,.54-.21,.1-.43,.2-.65,.29-.35,.16-.7,.31-1.05,.46-.23,.1-.47,.19-.71,.28-.35,.14-.7,.27-1.06,.41-.24,.09-.48,.18-.73,.26-.36,.12-.73,.25-1.1,.37-.24,.08-.48,.16-.72,.23-.39,.12-.8,.24-1.2,.35-.22,.06-.44,.13-.66,.19-.5,.13-1.01,.26-1.52,.39-.12,.03-.24,.06-.37,.09-.64,.15-1.28,.29-1.92,.42-.03,0-.05,.01-.07,.02-.51,.1-1.02,.2-1.53,.28-.05,.01-.09,.02-.13,.03-.58,.1-1.17,.19-1.76,.28-.19,.03-.38,.05-.57,.07-.4,.05-.81,.11-1.21,.16-.23,.03-.47,.05-.7,.07-.28,.03-.57,.06-.85,.08-.06,0-.11,.01-.18,.02-.81,.07-1.62,.13-2.44,.17-.18,.01-.35,.02-.53,.02-.69,.03-1.38,.05-2.07,.06-.12,0-.25,0-.37,0h-.22c-.77,0-1.54,0-2.31-.03-.11,0-.22-.01-.33-.01-.67-.03-1.33-.06-2-.1-.11-.01-.21-.02-.32-.03-.12,0-.25-.02-.37-.03-.58-.04-1.17-.09-1.76-.15-.19-.02-.37-.04-.55-.06-.76-.08-1.5-.18-2.25-.28-.04,0-.08-.02-.11-.02-.11-.02-.22-.03-.33-.05-.64-.1-1.29-.21-1.92-.33-.21-.04-.43-.08-.64-.12-.73-.14-1.47-.29-2.2-.46-.02,0-.05-.01-.07-.02,0,0,0,0-.01,0-.89-.21-1.76-.44-2.63-.69-.17-.05-.33-.09-.49-.14-.84-.25-1.66-.51-2.47-.8-.06-.02-.12-.05-.19-.07-.14-.05-.29-.1-.43-.16-.38-.14-.77-.28-1.14-.43-.23-.09-.46-.19-.69-.28-.37-.15-.73-.31-1.1-.47-.22-.1-.44-.19-.66-.29-.39-.18-.77-.36-1.14-.55-.18-.09-.36-.18-.54-.27-.55-.28-1.09-.58-1.62-.88l-80.54-46.5,.18-62.03,80.54,46.5c.53,.31,1.07,.59,1.62,.88,.18,.09,.36,.18,.54,.27,.38,.19,.76,.38,1.14,.55,.22,.1,.43,.2,.66,.29,.36,.16,.73,.32,1.1,.47,.23,.09,.46,.19,.69,.28,.38,.15,.76,.29,1.14,.43,.14,.06,.29,.11,.43,.17,.06,.02,.13,.04,.19,.06,.81,.28,1.64,.55,2.47,.79,.17,.05,.33,.09,.49,.14,.87,.25,1.74,.49,2.63,.69,0,0,.01,0,.01,0,.03,0,.05,0,.07,.01,.73,.17,1.46,.33,2.2,.47,.21,.04,.42,.08,.64,.12,.64,.12,1.28,.23,1.93,.32,.1,.02,.21,.04,.32,.06,.04,0,.08,.01,.11,.02,.75,.1,1.49,.2,2.25,.28,.18,.02,.37,.04,.55,.06,.58,.06,1.17,.11,1.76,.15,.02,0,.04,0,.06,0,.1,.01,.21,.02,.32,.03,.11,.01,.21,.01,.32,.02,.66,.05,1.33,.08,2,.1,.02,0,.04,0,.06,0,.09,0,.18,.01,.27,.01,.77,.02,1.54,.03,2.31,.03,.07,0,.14,0,.22,0,.12,0,.24,0,.37-.01,.69,0,1.38-.03,2.07-.06,.18,0,.35-.01,.53-.02,.82-.04,1.64-.1,2.44-.17,.03,0,.06,0,.09,0,.03,0,.06,0,.09,0,.28-.03,.57-.06,.85-.09,.23-.02,.47-.04,.7-.07,.4-.05,.81-.1,1.21-.15,.19-.03,.38-.05,.57-.08,.59-.08,1.18-.18,1.76-.27,.05-.01,.09-.02,.13-.03,.51-.09,1.02-.18,1.53-.28,.03,0,.05-.01,.07-.02,.65-.13,1.29-.27,1.92-.42,.13-.03,.25-.06,.37-.09,.51-.12,1.02-.25,1.52-.39,.22-.06,.44-.13,.66-.19,.4-.11,.81-.23,1.2-.35,.11-.04,.23-.07,.34-.11,.13-.04,.25-.08,.38-.13,.37-.12,.73-.24,1.1-.37,.25-.08,.49-.17,.73-.26,.36-.13,.71-.26,1.06-.4,.24-.09,.48-.19,.71-.28,.36-.15,.7-.31,1.05-.46,.09-.04,.19-.08,.27-.12,.13-.06,.25-.11,.38-.17,.38-.18,.75-.36,1.11-.54,.18-.09,.36-.18,.54-.27,.54-.28,1.07-.56,1.58-.86l55.66-32.35c.47-.27,.92-.55,1.36-.83,.01,0,.02-.02,.03-.02,.14-.09,.26-.18,.4-.27,.29-.19,.57-.38,.85-.57,.02-.01,.04-.03,.06-.04,.14-.1,.28-.21,.42-.32,.24-.18,.48-.35,.71-.53,.03-.02,.05-.04,.08-.06,.14-.11,.27-.23,.41-.34,.18-.14,.36-.29,.53-.43,.03-.03,.06-.05,.08-.08,.03-.03,.07-.05,.09-.08,.1-.09,.2-.18,.3-.27,.2-.18,.4-.37,.6-.55,.05-.04,.09-.09,.14-.13,.09-.09,.17-.18,.25-.26,.18-.18,.35-.36,.52-.54,.05-.06,.11-.12,.17-.18,.07-.08,.13-.16,.2-.23,.16-.18,.31-.36,.46-.54,.06-.08,.13-.16,.19-.23,.05-.06,.1-.13,.15-.2,.06-.07,.11-.13,.17-.21,.11-.14,.21-.29,.32-.43,.04-.06,.09-.12,.13-.19,.02-.02,.03-.05,.05-.07,.2-.29,.39-.59,.57-.89,.02-.03,.03-.05,.05-.08,.04-.07,.07-.13,.11-.19,.13-.23,.25-.46,.38-.68,.03-.06,.06-.12,.09-.18,.03-.05,.05-.1,.07-.15,.03-.07,.07-.13,.1-.19,.04-.07,.06-.15,.09-.23,.08-.17,.16-.33,.23-.5,.07-.17,.13-.33,.19-.5,.04-.12,.09-.24,.13-.35,.03-.08,.06-.15,.08-.22,.06-.18,.1-.35,.15-.52,.06-.19,.11-.37,.16-.56,0-.02,.01-.03,.02-.05,.04-.16,.06-.32,.1-.48,.04-.19,.08-.37,.11-.56,.02-.1,.03-.19,.04-.29,.02-.12,.03-.24,.04-.37,.02-.14,.04-.29,.05-.43,.02-.18,.02-.36,.03-.53v-.08c0-.08,.02-.15,.02-.23Z"/>
            </g>
          </g>
        </g>
      </g>
      <g class="cls-4">
        <path class="cls-1" d="M5.17,56.53c.04,.41,.1,.81,.18,1.22,.01,.07,.05,.13,.07,.19,.72-4.16,3.28-8.24,7.93-11.7,.98-.73,2.05-1.44,3.21-2.11L72.23,11.78c15.37-8.93,40.38-8.93,55.85,0l112.06,64.7c6.69,3.86,10.46,8.77,11.38,13.81,.03-.16,.07-.32,.1-.48,.02-.1,.02-.19,.04-.29,.04-.27,.07-.54,.09-.81,.01-.18,.02-.35,.02-.53,.25-6.06-3.63-12.17-11.63-16.8L128.08,6.7c-15.47-8.93-40.48-8.93-55.85,0L16.56,39.05c-1.16,.67-2.23,1.38-3.21,2.11-5.56,4.14-8.31,9.14-8.25,14.14,0,.28,.02,.56,.04,.84,0,.13,.01,.26,.03,.39Z"/>
      </g>
    </g>
  </g>
</svg>