<?xml version="1.0" encoding="UTF-8"?>
<svg xmlns="http://www.w3.org/2000/svg" xmlns:xlink="http://www.w3.org/1999/xlink" viewBox="0 0 108 108">
  <defs>
    <style>
      .cls-1 {
        stroke: #000;
        stroke-miterlimit: 10;
        stroke-width: .3px;
      }

      .cls-1, .cls-2 {
        fill: #fff;
      }

      .cls-3 {
        fill: #3949ab;
      }

      .cls-4 {
        fill: #1a237e;
      }

      .cls-5 {
        filter: url(#drop-shadow-1);
      }

      .cls-6 {
        fill: #e64a19;
      }

      .cls-7 {
        opacity: .1;
      }

      .cls-8 {
        fill: url(#linear-gradient);
      }
    </style>
    <linearGradient id="linear-gradient" x1="45.68" y1="45.95" x2="124.67" y2="124.94" gradientUnits="userSpaceOnUse">
      <stop offset="0" stop-color="#bf360c" stop-opacity=".25"/>
      <stop offset="1" stop-color="#bf360c" stop-opacity="0"/>
    </linearGradient>
    <filter id="drop-shadow-1" filterUnits="userSpaceOnUse">
      <feOffset dx="0" dy="2"/>
      <feGaussianBlur result="blur" stdDeviation="2"/>
      <feFlood flood-color="#000" flood-opacity=".25"/>
      <feComposite in2="blur" operator="in"/>
      <feComposite in="SourceGraphic"/>
    </filter>
  </defs>
  <g id="Background_Layer" data-name="Background Layer">
    <rect id="Background_Colour" data-name="Background Colour" class="cls-1" width="108" height="108"/>
    <rect class="cls-6" width="108" height="108"/>
  </g>
  <g id="Foreground_Layer" data-name="Foreground Layer">
    <polygon class="cls-8" points="30.92 60.71 93.73 123.53 126.09 123.53 126.09 96.84 76.74 47.48 30.92 60.71"/>
    <g class="cls-5">
      <g>
        <rect class="cls-4" x="40.5" y="41.72" width="27.17" height="9.67" transform="translate(30.53 -20.8) rotate(30)"/>
        <path id="Top" class="cls-3" d="M30.85,49.01s0,.02,0,.03c0,.01,0,.02,0,.03,0,0,0,.02,0,.03,0,.01,0,.02,.01,.03,0,0,0,.02,.01,.03,0,.01,.01,.02,.02,.03,0,0,0,.02,.02,.02,0,.01,.02,.02,.02,.03,0,0,.01,.01,.02,.02,0,.01,.02,.02,.03,.03,0,0,.01,.01,.02,.02,.01,.01,.03,.02,.04,.03,0,0,.01,.01,.02,.02,.02,.02,.04,.03,.07,.04,.04,.02,.08,.04,.13,.06,0,0,.02,0,.03,.01,.04,.01,.08,.03,.13,.04,.01,0,.02,0,.04,.01,.05,.01,.11,.02,.17,.03,.01,0,.03,0,.04,0,.02,0,.03,0,.05,0,.05,0,.09,0,.14,0h2.7s5.16,0,5.16,0l14.89,8.6c.1,.06,.2,.11,.3,.16,.03,.02,.07,.03,.1,.05,.07,.03,.14,.07,.21,.1,.04,.02,.08,.04,.12,.05,.07,.03,.13,.06,.2,.09,.04,.02,.09,.03,.13,.05,.07,.03,.14,.05,.21,.08,.04,.01,.08,.03,.12,.04,.15,.05,.3,.1,.46,.15,.03,0,.06,.02,.09,.03,.16,.05,.32,.09,.49,.13,0,0,.01,0,.02,0,.13,.03,.27,.06,.41,.09,.04,0,.08,.01,.12,.02,.12,.02,.24,.04,.36,.06,.03,0,.05,0,.08,.01,.14,.02,.28,.04,.41,.05,.03,0,.07,0,.1,0,.11,.01,.22,.02,.33,.03,0,0,0,0,0,0,.04,0,.08,0,.12,0,.12,0,.25,.01,.37,.02,0,0,0,0,.01,0,.02,0,.03,0,.05,0,.14,0,.28,0,.43,0,.04,0,.07,0,.11,0,.13,0,.26,0,.38-.01,.03,0,.07,0,.1,0,.15,0,.3-.02,.45-.03,0,0,.01,0,.02,0,0,0,0,0,0,0,0,0,0,0,0,0,.06,0,.12-.01,.17-.02,.04,0,.09,0,.13-.01,.07,0,.15-.02,.22-.03,.04,0,.07,0,.11-.01,.11-.02,.22-.03,.33-.05,0,0,.02,0,.02,0,.1-.02,.2-.04,.3-.06,.12-.02,.24-.05,.36-.08,.02,0,.05-.01,.07-.02,.09-.02,.19-.05,.28-.07,.04-.01,.08-.02,.12-.03,.07-.02,.15-.04,.22-.07,.02,0,.04-.01,.06-.02,.02,0,.05-.02,.07-.02,.07-.02,.14-.05,.2-.07,.05-.02,.09-.03,.13-.05,.07-.02,.13-.05,.2-.08,.04-.02,.09-.03,.13-.05,.07-.03,.13-.06,.19-.08,.02,0,.03-.02,.05-.02,.02-.01,.05-.02,.07-.03,.07-.03,.14-.07,.2-.1,.03-.02,.07-.03,.1-.05,.1-.05,.2-.1,.29-.16l10.29-5.98c.09-.05,.17-.1,.26-.16,.03-.02,.05-.03,.07-.05,.06-.04,.11-.07,.17-.11,.03-.02,.05-.04,.08-.06,.05-.04,.1-.07,.15-.11,.03-.02,.05-.04,.08-.06,.04-.04,.09-.07,.13-.11,.02-.02,.04-.03,.05-.05,.05-.04,.09-.08,.14-.13,.02-.02,.03-.03,.05-.05,.04-.04,.09-.09,.13-.13,.01-.01,.02-.03,.04-.04,.04-.05,.08-.09,.12-.14,0-.01,.02-.02,.03-.04,.04-.05,.08-.1,.11-.15,0,0,0,0,0-.01,.04-.06,.08-.12,.12-.18,0-.01,.01-.02,.02-.04,.03-.05,.06-.11,.09-.16,0,0,0-.02,.01-.03,.03-.06,.05-.11,.08-.17,.01-.03,.02-.06,.03-.09,.01-.04,.03-.07,.04-.11,.01-.03,.02-.06,.03-.1,.01-.03,.02-.07,.03-.1,0,0,0,0,0,0,0,0,0,0,0,0,0-.03,.01-.06,.02-.09,0-.03,.02-.07,.02-.1,0-.02,0-.04,0-.05,0-.05,.01-.1,.02-.15,0-.03,0-.07,0-.1,.05-1.12-.67-2.25-2.15-3.11l-20.72-11.96c-2.86-1.65-7.48-1.65-10.33,0l-10.29,5.98c-.21,.12-.41,.26-.59,.39-1.03,.77-1.54,1.69-1.52,2.61,0,.05,0,.1,0,.16,0,.02,0,.05,0,.07,0,.08,.02,.15,.03,.23,.18,.92,.88,1.82,2.11,2.52l.65,.37-.65,.38-2.17,1.26-.59,.35c-.21,.12-.3,.27-.3,.42,0,.01,0,.02,0,.03Zm35.25,2.8s0,.03,0,.05c0,.02,0,.04,0,.06,0,.02,0,.04-.02,.07,0,.01,0,.02,0,.03,0,.01-.01,.03-.02,.04,0,0,0,.02,0,.02,0,0,0,.02-.01,.03,0,0,0,0,0,0-.01,.03-.03,.05-.05,.08,0,0,0,.01-.01,.02-.02,.02-.03,.04-.05,.07,0,0-.01,.02-.02,.03-.02,.02-.04,.04-.07,.06,0,0-.02,.02-.03,.03-.02,.02-.04,.04-.07,.05-.01,.01-.03,.02-.04,.03-.03,.02-.07,.04-.1,.06,0,0-.01,0-.02,.01-.05,.03-.1,.05-.15,.08-.02,0-.03,.01-.05,.02-.04,.02-.07,.03-.11,.05-.01,0-.03,0-.04,.01,0,0-.01,0-.02,0-.04,.01-.07,.02-.11,.03-.02,0-.05,.01-.07,.02-.04,0-.07,.02-.11,.03-.03,0-.05,.01-.08,.02-.02,0-.05,0-.07,.01-.02,0-.04,0-.05,0-.01,0-.03,0-.04,0-.02,0-.05,0-.07,0-.02,0-.05,0-.07,0-.07,0-.13,0-.2,0-.01,0-.03,0-.04,0-.06,0-.11,0-.16,0-.42-.02-.82-.12-1.14-.31-.71-.41-.72-1.08,0-1.49,.36-.21,.82-.31,1.29-.31,0,0,.01,0,.02,0,.06,0,.12,0,.18,0,0,0,.01,0,.02,0,.01,0,.03,0,.04,0,0,0,.02,0,.02,0,.05,0,.09,0,.14,.02,0,0,.02,0,.02,0,.05,0,.1,.02,.15,.03,.18,.03,.34,.08,.5,.15,.02,0,.04,.01,.05,.02,.05,.02,.1,.05,.15,.08,.04,.03,.09,.05,.13,.08,.01,0,.02,.02,.03,.03,.02,.01,.04,.03,.05,.04,0,0,.02,.01,.02,.02,.01,.01,.02,.02,.04,.03,.02,.02,.04,.04,.06,.06,.01,.01,.02,.03,.03,.04,0,0,0,0,0,0,.01,.02,.03,.03,.04,.05,.01,.01,.02,.03,.03,.04,0,0,.01,.02,.02,.03,0,0,.01,.02,.01,.02,0,.01,.01,.03,.02,.04,0,.01,.01,.02,.01,.03,0,0,0,.01,0,.02,0,.02,0,.03,.01,.05,0,.02,.01,.04,.01,.06,0,.02,0,.03,0,.05,0,.02,0,.04,0,.05Zm-3.14-3.74c.24-.14,.52-.23,.83-.27,.02,0,.04,0,.06,0,.51-.07,1.05,0,1.49,.18,0,0,.01,0,.02,0,.07,.03,.13,.06,.19,.09,.04,.03,.09,.05,.13,.08,.01,0,.03,.02,.04,.03,.02,.02,.05,.04,.07,.06,.01,.01,.03,.02,.04,.04,.02,.02,.04,.04,.05,.05,.01,.01,.02,.03,.03,.04,.01,.02,.03,.04,.04,.05,0,.01,.02,.03,.03,.04,.01,.02,.02,.04,.03,.05,0,.01,.01,.03,.02,.05,0,.02,.02,.04,.02,.05,0,.02,0,.03,.01,.05,0,.02,.01,.04,.01,.05,0,.02,0,.03,0,.05,0,.02,0,.04,0,.05,0,.02,0,.03,0,.05,0,.02,0,.04,0,.05,0,.02-.01,.04-.02,.07,0,.01,0,.02,0,.03,0,.02-.01,.03-.02,.05,0,0,0,.01,0,.02,0,0,0,.02-.01,.03,0,0,0,0,0,0-.01,.03-.03,.05-.05,.08,0,0,0,.01-.01,.02-.02,.02-.03,.04-.05,.07,0,0-.01,.02-.02,.03-.02,.02-.04,.04-.07,.07,0,0-.02,.02-.03,.02-.02,.02-.05,.04-.07,.06-.01,0-.02,.02-.04,.03-.03,.02-.07,.05-.11,.07,0,0,0,0-.01,0-.05,.03-.1,.05-.15,.08-.02,0-.03,.01-.05,.02-.04,.02-.07,.03-.11,.04-.01,0-.03,.01-.04,.02,0,0-.01,0-.02,0-.03,.01-.07,.02-.11,.03-.02,0-.05,.01-.07,.02-.04,0-.07,.02-.11,.03-.03,0-.05,.01-.08,.02-.02,0-.05,0-.07,.01-.02,0-.04,0-.05,0-.01,0-.03,0-.04,0-.02,0-.05,0-.07,0-.02,0-.05,0-.07,0-.07,0-.13,0-.2,0-.01,0-.03,0-.04,0,0,0,0,0-.01,0-.47,0-.93-.1-1.29-.31-.58-.34-.69-.84-.33-1.24,.08-.09,.19-.18,.32-.26Zm-2.03,3.74s0,.03,0,.05c0,.02,0,.03,0,.05,0,.02-.01,.04-.02,.07,0,.01,0,.02,0,.03,0,.02-.01,.03-.02,.05,0,0,0,.01,0,.02,0,0,0,.02-.01,.03,0,0,0,0,0,0-.01,.03-.03,.05-.05,.08,0,0,0,.01,0,.02-.02,.02-.03,.04-.05,.07,0,0-.01,.02-.02,.03-.02,.02-.04,.04-.07,.06,0,0-.02,.02-.03,.02-.02,.02-.05,.04-.07,.06-.01,0-.02,.02-.04,.03-.03,.02-.07,.05-.11,.07,0,0,0,0-.01,0-.05,.03-.1,.05-.15,.08-.02,0-.03,.01-.05,.02-.04,.02-.07,.03-.11,.04-.01,0-.03,0-.04,.01,0,0-.01,0-.02,0-.03,.01-.07,.02-.11,.03-.02,0-.05,.01-.07,.02-.04,0-.07,.02-.11,.03-.03,0-.05,.01-.08,.02-.02,0-.05,0-.07,.01-.02,0-.04,0-.05,0-.01,0-.03,0-.04,0-.02,0-.05,0-.07,0-.02,0-.05,0-.07,0-.07,0-.13,0-.2,0-.01,0-.03,0-.04,0,0,0,0,0-.01,0-.47,0-.94-.1-1.29-.31-.71-.41-.72-1.08,0-1.5,.36-.21,.82-.31,1.29-.31,0,0,.01,0,.02,0,.06,0,.12,0,.18,0,0,0,.01,0,.02,0,.01,0,.02,0,.03,0,0,0,.02,0,.03,0,.05,0,.09,0,.14,.02,0,0,0,0,0,0,.06,0,.11,.02,.17,.03,.12,.02,.23,.05,.34,.09,0,0,0,0,.01,0,.05,.02,.1,.04,.15,.06,0,0,.02,0,.03,.01,.06,.03,.12,.06,.18,.09,.04,.03,.09,.05,.13,.08,.01,0,.02,.02,.03,.03,.02,.01,.03,.03,.05,.04,0,0,.02,.01,.03,.02,.01,.01,.02,.02,.04,.03,.02,.02,.04,.04,.06,.06,.01,.01,.02,.03,.03,.04,0,0,0,0,0,0,.01,.02,.03,.03,.04,.05,0,.01,.02,.03,.03,.04,0,.01,.01,.02,.02,.03,0,0,.01,.02,.01,.02,0,.01,.01,.03,.02,.04,0,.01,.01,.02,.01,.04,0,0,0,.01,0,.02,0,.02,0,.03,.01,.05,0,.02,.01,.04,.01,.06,0,.02,0,.03,0,.05,0,.02,0,.04,0,.05Zm-3.14-3.74c.36-.21,.82-.31,1.29-.31,.07,0,.13,0,.2,0,0,0,.01,0,.02,0,.01,0,.03,0,.04,0,.05,0,.11,0,.16,.02,0,0,.02,0,.03,0,.31,.04,.61,.14,.85,.28,.04,.03,.09,.05,.13,.08,.01,0,.02,.02,.04,.03,.03,.02,.05,.04,.07,.06,.01,.01,.02,.02,.04,.03,.02,.02,.04,.04,.06,.06,.01,.01,.02,.03,.03,.04,.02,.02,.03,.04,.05,.06,0,.01,.02,.03,.03,.04,.01,.02,.02,.04,.03,.06,0,.01,.01,.03,.02,.04,0,.02,.02,.04,.02,.05,0,.02,0,.03,.01,.05,0,.02,.01,.04,.01,.05,0,.02,0,.03,0,.05,0,.02,0,.04,0,.05,0,.02,0,.03,0,.05,0,.02,0,.03,0,.05,0,.02-.01,.04-.02,.07,0,.01,0,.02,0,.03,0,.02-.01,.03-.02,.05,0,0,0,0,0,.01,0,0,0,.02-.01,.03,0,0,0,0,0,0-.01,.03-.03,.05-.05,.08,0,0,0,.01,0,.02-.02,.02-.03,.04-.05,.07,0,0-.01,.02-.02,.03-.02,.02-.04,.04-.07,.07,0,0-.02,.02-.02,.02-.02,.02-.05,.04-.07,.06-.01,0-.02,.02-.03,.03-.04,.03-.08,.05-.12,.08,0,0,0,0,0,0-.04,.03-.09,.05-.14,.07-.71,.34-1.77,.31-2.44-.07-.72-.41-.72-1.08,0-1.5Zm-10.37-7.48l1.33-.77c.69-.4,1.8-.4,2.49,0l.1,.05c.69,.4,.69,1.04,0,1.44l-1.33,.77,1.34,.77s.08,.05,.12,.08c.01,0,.02,.02,.04,.03,.02,.01,.03,.02,.05,.04,0,0,.02,.01,.02,.02,.01,.01,.02,.02,.04,.04,.02,.02,.04,.03,.05,.05,.01,.01,.02,.03,.03,.04,0,0,0,0,0,0,.01,.02,.03,.03,.04,.05,0,.01,.02,.03,.03,.04,0,0,.01,.02,.02,.03,0,0,.01,.02,.01,.02,0,.01,.01,.03,.02,.04,0,.01,0,.02,.01,.03,0,0,0,.01,0,.02,0,.01,0,.03,.01,.05,0,.02,0,.03,.01,.05,0,.02,0,.03,0,.05,0,.02,0,.03,0,.05,0,.02,0,.03,0,.05,0,.02,0,.03,0,.05,0,.02,0,.04-.02,.06,0,.01,0,.02,0,.03,0,.02-.01,.03-.02,.04,0,0,0,.01,0,.02,0,0,0,.02-.01,.03,0,0,0,0,0,0-.01,.03-.03,.05-.05,.08,0,0,0,.01,0,.02-.02,.02-.03,.04-.05,.06,0,0-.01,.02-.02,.03-.02,.02-.04,.04-.06,.06,0,0-.01,.02-.02,.02-.02,.02-.04,.04-.07,.05-.01,0-.02,.02-.04,.03-.03,.02-.07,.05-.11,.07,0,0,0,0-.01,0h0s-.09,.05-.09,.05c0,0,0,0,0,0-.05,.03-.09,.05-.14,.07-.02,0-.03,.01-.05,.02-.03,.01-.07,.03-.1,.04-.02,0-.04,.01-.06,.02-.02,0-.04,.02-.06,.02,0,0-.01,0-.02,0,0,0-.01,0-.02,0-.02,0-.04,.01-.07,.02-.03,0-.07,.02-.1,.02-.02,0-.04,0-.06,.01-.02,0-.03,0-.05,.01,0,0-.02,0-.02,0-.06,0-.12,.02-.18,.02-.02,0-.03,0-.05,0-.03,0-.07,0-.1,0-.5,.02-1.01-.07-1.39-.29l-1.34-.77-1.33,.78c-.68,.4-1.8,.4-2.49,0l-.1-.05c-.69-.4-.69-1.04,0-1.44l1.33-.78-1.34-.78c-.69-.4-.69-1.04,0-1.44l.09-.05c.43-.25,1.02-.34,1.58-.28,.33,.04,.65,.13,.91,.28l1.34,.78Z"/>
        <g id="Side">
          <g>
            <g id="Side_A" data-name="Side A">
              <path class="cls-4" d="M34.55,46.58l-.65,.38-2.17,1.26v-5.02s.02,.02,.02,.04c0,.05,0,.1,0,.16,0,.02,0,.04,0,.05,0,0,0,.01,0,.02,0,.08,.02,.15,.03,.23,.18,.92,.88,1.82,2.11,2.52l.65,.37Z"/>
            </g>
            <g id="Side_C" data-name="Side C">
              <polygon class="cls-4" points="39.73 49.57 39.7 61.04 31.84 61.04 31.87 49.57 39.73 49.57"/>
            </g>
            <g id="Side_B" data-name="Side B">
              <path class="cls-4" d="M31.87,49.57l-.03,11.47s-.09,0-.13,0c-.02,0-.04,0-.06,0-.01,0-.03,0-.04,0-.01,0-.02,0-.03,0-.04,0-.09-.01-.13-.02,0,0,0,0,0,0-.01,0-.02,0-.04-.01-.03,0-.07-.02-.1-.03,0,0-.02,0-.02,0-.01,0-.02,0-.03-.01-.05-.02-.09-.04-.13-.06-.2-.11-.31-.27-.31-.43l.03-11.47s0,0,0,.01c0,0,0,.02,0,.03,0,0,0,.02,0,.03,0,.01,0,.02,0,.03,0,0,0,.02,0,.03,0,.01,0,.02,.01,.03,0,0,0,.01,0,.02,0,0,0,0,0,0,0,.01,.01,.02,.02,.03,0,0,0,.02,.02,.02,0,0,.02,.02,.02,.03,0,0,.01,.02,.02,.02,0,.01,.02,.02,.03,.03,0,0,.01,.01,.02,.02,.01,.01,.03,.02,.04,.03,0,0,.01,.01,.02,.02,.02,.02,.04,.03,.07,.04,.04,.02,.08,.04,.13,.06,0,0,.02,0,.03,.01,0,0,.02,0,.02,0,.03,.01,.07,.02,.1,.03,.01,0,.02,0,.04,.01,0,0,0,0,0,0,.04,.01,.09,.02,.13,.02,.01,0,.02,0,.03,0,.01,0,.03,0,.04,0,.02,0,.03,0,.05,0,0,0,0,0,0,0,.04,0,.08,0,.13,0Z"/>
            </g>
            <g id="Side_D" data-name="Side D">
              <path class="cls-4" d="M77.36,49.26l-.03,11.44s0,.05,0,.07c0,.07,0,.13-.01,.19,0,.02,0,.05,0,.07-.01,.07-.02,.14-.04,.21,0,0,0,.02,0,.03,0,0,0,0,0,0-.02,.08-.04,.16-.07,.24,0,.02-.02,.04-.02,.07-.02,.06-.05,.12-.08,.18,0,.01-.01,.03-.02,.04,0,.02-.01,.03-.02,.05,0,.02-.02,.03-.03,.05-.02,.05-.05,.09-.08,.14,0,.01-.01,.02-.02,.04-.03,.06-.07,.11-.11,.17,0,.01-.02,.03-.03,.04-.02,.03-.04,.05-.06,.08-.01,.02-.02,.03-.03,.05-.02,.02-.04,.05-.06,.07-.03,.04-.06,.07-.09,.1-.02,.02-.04,.05-.07,.07-.03,.03-.07,.07-.1,.1-.02,.02-.04,.05-.07,.07-.04,.04-.08,.07-.11,.11-.02,.02-.04,.04-.07,.06,0,0-.01,0-.02,.01-.03,.03-.07,.06-.1,.08-.03,.02-.06,.05-.09,.07-.04,.03-.09,.07-.13,.1-.03,.02-.06,.04-.09,.07-.05,.04-.1,.07-.16,.11-.03,.02-.05,.04-.08,.05-.08,.05-.16,.1-.25,.15l-10.29,5.98c-.1,.06-.19,.11-.29,.16-.03,.02-.07,.03-.1,.05-.07,.03-.13,.07-.2,.1-.04,.02-.08,.04-.12,.05-.06,.03-.13,.06-.19,.08-.04,.02-.09,.04-.13,.05-.06,.03-.13,.05-.2,.08-.04,.02-.09,.03-.13,.05-.07,.02-.13,.05-.2,.07-.04,.01-.09,.03-.13,.04-.07,.02-.15,.04-.22,.07-.04,.01-.08,.02-.12,.04-.09,.02-.19,.05-.28,.07-.02,0-.04,.01-.07,.02-.12,.03-.24,.05-.36,.08,0,0,0,0-.01,0-.09,.02-.19,.04-.28,.05,0,0-.02,0-.02,0-.11,.02-.22,.04-.33,.05-.04,0-.07,0-.11,.01-.07,0-.15,.02-.22,.03-.04,0-.09,0-.13,.01-.05,0-.11,.01-.16,.02-.01,0-.02,0-.03,0-.15,.01-.3,.02-.45,.03-.03,0-.07,0-.1,0-.13,0-.26,0-.38,.01-.02,0-.05,0-.07,0h-.04c-.14,0-.28,0-.43,0-.02,0-.04,0-.06,0-.12,0-.25-.01-.37-.02-.02,0-.04,0-.06,0-.02,0-.05,0-.07,0-.11,0-.22-.02-.33-.03-.03,0-.07,0-.1-.01-.14-.01-.28-.03-.42-.05,0,0-.01,0-.02,0-.02,0-.04,0-.06,0-.12-.02-.24-.04-.36-.06-.04,0-.08-.01-.12-.02-.14-.03-.27-.05-.41-.09,0,0,0,0-.01,0,0,0,0,0,0,0-.16-.04-.33-.08-.49-.13-.03,0-.06-.02-.09-.03-.15-.05-.31-.09-.46-.15-.01,0-.02,0-.03-.01-.03,0-.05-.02-.08-.03-.07-.03-.14-.05-.21-.08-.04-.02-.09-.03-.13-.05-.07-.03-.14-.06-.2-.09-.04-.02-.08-.04-.12-.05-.07-.03-.14-.07-.21-.1-.03-.02-.07-.03-.1-.05-.1-.05-.2-.11-.3-.16l-14.89-8.6,.03-11.47,14.89,8.6c.1,.06,.2,.11,.3,.16,.03,.02,.07,.03,.1,.05,.07,.04,.14,.07,.21,.1,.04,.02,.08,.04,.12,.05,.07,.03,.13,.06,.2,.09,.04,.02,.09,.03,.13,.05,.07,.03,.14,.05,.21,.08,.03,.01,.05,.02,.08,.03,.01,0,.02,0,.03,.01,.15,.05,.3,.1,.46,.15,.03,0,.06,.02,.09,.03,.16,.05,.32,.09,.49,.13,0,0,0,0,0,0,0,0,0,0,.01,0,.13,.03,.27,.06,.41,.09,.04,0,.08,.02,.12,.02,.12,.02,.24,.04,.36,.06,.02,0,.04,0,.06,.01,0,0,.01,0,.02,0,.14,.02,.28,.04,.42,.05,.03,0,.07,0,.1,.01,.11,.01,.22,.02,.33,.03,0,0,0,0,.01,0,.02,0,.04,0,.06,0,.02,0,.04,0,.06,0,.12,0,.25,.01,.37,.02,0,0,0,0,.01,0,.02,0,.03,0,.05,0,.14,0,.28,0,.43,0,.01,0,.03,0,.04,0,.02,0,.04,0,.07,0,.13,0,.26,0,.38-.01,.03,0,.07,0,.1,0,.15,0,.3-.02,.45-.03,0,0,.01,0,.02,0,0,0,.01,0,.02,0,.05,0,.11-.01,.16-.02,.04,0,.09,0,.13-.01,.07,0,.15-.02,.22-.03,.04,0,.07,0,.11-.01,.11-.02,.22-.03,.33-.05,0,0,.02,0,.02,0,.09-.02,.19-.03,.28-.05,0,0,0,0,.01,0,.12-.02,.24-.05,.36-.08,.02,0,.05-.01,.07-.02,.09-.02,.19-.05,.28-.07,.04-.01,.08-.02,.12-.04,.07-.02,.15-.04,.22-.07,.02,0,.04-.01,.06-.02,.02,0,.05-.02,.07-.02,.07-.02,.14-.04,.2-.07,.05-.02,.09-.03,.13-.05,.07-.02,.13-.05,.2-.07,.04-.02,.09-.04,.13-.05,.07-.03,.13-.06,.19-.08,.02,0,.03-.02,.05-.02,.02-.01,.05-.02,.07-.03,.07-.03,.14-.07,.2-.1,.03-.02,.07-.03,.1-.05,.1-.05,.2-.1,.29-.16l10.29-5.98c.09-.05,.17-.1,.25-.15,0,0,0,0,0,0,.03-.02,.05-.03,.07-.05,.05-.04,.11-.07,.16-.11,0,0,0,0,.01,0,.03-.02,.05-.04,.08-.06,.04-.03,.09-.07,.13-.1,0,0,0,0,.01-.01,.03-.02,.05-.04,.08-.06,.03-.03,.07-.05,.1-.08,0,0,.01,0,.02-.01,0,0,.01,0,.02-.02,.02-.02,.04-.03,.06-.05,.04-.03,.07-.07,.11-.1,0,0,.02-.02,.03-.02,.02-.02,.03-.03,.05-.05,.03-.03,.06-.07,.1-.1,0-.01,.02-.02,.03-.03,.01-.01,.02-.03,.04-.04,.03-.03,.06-.07,.08-.1,.01-.01,.02-.03,.04-.04,0-.01,.02-.02,.03-.04,.01-.01,.02-.02,.03-.04,.02-.03,.04-.05,.06-.08,0-.01,.02-.02,.02-.03,0,0,0,0,0-.01,.04-.05,.07-.11,.11-.16,0,0,0,0,0-.01,0-.01,.01-.02,.02-.04,.02-.04,.05-.08,.07-.13,0-.01,.01-.02,.02-.03,0,0,0-.02,.01-.03,0-.01,.01-.02,.02-.04,0-.01,.01-.03,.02-.04,.01-.03,.03-.06,.04-.09,.01-.03,.02-.06,.04-.09,0-.02,.02-.04,.02-.07,0-.01,.01-.03,.02-.04,.01-.03,.02-.06,.03-.1,.01-.03,.02-.07,.03-.1,0,0,0,0,0,0,0-.03,.01-.06,.02-.09,0-.03,.02-.07,.02-.1,0-.02,0-.04,0-.05,0-.02,0-.04,0-.07,0-.03,0-.05,0-.08,0-.03,0-.07,0-.1h0s0-.04,0-.06Z"/>
            </g>
          </g>
        </g>
      </g>
      <g class="cls-7">
        <path class="cls-2" d="M31.77,43.45c0,.08,.02,.15,.03,.23,0,.01,0,.02,.01,.04,.13-.77,.61-1.52,1.47-2.16,.18-.14,.38-.27,.59-.39l10.29-5.98c2.84-1.65,7.47-1.65,10.33,0l20.72,11.96c1.24,.71,1.93,1.62,2.1,2.55,0-.03,.01-.06,.02-.09,0-.02,0-.04,0-.05,0-.05,.01-.1,.02-.15,0-.03,0-.07,0-.1,.05-1.12-.67-2.25-2.15-3.11l-20.72-11.96c-2.86-1.65-7.48-1.65-10.33,0l-10.29,5.98c-.21,.12-.41,.26-.59,.39-1.03,.77-1.54,1.69-1.52,2.61,0,.05,0,.1,0,.16,0,.02,0,.05,0,.07Z"/>
      </g>
    </g>
  </g>
</svg>